<svg xmlns:cc="http://creativecommons.org/ns#" xmlns="http://www.w3.org/2000/svg" xmlns:inkscape="http://www.inkscape.org/namespaces/inkscape" xmlns:rdf="http://www.w3.org/1999/02/22-rdf-syntax-ns#" xmlns:svg="http://www.w3.org/2000/svg" xmlns:sodipodi="http://sodipodi.sourceforge.net/DTD/sodipodi-0.dtd" xmlns:dc="http://purl.org/dc/elements/1.1/" viewBox="0 -256 1850 1850" id="svg2989" version="1.1" inkscape:version="0.92.4 (33fec40, 2019-01-16)" width="100%" height="100%" sodipodi:docname="envelope.svg">
  <metadata id="metadata2999">
    <rdf:RDF>
      <cc:Work rdf:about="">
        <dc:format>image/svg+xml</dc:format>
        <dc:type rdf:resource="http://purl.org/dc/dcmitype/StillImage"/>
      </cc:Work>
    </rdf:RDF>
  </metadata>
  <defs id="defs2997"/>
  <sodipodi:namedview pagecolor="#ffffff" bordercolor="#666666" borderopacity="1" objecttolerance="10" gridtolerance="10" guidetolerance="10" inkscape:pageopacity="0" inkscape:pageshadow="2" inkscape:window-width="3840" inkscape:window-height="2086" id="namedview2995" showgrid="false" inkscape:zoom="0.13169643" inkscape:cx="896" inkscape:cy="896" inkscape:window-x="0" inkscape:window-y="0" inkscape:window-maximized="1" inkscape:current-layer="svg2989"/>
  <g transform="matrix(1,0,0,-1,37.966102,1282.678)" id="g2991">
    <path d="m 1664,32 v 768 q -32,-36 -69,-66 -268,-206 -426,-338 -51,-43 -83,-67 -32,-24 -86.5,-48.5 Q 945,256 897,256 h -1 -1 Q 847,256 792.5,280.5 738,305 706,329 674,353 623,396 465,528 197,734 160,764 128,800 V 32 Q 128,19 137.5,9.5 147,0 160,0 h 1472 q 13,0 22.5,9.5 9.5,9.5 9.5,22.5 z m 0,1051 v 11 13.5 q 0,0 -0.5,13 -0.5,13 -3,12.5 -2.5,-0.5 -5.5,9 -3,9.5 -9,7.5 -6,-2 -14,2.5 H 160 q -13,0 -22.5,-9.5 Q 128,1133 128,1120 128,952 275,836 468,684 676,519 682,514 711,489.5 740,465 757,452 774,439 801.5,420.5 829,402 852,393 q 23,-9 43,-9 h 1 1 q 20,0 43,9 23,9 50.5,27.5 27.5,18.5 44.5,31.5 17,13 46,37.5 29,24.5 35,29.5 208,165 401,317 54,43 100.5,115.5 46.5,72.5 46.5,131.5 z m 128,37 V 32 q 0,-66 -47,-113 -47,-47 -113,-47 H 160 Q 94,-128 47,-81 0,-34 0,32 v 1088 q 0,66 47,113 47,47 113,47 h 1472 q 66,0 113,-47 47,-47 47,-113 z" id="path2993" inkscape:connector-curvature="0" style="fill:currentColor"/>
  </g>
  <path style="fill:#ffffff;stroke-width:7.59322023" d="m 125.34345,1644.0205 c -18.40601,-9.7173 -43.716323,-32.2218 -56.245136,-50.0101 L 46.318653,1561.6681 V 963.11186 364.55565 l 22.779661,-32.34232 c 12.528813,-17.78828 37.927536,-40.33955 56.441596,-50.11392 l 33.66194,-17.77159 783.26053,2.00219 783.26052,2.0022 31.3686,21.73982 c 19.5989,13.583 38.5852,36.22203 50.6028,60.33834 l 19.2345,38.59853 -0.167,573.69554 c -0.1565,538.49356 -1.0153,575.56326 -13.9945,604.13356 -14.8436,32.6743 -59.3568,76.2347 -89.6851,87.7656 -11.0873,4.2154 -331.6075,7.0845 -791.45344,7.0845 H 158.80892 Z M 1696.3254,1531.0847 c 6.8534,-6.8534 9.1119,-106.9938 9.1119,-404.0216 V 732.15332 l -32.2712,30.96012 c -17.7492,17.02807 -97.1932,81.436 -176.5424,143.12875 -79.3491,61.69274 -188.6915,148.70921 -242.983,193.36991 -163.3687,134.3886 -204.5255,159.6083 -285.54307,174.973 -48.90049,9.2738 -109.10509,-4.1188 -172.98951,-38.4818 C 771.66713,1223.4945 696.10848,1166.9641 627.2,1110.4801 558.29153,1053.996 442.11526,961.32117 369.03051,904.53588 295.94577,847.75059 219.91865,785.71982 200.08136,766.68971 l -36.06779,-34.60017 v 394.94166 c 0,297.0525 2.25844,397.2001 9.11186,404.0535 13.21681,13.2169 1509.98317,13.2169 1523.19997,0 z M 998.00892,1139.583 c 28.40148,-13.1897 56.53358,-34.7201 355.66448,-272.20088 231.8237,-184.04542 284.981,-235.39738 322.4421,-311.49164 27.8568,-56.58534 38.9558,-137.716 21.6866,-158.52407 -8.2307,-9.91742 -103.8414,-11.33929 -762.48775,-11.33929 -575.60231,0 -755.22441,2.14736 -762.18892,9.11187 -12.79863,12.79863 -11.33131,71.69411 3.00195,120.49301 27.87503,94.90305 63.10022,133.44234 274.88673,300.7489 98.99038,78.20017 222.69437,176.60836 274.89776,218.6849 160.34861,129.2428 192.37013,141.5428 272.09705,104.5172 z" id="path3711" inkscape:connector-curvature="0" transform="translate(0,-256)"/>
</svg>