<!-- Svg Vector Icons : http://www.onlinewebfonts.com/icon --><svg xmlns:cc="http://creativecommons.org/ns#" xmlns="http://www.w3.org/2000/svg" xmlns:inkscape="http://www.inkscape.org/namespaces/inkscape" xmlns:rdf="http://www.w3.org/1999/02/22-rdf-syntax-ns#" xmlns:svg="http://www.w3.org/2000/svg" xmlns:sodipodi="http://sodipodi.sourceforge.net/DTD/sodipodi-0.dtd" xmlns:dc="http://purl.org/dc/elements/1.1/" version="1.1" x="0px" y="0px" viewBox="0 0 1000 1000" enable-background="new 0 0 1000 1000" xml:space="preserve" id="svg881" sodipodi:docname="git2.svg" inkscape:version="0.92.4 (f8dce91, 2019-08-02)"><defs id="defs885"/><sodipodi:namedview pagecolor="#ffffff" bordercolor="#666666" borderopacity="1" objecttolerance="10" gridtolerance="10" guidetolerance="10" inkscape:pageopacity="0" inkscape:pageshadow="2" inkscape:window-width="3840" inkscape:window-height="2086" id="namedview883" showgrid="false" inkscape:zoom="1.786" inkscape:cx="500" inkscape:cy="611.98208" inkscape:window-x="0" inkscape:window-y="0" inkscape:window-maximized="1" inkscape:current-layer="svg881"/>
<metadata id="metadata873"> Svg Vector Icons : http://www.onlinewebfonts.com/icon <rdf:RDF><cc:Work rdf:about=""><dc:format>image/svg+xml</dc:format><dc:type rdf:resource="http://purl.org/dc/dcmitype/StillImage"/><dc:title/></cc:Work></rdf:RDF></metadata>
<g id="g879"><g transform="matrix(1 0 0 -1 0 1536)" id="g877"><path d="M335.4,698c0,36.5-30.1,54.7-90.2,54.7c-57.6,0-86.4-19-86.4-56.9c0-36.8,31.4-55.2,94.1-55.2C307.9,640.6,335.4,659.8,335.4,698z M303.1,1110.9c0,22.2-5.5,40.8-16.4,55.8c-10.9,14.9-27.2,22.4-48.7,22.4c-45.2,0-67.8-26.4-67.8-79.3c0-49.2,22.6-73.8,67.8-73.8C281.4,1036,303.1,1061,303.1,1110.9z M450.2,1288.1v-110.5c-13.1-4.4-27.5-8.4-43.2-12c5.8-15.7,8.8-31,8.8-45.9c0-46.3-13.3-85.8-39.9-118.4c-26.6-32.6-62.5-53.1-107.7-61.5c-14.6-2.9-25.4-7.8-32.5-14.8s-10.7-17.5-10.7-31.7c0-11.3,4.1-20.7,12.3-28.2c8.2-7.5,18.8-13.3,31.7-17.5c12.9-4.2,27.3-8.2,42.9-12c15.7-3.8,31.4-8.5,47-13.9c15.7-5.5,30-12.3,42.9-20.5c12.9-8.2,23.5-19.9,31.7-35c8.2-15.1,12.3-33.1,12.3-53.9c0-110.8-66.2-166.3-198.5-166.3c-25.2,0-48.9,2.3-71.1,6.8s-43.4,12-63.4,22.4c-20.1,10.4-36,25.3-47.9,44.8c-11.8,19.5-17.8,42.7-17.8,69.7c0,60.2,33.2,101.2,99.5,123v2.2C122.3,830,110.1,853,110.1,884c0,39.7,11.5,64.7,34.5,74.9v2.2c-26.3,8.7-48,28.5-65.4,59.3c-17.3,30.8-26,61-26,90.5c0,50.7,17.3,92.9,52,126.6c34.6,33.7,77.5,50.6,128.5,50.6c35,0,67.4-8.6,97.3-25.7C366.7,1262.4,406.5,1271,450.2,1288.1z M624.1,806.3H502.7c1.5,16.4,2.2,40.8,2.2,73.3v333c0,34.3-0.7,57.6-2.2,70h121.4c-1.5-12-2.2-34.6-2.2-67.8V879.6C622,847.1,622.7,822.7,624.1,806.3z M952.8,927.7V820.5c-25.9-14.2-57.6-21.3-95.2-21.3c-22.6,0-42.1,3.6-58.5,10.9s-29.2,16.4-38.3,27.3c-9.1,10.9-16.3,25.2-21.6,42.7c-5.3,17.5-8.7,34.3-10.1,50.3c-1.5,16-2.2,34.8-2.2,56.3v192h1.1v2.2c-2.6,0-6,0.2-10.4,0.5c-4.4,0.4-7.7,0.5-9.8,0.5c-7.7,0-18.4-1.1-32.3-3.3v103.9H728v41.6c0,19.7-1.1,35.9-3.3,48.7h124.1c-2.2-14.9-3.3-45-3.3-90.2h93.5v-103.9c-5.5,0-13.4,0.4-23.8,1.1c-10.4,0.7-18.1,1.1-23.2,1.1h-46.5V981.3c0-47.8,15.9-71.6,47.6-71.6C915.4,909.7,935.3,915.7,952.8,927.7z M637.8,1445.6c0-21.1-7.1-39.6-21.3-55.5c-14.2-15.9-31.7-23.8-52.5-23.8c-21.1,0-39,7.9-53.6,23.8c-14.6,15.9-21.9,34.4-21.9,55.5c0,21.5,7.2,40.3,21.6,56.3s32.4,24.1,53.9,24.1c21.1,0,38.7-8.1,52.8-24.3C630.8,1485.4,637.8,1466.8,637.8,1445.6z" id="path875"/></g></g>
<path style="fill:#ffffff;stroke:none;stroke-width:0.55991042" d="M 235.05039,989.58455 C 185.81733,987.37878 152.51221,979.80661 118.30907,963.0425 102.50987,955.29877 93.204375,948.8481 82.972643,938.54703 64.239242,919.68673 53.261034,897.28175 48.885924,868.98096 47.635577,860.893 47.147986,840.78169 47.99676,832.30638 c 3.779151,-37.7362 21.30599,-66.46354 53.41363,-87.54752 11.1402,-7.31539 26.38773,-14.7097 39.43507,-19.12408 5.29518,-1.79155 5.73909,-2.05354 5.73909,-3.38708 0,-1.15996 -0.76728,-1.96959 -3.88604,-4.10054 -2.13732,-1.46037 -6.16542,-4.80093 -8.95134,-7.42348 -17.71766,-16.67866 -25.04918,-38.77733 -23.00654,-69.3463 0.73552,-11.00733 2.60851,-21.91596 5.05504,-29.44143 5.02985,-15.47175 14.15443,-27.13532 25.84514,-33.03677 2.52947,-1.27687 3.26401,-1.93235 3.26401,-2.91272 0,-1.06631 -0.68171,-1.51769 -4.33931,-2.87316 C 114.36235,563.4027 91.757899,540.36181 74.330179,505.5991 59.921361,476.85814 53.638763,452.1182 53.64201,424.13214 c 0.0057,-49.28801 16.571324,-90.14257 50.17723,-123.74847 29.95166,-29.95167 65.76675,-46.75171 109.39465,-51.31454 8.49637,-0.88859 32.20239,-0.88114 40.31355,0.0127 25.74879,2.83742 47.82663,9.39273 69.42889,20.61467 l 8.1187,4.2175 9.18242,-0.33863 c 20.38329,-0.7517 42.94689,-4.45923 67.0059,-11.01008 8.95196,-2.43746 30.2473,-9.41476 37.36826,-12.24351 2.38354,-0.94685 4.57911,-1.72154 4.87905,-1.72154 0.35012,0 0.54533,19.60806 0.54533,54.77634 v 54.77633 l -8.25868,2.60779 c -8.48777,2.68013 -31.09453,8.77347 -32.60697,8.78877 -2.36077,0.0239 -2.44385,0.79523 -0.67055,6.2254 2.47645,7.58335 3.81268,12.75414 5.26189,20.36177 1.14951,6.03435 1.27826,8.34477 1.26375,22.67637 -0.0173,17.1191 -0.70292,24.89276 -3.40727,38.63382 -10.28242,52.24581 -42.46679,95.76517 -88.77915,120.04616 -15.47064,8.11107 -31.35083,13.51319 -53.51794,18.20574 -13.69086,2.8982 -22.97066,6.60901 -30.29169,12.11302 -9.46197,7.11359 -14.0638,18.18988 -14.06174,33.8456 5.6e-4,4.28453 0.32911,8.3912 0.84714,10.58892 2.34157,9.93393 8.91636,18.26121 20.25207,25.65019 11.75385,7.66155 24.17078,12.02793 61.8327,21.74332 49.33066,12.7255 72.88664,21.76438 95.3724,36.59623 18.81128,12.40811 33.85886,34.92672 39.19012,58.6478 4.37648,19.47282 3.90747,48.58172 -1.18485,73.53726 -15.02962,73.65431 -70.20898,113.80807 -165.37337,120.34132 -8.90315,0.6112 -34.21657,1.12038 -40.87346,0.82218 z m 39.71696,-95.1724 c 30.24426,-3.51405 49.55443,-15.15935 57.02504,-34.38975 3.16941,-8.15851 4.51513,-18.90454 3.50586,-27.99552 -2.98939,-26.92675 -22.39703,-41.86058 -61.61404,-47.41089 -10.25928,-1.45198 -45.47301,-1.4627 -55.15118,-0.0168 -33.02841,4.93442 -51.43655,17.29025 -57.63706,38.68692 -5.30276,18.29872 -1.63309,37.12766 9.55362,49.01921 12.94119,13.75655 34.68441,21.11545 67.95232,22.99815 10.24806,0.57996 27.30006,0.16198 36.36544,-0.89132 z M 256.04703,498.63312 c 12.95312,-2.95802 21.4479,-7.49944 29.27191,-15.64911 11.42479,-11.90032 16.95289,-28.29682 17.85987,-52.97281 1.35398,-36.83772 -12.97166,-66.94906 -37.04429,-77.86411 -16.76995,-7.60386 -43.5364,-7.2139 -61.16656,0.89114 -23.2569,10.69179 -34.86718,34.9515 -34.86718,72.85503 0,43.91147 16.87536,67.50017 52.40733,73.25597 6.74588,1.09275 27.92061,0.76692 33.53892,-0.51611 z" id="path887" inkscape:connector-curvature="0"/><path style="fill:#ffffff;stroke:none;stroke-width:0.55991042" d="m 503.46643,723.54423 c 1.27483,-20.28214 1.43175,-45.84112 1.43602,-233.90257 0.004,-189.09622 -0.15906,-215.34549 -1.44002,-231.38298 l -0.36895,-4.61926 h 60.34469 60.34469 l -0.34807,3.49944 c -1.66992,16.78907 -1.7652,29.18495 -1.76573,229.70325 -5.2e-4,199.52311 0.11327,214.83589 1.76729,237.82194 l 0.35254,4.89922 h -60.3504 -60.35039 z" id="path889" inkscape:connector-curvature="0"/><path style="fill:#a0a0a0;stroke:none;stroke-width:0.55991042" d="m 841.43337,735.94171 c -9.07114,-1.07323 -12.36385,-1.57094 -18.38597,-2.77917 -9.21495,-1.84877 -18.94857,-5.16377 -27.80664,-9.47004 -33.05943,-16.07165 -48.55231,-37.4389 -59.68471,-82.31512 -1.22229,-4.92721 -2.94738,-13.24188 -3.83355,-18.47704 -1.54225,-9.11118 -2.11558,-14.07913 -3.4893,-30.23517 -0.85639,-10.07173 -1.32771,-234.88242 -0.49244,-234.88242 0.32489,0 0.59071,-0.60638 0.59071,-1.34752 0,-1.299 -0.19658,-1.36452 -5.45913,-1.81971 -9.97193,-0.86252 -25.93594,-0.48937 -35.69429,0.83433 -4.92721,0.66837 -9.52547,1.34551 -10.21836,1.50477 l -1.2598,0.28956 V 305.4418 253.63942 h 26.31579 26.31579 l -0.003,-25.89586 c -0.002,-14.24272 -0.25931,-30.68309 -0.57271,-36.53415 -0.54528,-10.18056 -1.83628,-23.45628 -2.5623,-26.34897 l -0.34299,-1.3666 h 61.83812 61.83813 l -0.42537,3.21949 c -1.49384,11.30616 -2.72642,42.41449 -2.73983,69.14893 l -0.009,17.77716 h 46.75252 46.75252 v 51.82916 51.82916 l -5.73908,-0.33625 c -3.15649,-0.18493 -11.86685,-0.7057 -19.35634,-1.15726 -8.70433,-0.52481 -23.50684,-0.82103 -41.02837,-0.82103 h -27.4111 l 0.19542,108.7626 c 0.21035,117.07201 0.0516,110.42466 2.94545,123.32027 4.61854,20.581 16.09351,34.1643 32.16334,38.07277 10.5893,2.5755 29.96672,1.19577 44.40795,-3.16197 7.98085,-2.40828 18.8402,-7.4646 26.00078,-12.10646 l 1.2598,-0.81667 v 53.24964 53.24963 l -4.43949,2.23214 c -16.46904,8.28047 -35.31891,13.73014 -58.27047,16.8466 -7.02694,0.95414 -12.24837,1.21299 -27.43561,1.36008 -10.31635,0.0999 -19.63886,0.0774 -20.71669,-0.0504 z" id="path891" inkscape:connector-curvature="0"/><path style="fill:#ffffff;stroke:none;stroke-width:0.55991042" d="m 556.43897,169.02771 c -22.86542,-2.02534 -43.80098,-16.10795 -56.79085,-38.2012 -11.73364,-19.95665 -14.08593,-44.842456 -6.4115,-67.829781 6.10806,-18.29554 21.35315,-36.427018 37.74686,-44.893554 20.96019,-10.8248993 47.93285,-10.3644478 67.44877,1.151421 19.11293,11.27807 33.55044,32.828103 37.92824,56.613265 1.2757,6.93103 1.24504,22.191893 -0.0591,29.395299 -3.37628,18.64965 -14.3995,37.23332 -29.05153,48.97701 -11.1855,8.96524 -22.63238,13.56595 -36.97013,14.85895 -6.4277,0.57966 -6.49432,0.57931 -13.84081,-0.0714 z" id="path893" inkscape:connector-curvature="0"/><path style="fill:none;stroke:none;stroke-width:0.55991042" d="m 839.0531,735.71355 c -0.0766,-0.15879 -3.16284,-0.72256 -6.85825,-1.2528 -8.90583,-1.27788 -18.89211,-3.7631 -26.29523,-6.54384 -8.11537,-3.04826 -21.2274,-9.88767 -27.73613,-14.46754 -7.40737,-5.21219 -17.86716,-15.80158 -22.53378,-22.81298 -12.96339,-19.47697 -23.3721,-54.43017 -26.17357,-87.89283 -0.36094,-4.31131 -0.84445,-8.21668 -1.07446,-8.67861 -0.23001,-0.46193 -0.39839,-54.4382 -0.37418,-119.94728 l 0.044,-119.10741 -2.5196,-0.40445 c -1.38577,-0.22245 -7.93673,-0.40021 -14.55767,-0.39501 -16.0467,0.0126 -19.03695,0.1152 -19.03695,0.65323 0,0.24982 -0.81887,0.3725 -1.81971,0.27262 -1.00084,-0.0999 -4.78023,0.28037 -8.39866,0.84501 l -6.57894,1.0266 v -51.68442 -51.68442 h 26.59574 26.59575 V 223.1243 c 0,-16.78331 -0.19721,-30.51512 -0.43824,-30.51512 -0.24103,0 -0.33876,-1.76036 -0.21719,-3.91192 0.12157,-2.15156 0.0319,-4.35621 -0.19921,-4.89922 -0.23114,-0.54301 -0.37146,-1.7434 -0.31183,-2.66754 0.1308,-2.02713 -1.50369,-16.41441 -1.94611,-17.13026 -0.18588,-0.30075 24.72587,-0.5064 61.34412,-0.5064 h 61.65709 l -0.45383,4.05935 c -0.24961,2.23264 -0.45384,5.76008 -0.45384,7.83875 0,2.07866 -0.2099,3.77939 -0.46646,3.77939 -0.25655,0 -0.41184,2.20465 -0.3451,4.89922 0.0667,2.69457 -0.0649,5.33913 -0.29248,5.87681 -0.2276,0.53767 -0.32426,3.9781 -0.2148,7.64539 0.10946,3.66729 0.0116,6.55197 -0.21731,6.4104 -0.22898,-0.14157 -0.38983,10.90569 -0.35744,24.54946 l 0.0589,24.80685 46.69002,-0.14632 46.69003,-0.14631 v 52.10338 52.10338 l -1.81971,-0.28556 c -3.2418,-0.5087 -26.58482,-1.60431 -28.08234,-1.31804 -0.79911,0.15276 -1.45293,0.0775 -1.45293,-0.16715 0,-0.24469 -13.92077,-0.39872 -30.93505,-0.34229 l -30.93505,0.10261 0.016,102.4636 c 0.009,56.35499 0.17285,106.62094 0.36463,111.70213 0.26431,7.00301 0.71272,10.86435 1.85312,15.95745 1.6367,7.3097 5.42638,17.73846 7.02788,19.33996 0.55189,0.5519 0.89241,1.11448 0.7567,1.25019 -0.37694,0.37695 4.73841,7.1295 5.67241,7.48791 0.45113,0.17311 0.69848,0.51176 0.54966,0.75255 -0.2815,0.45549 0.70513,1.47893 1.67678,1.73934 0.30795,0.0825 1.02957,0.74712 1.60359,1.47687 0.57402,0.72975 1.1562,1.21429 1.29373,1.07676 0.13753,-0.13753 0.8668,0.36669 1.62059,1.12048 0.7538,0.75379 1.59399,1.23244 1.86709,1.06365 0.2731,-0.16878 0.6314,0.0445 0.79621,0.47405 0.39021,1.01687 9.20709,4.41619 10.54612,4.06603 0.56632,-0.1481 1.02967,-0.0123 1.02967,0.30177 0,0.316 0.75021,0.46094 1.67973,0.32451 0.92386,-0.13559 1.67973,-0.0262 1.67973,0.24314 0,0.26971 4.087,0.37819 9.09855,0.24148 5.0042,-0.1365 9.92759,-0.26593 10.94087,-0.28762 1.01328,-0.0217 2.10055,-0.19903 2.41615,-0.39408 0.3156,-0.19505 2.00615,-0.45582 3.75678,-0.57949 1.75062,-0.12367 3.26222,-0.46243 3.3591,-0.75279 0.0969,-0.29037 0.50403,-0.40213 0.90476,-0.24835 1.03759,0.39816 9.27574,-1.79098 14.87654,-3.95317 5.06129,-1.95391 15.01524,-6.80197 18.55961,-9.03943 1.17414,-0.74121 2.2658,-1.34766 2.42589,-1.34766 0.1601,0 0.29108,23.77078 0.29108,52.82396 v 52.82395 l -6.01903,2.83928 c -17.89089,8.43941 -34.44965,13.07905 -58.65062,16.43347 -4.557,0.63164 -48.31828,1.578 -48.57288,1.05045 z" id="path895" inkscape:connector-curvature="0"/><path style="fill:#f9f9f9;stroke:none;stroke-width:0.55991042" d="m 839.0531,735.71355 c -0.0766,-0.15879 -3.16284,-0.72256 -6.85825,-1.2528 -8.90583,-1.27788 -18.89211,-3.7631 -26.29523,-6.54384 -8.11537,-3.04826 -21.2274,-9.88767 -27.73613,-14.46754 -7.40737,-5.21219 -17.86716,-15.80158 -22.53378,-22.81298 -12.96339,-19.47697 -23.3721,-54.43017 -26.17357,-87.89283 -0.36094,-4.31131 -0.84445,-8.21668 -1.07446,-8.67861 -0.23001,-0.46193 -0.39839,-54.4382 -0.37418,-119.94728 l 0.044,-119.10741 -2.5196,-0.40445 c -1.38577,-0.22245 -7.93673,-0.40021 -14.55767,-0.39501 -16.0467,0.0126 -19.03695,0.1152 -19.03695,0.65323 0,0.24982 -0.81887,0.3725 -1.81971,0.27262 -1.00084,-0.0999 -4.78023,0.28037 -8.39866,0.84501 l -6.57894,1.0266 v -51.68442 -51.68442 h 26.59574 26.59575 V 223.1243 c 0,-16.78331 -0.19721,-30.51512 -0.43824,-30.51512 -0.24103,0 -0.33876,-1.76036 -0.21719,-3.91192 0.12157,-2.15156 0.0319,-4.35621 -0.19921,-4.89922 -0.23114,-0.54301 -0.37146,-1.7434 -0.31183,-2.66754 0.1308,-2.02713 -1.50369,-16.41441 -1.94611,-17.13026 -0.18588,-0.30075 24.72587,-0.5064 61.34412,-0.5064 h 61.65709 l -0.45383,4.05935 c -0.24961,2.23264 -0.45384,5.76008 -0.45384,7.83875 0,2.07866 -0.2099,3.77939 -0.46646,3.77939 -0.25655,0 -0.41184,2.20465 -0.3451,4.89922 0.0667,2.69457 -0.0649,5.33913 -0.29248,5.87681 -0.2276,0.53767 -0.32426,3.9781 -0.2148,7.64539 0.10946,3.66729 0.0116,6.55197 -0.21731,6.4104 -0.22898,-0.14157 -0.38983,10.90569 -0.35744,24.54946 l 0.0589,24.80685 46.69002,-0.14632 46.69003,-0.14631 v 52.10338 52.10338 l -1.81971,-0.28556 c -3.2418,-0.5087 -26.58482,-1.60431 -28.08234,-1.31804 -0.79911,0.15276 -1.45293,0.0775 -1.45293,-0.16715 0,-0.24469 -13.92077,-0.39872 -30.93505,-0.34229 l -30.93505,0.10261 0.016,102.4636 c 0.009,56.35499 0.17285,106.62094 0.36463,111.70213 0.26431,7.00301 0.71272,10.86435 1.85312,15.95745 1.6367,7.3097 5.42638,17.73846 7.02788,19.33996 0.55189,0.5519 0.89241,1.11448 0.7567,1.25019 -0.37694,0.37695 4.73841,7.1295 5.67241,7.48791 0.45113,0.17311 0.69848,0.51176 0.54966,0.75255 -0.2815,0.45549 0.70513,1.47893 1.67678,1.73934 0.30795,0.0825 1.02957,0.74712 1.60359,1.47687 0.57402,0.72975 1.1562,1.21429 1.29373,1.07676 0.13753,-0.13753 0.8668,0.36669 1.62059,1.12048 0.7538,0.75379 1.59399,1.23244 1.86709,1.06365 0.2731,-0.16878 0.6314,0.0445 0.79621,0.47405 0.39021,1.01687 9.20709,4.41619 10.54612,4.06603 0.56632,-0.1481 1.02967,-0.0123 1.02967,0.30177 0,0.316 0.75021,0.46094 1.67973,0.32451 0.92386,-0.13559 1.67973,-0.0262 1.67973,0.24314 0,0.26971 4.087,0.37819 9.09855,0.24148 5.0042,-0.1365 9.92759,-0.26593 10.94087,-0.28762 1.01328,-0.0217 2.10055,-0.19903 2.41615,-0.39408 0.3156,-0.19505 2.00615,-0.45582 3.75678,-0.57949 1.75062,-0.12367 3.26222,-0.46243 3.3591,-0.75279 0.0969,-0.29037 0.50403,-0.40213 0.90476,-0.24835 1.03759,0.39816 9.27574,-1.79098 14.87654,-3.95317 5.06129,-1.95391 15.01524,-6.80197 18.55961,-9.03943 1.17414,-0.74121 2.2658,-1.34766 2.42589,-1.34766 0.1601,0 0.29108,23.77078 0.29108,52.82396 v 52.82395 l -6.01903,2.83928 c -17.89089,8.43941 -34.44965,13.07905 -58.65062,16.43347 -4.557,0.63164 -48.31828,1.578 -48.57288,1.05045 z" id="path897" inkscape:connector-curvature="0"/></svg>