<!-- Generator: Adobe Illustrator 16.0.0, SVG Export Plug-In . SVG Version: 6.00 Build 0)  --><svg xmlns:cc="http://creativecommons.org/ns#" xmlns="http://www.w3.org/2000/svg" xmlns:inkscape="http://www.inkscape.org/namespaces/inkscape" xmlns:rdf="http://www.w3.org/1999/02/22-rdf-syntax-ns#" xmlns:svg="http://www.w3.org/2000/svg" xmlns:sodipodi="http://sodipodi.sourceforge.net/DTD/sodipodi-0.dtd" xmlns:dc="http://purl.org/dc/elements/1.1/" version="1.1" id="Capa_1" x="0px" y="0px" width="512px" height="512px" viewBox="0 0 512 512" style="enable-background:new 0 0 512 512;" xml:space="preserve" sodipodi:docname="map-marker.svg" inkscape:version="0.92.4 (33fec40, 2019-01-16)"><metadata id="metadata41"><rdf:RDF><cc:Work rdf:about=""><dc:format>image/svg+xml</dc:format><dc:type rdf:resource="http://purl.org/dc/dcmitype/StillImage"/></cc:Work></rdf:RDF></metadata><defs id="defs39"/><sodipodi:namedview pagecolor="#ffffff" bordercolor="#666666" borderopacity="1" objecttolerance="10" gridtolerance="10" guidetolerance="10" inkscape:pageopacity="0" inkscape:pageshadow="2" inkscape:window-width="3840" inkscape:window-height="2086" id="namedview37" showgrid="false" inkscape:zoom="0.4609375" inkscape:cx="256" inkscape:cy="256" inkscape:window-x="0" inkscape:window-y="0" inkscape:window-maximized="1" inkscape:current-layer="Capa_1"/>
<g id="g4">
	<path d="M256,0C167.641,0,96,71.625,96,160c0,24.75,5.625,48.219,15.672,69.125C112.234,230.313,256,512,256,512l142.594-279.375   C409.719,210.844,416,186.156,416,160C416,71.625,344.375,0,256,0z M256,256c-53.016,0-96-43-96-96s42.984-96,96-96   c53,0,96,43,96,96S309,256,256,256z" id="path2"/>
</g>
<g id="g6">
</g>
<g id="g8">
</g>
<g id="g10">
</g>
<g id="g12">
</g>
<g id="g14">
</g>
<g id="g16">
</g>
<g id="g18">
</g>
<g id="g20">
</g>
<g id="g22">
</g>
<g id="g24">
</g>
<g id="g26">
</g>
<g id="g28">
</g>
<g id="g30">
</g>
<g id="g32">
</g>
<g id="g34">
</g>
<path style="fill:#ffffff;stroke-width:2.16949153" d="M 184.56034,369.85214 C 144.18654,290.88063 109.776,220.82616 105.55863,209.01703 98.593539,189.514 98.079873,186.25554 97.985459,160.97627 c -0.08407,-22.50995 0.759174,-29.88386 4.961851,-43.38983 17.66308,-56.763057 59.40038,-97.319718 115.30354,-112.0418968 21.11397,-5.56039622 57.12946,-5.05098518 79.08867,1.1186476 44.86859,12.6062242 80.99077,42.5653272 101.04458,83.8046062 11.45116,23.548473 15.77079,42.801793 15.81919,70.508473 0.0666,38.08862 -0.87944,40.38017 -83.85816,203.14021 l -74.25496,145.64868 z m 112.6609,-122.73055 c 73.71538,-35.00729 73.84278,-137.90174 0.21605,-174.527514 -23.68417,-11.781742 -56.21381,-12.143234 -80.25741,-0.891878 -18.92047,8.853955 -28.28842,16.32455 -39.43425,31.447352 -23.61896,32.04649 -24.14179,79.32779 -1.24031,112.16587 10.70272,15.34648 31.66718,31.1143 48.83167,36.72738 10.78445,3.52671 17.76655,4.26859 34.46743,3.6623 18.71621,-0.67946 22.69523,-1.59225 37.41682,-8.58351 z" id="path43" inkscape:connector-curvature="0"/></svg>