<svg xmlns:cc="http://creativecommons.org/ns#" xmlns="http://www.w3.org/2000/svg" xmlns:inkscape="http://www.inkscape.org/namespaces/inkscape" xmlns:rdf="http://www.w3.org/1999/02/22-rdf-syntax-ns#" xmlns:svg="http://www.w3.org/2000/svg" xmlns:sodipodi="http://sodipodi.sourceforge.net/DTD/sodipodi-0.dtd" xmlns:dc="http://purl.org/dc/elements/1.1/" height="512" id="svg4156" version="1.1" width="512" sodipodi:docname="group-mobile-communication-meeting-social-networks-facebook-twitter-icon.svg" inkscape:version="0.92.4 (f8dce91, 2019-08-02)">
  <metadata id="metadata939">
    <rdf:RDF>
      <cc:Work rdf:about="">
        <dc:format>image/svg+xml</dc:format>
        <dc:type rdf:resource="http://purl.org/dc/dcmitype/StillImage"/>
      </cc:Work>
    </rdf:RDF>
  </metadata>
  <sodipodi:namedview pagecolor="#ffffff" bordercolor="#666666" borderopacity="1" objecttolerance="10" gridtolerance="10" guidetolerance="10" inkscape:pageopacity="0" inkscape:pageshadow="2" inkscape:window-width="3840" inkscape:window-height="2086" id="namedview937" showgrid="false" inkscape:zoom="3.4882812" inkscape:cx="256" inkscape:cy="256" inkscape:window-x="0" inkscape:window-y="0" inkscape:window-maximized="1" inkscape:current-layer="svg4156"/>
  <defs id="defs4158"/>
  <g id="layer1" transform="translate(0,448)">
    <g id="g29342" transform="translate(6039.9901,-9378.8571)">
      <path d="m -5899.4688,9594.3438 c -4.4319,0 -8,3.5679 -8,8 l 0,154 c 0,4.432 3.5681,8 8,8 l 154,0 c 4.432,0 8,-3.568 8,-8 l 0,-154 c 0,-4.4321 -3.568,-8 -8,-8 l -154,0 z m 93.1876,16.875 a 2.0002,2.0002 0 0 1 0.3437,0.031 l 0.031,0 c 8.5114,0.019 15.729,0.6237 18.0624,0.9375 a 2.0002,2.0002 0 0 1 1.7188,1.9687 l 0,21.0313 a 2.0002,2.0002 0 0 1 -2,2 l -12.4375,0 c -4.5613,0 -6.759,1.0324 -7.9687,2.4687 -1.2099,1.4365 -1.6876,3.7512 -1.6876,6.9688 l 0,13 21.2813,0 a 2.0002,2.0002 0 0 1 1.9687,2.2812 l -3.0312,23.5 a 2.0002,2.0002 0 0 1 -1.9688,1.75 l -18.25,0 0,58.3126 a 2.0002,2.0002 0 0 1 -2,2 l -24.2812,0 a 2.0002,2.0002 0 0 1 -2,-2 l 0,-58.3438 -18.2812,0 a 2.0002,2.0002 0 0 1 -2,-2 l 0,-23.5 a 2.0002,2.0002 0 0 1 2,-2 l 18.2812,0 0,-15.3438 c 0,-10.465 3.2593,-18.8262 9,-24.5 5.7407,-5.6736 13.8386,-8.5624 23.2188,-8.5624 z" id="rect29330" style="fill:#4d4d4d;fill-opacity:1;fill-rule:nonzero;stroke:none" transform="translate(0,-448)"/>
      <path d="m -5675.6374,8977.9735 c -27.6022,0 -50.0131,22.4027 -50.0131,50.0131 0,3.9282 0.4456,7.7447 1.3223,11.3719 -41.5762,-2.0725 -78.4216,-21.994 -103.0821,-52.2463 -4.2862,7.3871 -6.7584,15.9635 -6.7584,25.1241 0,17.3537 8.8569,32.6653 22.2736,41.6089 -8.1832,-0.2485 -15.8951,-2.509 -22.6557,-6.2589 l 0,0.617 c 0,24.219 17.2309,44.4392 40.1104,49.014 -4.1859,1.1348 -8.6169,1.7631 -13.1644,1.7631 -3.2387,0 -6.3776,-0.3346 -9.4326,-0.9109 6.363,19.8678 24.8558,33.9791 46.6926,35.1002 9.0136,0.4628 32.3722,0 45.664,0 1e-4,12.1164 0,24.6 0,36.7164 64.5057,-19.3647 99.2327,-81.2642 99.2327,-136.1695 0,-2.1874 -0.044,-4.3158 -0.147,-6.4646 9.7544,-7.0186 18.1862,-15.7799 24.8598,-25.7706 -8.9407,3.933 -18.5368,6.6217 -28.5915,7.8164 10.3178,-6.176 18.27,-16.0058 21.9799,-27.6806 -9.6809,5.7433 -20.3817,9.8882 -31.7652,12.136 -9.1304,-9.7101 -22.1223,-15.7797 -36.5253,-15.7797 z m 74.9021,23.5079 c 0.048,-0.021 0.099,-0.038 0.1469,-0.059 l -0.058,-0.059 c -0.027,0.041 -0.061,0.076 -0.088,0.1175 z" id="path5694" style="fill:#4d4d4d;fill-opacity:1"/>
      <path d="m -5942.8194,9128.1043 c -2.8668,-0.01 -5.7307,0.8236 -8.1472,2.3629 -47.0183,28.9982 -73.0233,69.2067 -73.0233,110.8981 0,41.6914 26.005,81.8799 73.0233,110.8781 94.0366,57.9964 239.8962,57.9964 333.9329,0 47.0183,-28.9982 73.0434,-69.1867 73.0434,-110.8781 -10e-5,-41.6914 -26.0251,-81.8999 -73.0434,-110.8981 -3.3578,-2.1854 -7.6106,-2.9533 -11.5228,-2.0807 -3.9123,0.8725 -7.4328,3.3742 -9.5387,6.7782 -2.1059,3.4039 -2.7697,7.6656 -1.7985,11.5468 0.9713,3.8813 3.5648,7.3312 7.0271,9.3476 40.8206,25.1757 58.7158,55.9939 58.7158,85.3062 0,29.3123 -17.8952,60.1105 -58.7158,85.2862 -81.641,50.3515 -220.606,50.3515 -302.2471,0 -40.8206,-25.1757 -58.7357,-55.9739 -58.7358,-85.2862 0,-29.3122 17.9152,-60.1305 58.7358,-85.3062 2.8045,-1.6728 5.0375,-4.2814 6.2549,-7.3071 1.2174,-3.0257 1.4122,-6.4509 0.5457,-9.5946 -1.7332,-6.2875 -7.9716,-11.0409 -14.5063,-11.0531 z" id="path5696" style="font-size:medium;font-style:normal;font-variant:normal;font-weight:normal;font-stretch:normal;text-indent:0;text-align:start;text-decoration:none;line-height:normal;letter-spacing:normal;word-spacing:normal;text-transform:none;direction:ltr;block-progression:tb;writing-mode:lr-tb;text-anchor:start;baseline-shift:baseline;color:#2d2d2d;fill:#4d4d4d;fill-opacity:1;stroke:none;stroke-width:46.94535446;marker:none;visibility:visible;display:inline;overflow:visible;enable-background:accumulate;font-family:Sans;-inkscape-font-specification:Sans"/>
    </g>
  </g>
  <path style="fill:#fffff0;stroke:none;stroke-width:0.28667414;fill-opacity:0" d="m 137.9235,384.90988 c -1.71053,-0.63065 -3.3669,-2.05433 -4.24735,-3.65068 l -0.86002,-1.55931 v -79.2654 -79.2654 l 0.63303,-1.18345 c 0.89626,-1.67556 3.04083,-3.46618 4.76434,-3.97801 1.26568,-0.37587 11.03779,-0.42868 79.31483,-0.42868 68.61093,0 78.04463,0.0515 79.32885,0.43284 2.07365,0.61581 4.17907,2.58031 4.93729,4.60684 l 0.5894,1.57533 -0.002,78.17962 c -10e-4,52.32547 -0.0984,78.52823 -0.29439,79.2338 -0.55875,2.01175 -1.99225,3.73045 -3.9575,4.74488 l -1.81664,0.93777 -78.73867,-0.0218 c -59.51341,-0.0165 -78.96154,-0.10398 -79.65145,-0.35834 z m 91.35847,-16.82029 c 0.56593,-0.56593 0.57335,-0.95558 0.57335,-30.10079 v -29.52743 h 9.42849 c 8.65817,0 9.48064,-0.0422 10.06684,-0.51691 0.58843,-0.47649 0.7583,-1.43479 2.17235,-12.25532 0.8437,-6.45613 1.53826,-12.21715 1.54347,-12.80227 0.006,-0.7338 -0.1852,-1.24521 -0.61795,-1.64838 -0.60876,-0.56715 -0.95372,-0.58451 -11.6103,-0.58451 h -10.9829 v -7.25754 c 0,-10.4871 0.47897,-12.30395 3.65471,-13.86341 l 1.64876,-0.80963 8.84099,-0.14333 8.84099,-0.14334 0.54759,-0.67677 c 0.51822,-0.64049 0.54759,-1.28065 0.54759,-11.93689 0,-13.27599 0.22231,-12.37835 -3.16309,-12.77198 -1.17721,-0.13688 -5.6054,-0.40762 -9.84042,-0.60164 -5.93975,-0.27213 -8.46681,-0.27611 -11.05411,-0.0174 -7.96328,0.7962 -14.12478,3.41137 -19.04181,8.08207 -4.26204,4.04852 -6.90672,8.91768 -8.56686,15.77258 -0.52852,2.1823 -0.6033,3.58168 -0.71619,13.40202 l -0.12605,10.96529 h -9.48986 c -9.34891,0 -9.49971,0.009 -10.15335,0.62331 l -0.66349,0.62333 v 12.57672 12.57672 l 0.70365,0.70365 0.70366,0.70366 h 9.47327 9.47328 v 29.52743 c 0,29.14521 0.007,29.53486 0.57335,30.10079 0.55654,0.55654 0.95558,0.57334 13.61702,0.57334 12.66144,0 13.06047,-0.0168 13.61702,-0.57334 z" id="path941" inkscape:connector-curvature="0"/>
  <path style="fill:#a0a0a0;stroke:none;stroke-width:0.28667414" d="m 315.50134,220.52408 -0.0738,-18.27548 -23.93729,-0.004 c -26.0875,-0.005 -25.72095,0.0146 -32.44468,-1.71682 -14.84305,-3.82215 -27.49814,-14.18072 -33.6856,-27.57266 -1.13239,-2.4509 -2.16206,-5.28199 -1.98534,-5.45871 0.0629,-0.0629 0.93398,0.0463 1.9358,0.24264 2.85257,0.55901 11.84716,0.47432 15.24363,-0.14354 1.54837,-0.28167 3.35441,-0.67473 4.01344,-0.87347 l 1.19822,-0.36135 -1.29003,-0.33732 c -9.98055,-2.60968 -17.55418,-6.80599 -24.20081,-13.40893 -8.74632,-8.68883 -13.77237,-19.91187 -14.64738,-32.70726 l -0.20058,-2.93311 2.79742,1.30724 c 5.53636,2.58715 11.98587,4.30799 17.33086,4.62417 l 2.7234,0.16109 -2.58007,-2.00643 c -3.73186,-2.90215 -5.30914,-4.38957 -7.79013,-7.3463 -5.65006,-6.73352 -9.21912,-14.078554 -11.04605,-22.732561 -0.57902,-2.742723 -0.65637,-3.90365 -0.64688,-9.708733 0.0121,-7.379464 0.36614,-9.771196 2.31301,-15.62374 1.10589,-3.324482 3.65349,-8.886898 4.07022,-8.886898 0.14614,0 1.08933,0.999093 2.09598,2.220207 2.74408,3.32869 9.94597,10.619513 14.15727,14.332105 20.99902,18.512266 47.06621,30.41439 74.82195,34.16323 4.2188,0.56982 11.8923,1.27904 12.04521,1.11328 0.0427,-0.0463 -0.0997,-0.92266 -0.31654,-1.94752 -1.68622,-7.971788 -0.98083,-17.725214 1.87635,-25.944012 4.97939,-14.323437 16.86679,-26.055536 31.23102,-30.822996 17.78478,-5.902735 37.16611,-1.536789 50.48324,11.372129 l 1.86352,1.806393 3.58329,-0.832777 c 5.38631,-1.251808 10.43599,-2.876732 15.70569,-5.053891 2.63371,-1.08811 9.29403,-4.349097 10.89828,-5.33595 0.52072,-0.320324 1.00956,-0.519616 1.0863,-0.442872 0.21846,0.21846 -1.10268,3.526836 -2.6034,6.519371 -3.79668,7.570832 -9.62316,14.192247 -16.67662,18.951869 -1.1826,0.798009 -2.08685,1.51425 -2.00946,1.591643 0.27027,0.270268 8.9712,-1.349329 13.23625,-2.463803 3.9439,-1.030554 9.20748,-2.767075 12.97201,-4.279623 0.82777,-0.332591 1.50504,-0.506192 1.50504,-0.385782 0,0.383507 -4.83153,6.673654 -7.30392,9.508953 -4.24259,4.865325 -10.83766,10.987721 -15.53852,14.424852 l -1.48233,1.083832 0.15941,3.646291 c 0.43394,9.926093 -1.28534,24.792293 -4.24412,36.697763 -8.16619,32.85898 -27.39765,62.06001 -53.80529,81.69792 -10.74296,7.98895 -23.70612,14.72443 -36.8864,19.1657 -2.04315,0.68847 -3.75149,1.25176 -3.79631,1.25176 -0.0448,0 -0.11469,-8.22396 -0.15527,-18.27547 z" id="path943" inkscape:connector-curvature="0"/>
  <path style="fill:#a0a0a0;stroke:none;stroke-width:0.28667414" d="m 137.9235,384.90988 c -1.71053,-0.63065 -3.3669,-2.05433 -4.24735,-3.65068 l -0.86002,-1.55931 v -79.2654 -79.2654 l 0.63303,-1.18345 c 0.89626,-1.67556 3.04083,-3.46618 4.76434,-3.97801 1.26568,-0.37587 11.03779,-0.42868 79.31483,-0.42868 68.61093,0 78.04463,0.0515 79.32885,0.43284 2.07365,0.61581 4.17907,2.58031 4.93729,4.60684 l 0.5894,1.57533 -0.002,78.17962 c -10e-4,52.32547 -0.0984,78.52823 -0.29439,79.2338 -0.55875,2.01175 -1.99225,3.73045 -3.9575,4.74488 l -1.81664,0.93777 -78.73867,-0.0218 c -59.51341,-0.0165 -78.96154,-0.10398 -79.65145,-0.35834 z m 91.35847,-16.82029 c 0.56593,-0.56593 0.57335,-0.95558 0.57335,-30.10079 v -29.52743 h 9.42849 c 8.65817,0 9.48064,-0.0422 10.06684,-0.51691 0.58843,-0.47649 0.7583,-1.43479 2.17235,-12.25532 0.8437,-6.45613 1.53826,-12.21715 1.54347,-12.80227 0.006,-0.7338 -0.1852,-1.24521 -0.61795,-1.64838 -0.60876,-0.56715 -0.95372,-0.58451 -11.6103,-0.58451 h -10.9829 v -7.25754 c 0,-10.4871 0.47897,-12.30395 3.65471,-13.86341 l 1.64876,-0.80963 8.84099,-0.14333 8.84099,-0.14334 0.54759,-0.67677 c 0.51822,-0.64049 0.54759,-1.28065 0.54759,-11.93689 0,-13.27599 0.22231,-12.37835 -3.16309,-12.77198 -1.17721,-0.13688 -5.6054,-0.40762 -9.84042,-0.60164 -5.93975,-0.27213 -8.46681,-0.27611 -11.05411,-0.0174 -7.96328,0.7962 -14.12478,3.41137 -19.04181,8.08207 -4.26204,4.04852 -6.90672,8.91768 -8.56686,15.77258 -0.52852,2.1823 -0.6033,3.58168 -0.71619,13.40202 l -0.12605,10.96529 h -9.48986 c -9.34891,0 -9.49971,0.009 -10.15335,0.62331 l -0.66349,0.62333 v 12.57672 12.57672 l 0.70365,0.70365 0.70366,0.70366 h 9.47327 9.47328 v 29.52743 c 0,29.14521 0.007,29.53486 0.57335,30.10079 0.55654,0.55654 0.95558,0.57334 13.61702,0.57334 12.66144,0 13.06047,-0.0168 13.61702,-0.57334 z" id="path945" inkscape:connector-curvature="0"/>
  <path style="fill:#ffffff;stroke:none;stroke-width:0.28667414;fill-opacity:0.94117647" d="M 239.31557,464.39953 C 191.46818,462.00675 148.00107,451.40071 110.31221,432.9225 68.615545,412.47934 39.042775,384.44787 24.939369,351.99919 c -3.013144,-6.93254 -5.937556,-16.56924 -7.209541,-23.75731 -2.007722,-11.34576 -2.007183,-24.181 0.0015,-35.43036 5.959764,-33.37706 28.685437,-64.63773 64.343488,-88.50873 9.09687,-6.08983 10.65898,-6.78863 15.152259,-6.77827 3.086195,0.007 5.484605,0.72825 8.020625,2.41157 6.56658,4.35864 8.67126,12.53245 5.00415,19.43433 -1.39543,2.62635 -3.17186,4.18671 -9.50921,8.35261 -18.077034,11.88306 -30.723715,23.81172 -40.160701,37.88055 -7.30958,10.89726 -11.584218,21.37892 -13.678659,33.54088 -0.871988,5.06343 -0.944276,16.83139 -0.134714,21.93057 3.830233,24.12545 18.809103,46.37026 43.896094,65.18917 30.66637,23.00426 72.50279,38.47787 120.55685,44.58914 15.42228,1.96133 27.84165,2.71089 44.8645,2.70777 12.83771,-0.002 18.76106,-0.22837 29.67077,-1.13212 57.49474,-4.76279 108.13676,-23.0244 141.9037,-51.17075 22.30769,-18.59451 35.19326,-39.99981 37.86856,-62.90662 0.43526,-3.72681 0.42887,-12.12291 -0.012,-15.76707 -2.43013,-20.08713 -12.08388,-38.22906 -29.29517,-55.05335 -7.6153,-7.44409 -14.14722,-12.6439 -24.49639,-19.5006 -7.24933,-4.80294 -8.96252,-6.34787 -10.41567,-9.39269 -1.08383,-2.27094 -1.44091,-3.83933 -1.44971,-6.36715 -0.038,-10.94306 11.37465,-18.16902 21.28862,-13.47897 1.79117,0.84735 11.26947,7.07667 15.54201,10.21448 17.92977,13.16788 31.67597,27.62601 42.21391,44.40021 2.56717,4.08637 6.98481,12.72418 8.93242,17.46545 15.21592,37.04194 8.55037,76.49745 -18.65827,110.44404 -31.69618,39.54545 -89.9293,68.8094 -157.62129,79.20958 -9.95698,1.52979 -22.31535,2.85734 -33.68421,3.61841 -6.01468,0.40265 -32.15229,0.57589 -38.55767,0.25557 z" id="path947" inkscape:connector-curvature="0"/>
  <path style="fill:#a0a0a0;stroke:none;stroke-width:0.28667414" d="m 315.7561,235.87395 c -0.10187,-1.43511 -0.18522,-9.62015 -0.18522,-18.18899 v -15.5797 l -22.86226,-0.0402 c -21.3545,-0.0375 -25.61965,-0.10064 -28.16573,-0.41666 -0.55185,-0.0685 -1.32587,-0.15497 -1.72005,-0.19218 -0.39417,-0.0372 -0.783,-0.15501 -0.86405,-0.2618 -0.0811,-0.10679 -0.66157,-0.23579 -1.29004,-0.28667 -0.62846,-0.0509 -1.20716,-0.16112 -1.286,-0.24497 -0.0788,-0.0838 -1.63235,-0.6374 -3.45225,-1.23011 -12.57372,-4.09504 -23.28051,-12.98995 -29.39204,-24.41811 -0.75888,-1.41904 -1.45181,-2.64457 -1.53985,-2.72341 -0.0881,-0.0788 -0.1622,-0.27234 -0.16478,-0.43001 -0.009,-0.52428 -0.75339,-2.43672 -0.94923,-2.4373 -0.10603,-2.9e-4 -0.2198,-0.38694 -0.25284,-0.85916 l -0.0601,-0.8586 2.21012,0.19689 c 4.22421,0.37631 15.15019,0.0947 15.51503,-0.39984 0.0928,-0.12582 0.55578,-0.24578 1.02879,-0.26657 1.39479,-0.0613 3.33093,-0.67834 3.13307,-0.99849 -0.0995,-0.16106 -0.34883,-0.22843 -0.55397,-0.1497 -0.20514,0.0787 -0.43928,0.0768 -0.52031,-0.004 -0.081,-0.081 -1.86016,-0.72078 -3.95362,-1.42167 -8.30669,-2.78108 -14.38706,-6.48319 -20.18184,-12.28798 -5.93632,-5.94658 -10.23964,-13.27445 -12.58645,-21.43275 -0.76241,-2.65041 -1.5987,-6.99687 -1.60024,-8.31692 -5e-4,-0.43359 -0.0977,-0.7887 -0.21592,-0.78912 -0.11825,-2.9e-4 -0.22121,-1.03246 -0.2288,-2.2934 -0.008,-1.26094 0.0119,-2.29262 0.0432,-2.29262 0.0314,0 0.73827,0.31563 1.57093,0.70141 0.83265,0.38578 1.61948,0.63617 1.74851,0.55643 0.12902,-0.0797 0.23458,-0.0259 0.23458,0.11967 0,0.23945 2.08456,1.16969 2.94545,1.31441 0.19322,0.0325 0.64423,0.22007 1.00225,0.41687 0.35801,0.1968 0.77727,0.27973 0.93169,0.1843 0.15441,-0.0954 0.28075,-0.0231 0.28075,0.16075 0,0.18385 0.18937,0.2616 0.42083,0.17278 0.23145,-0.0888 0.49837,-0.036 0.59315,0.11734 0.0948,0.15336 0.28351,0.21012 0.41939,0.12614 0.13588,-0.084 0.33352,-0.0128 0.4392,0.1582 0.10568,0.171 0.36846,0.24324 0.58397,0.16054 0.21551,-0.0827 0.47352,-0.0182 0.57335,0.14334 0.0998,0.16153 0.34625,0.23048 0.5476,0.15322 0.20134,-0.0773 0.48272,-0.0239 0.62528,0.11872 0.14256,0.14255 0.78405,0.30647 1.42553,0.36425 0.64148,0.0578 1.30166,0.18869 1.46705,0.29091 0.1654,0.10223 0.60391,0.19122 0.97447,0.19776 1.71829,0.0303 4.37005,0.24262 4.99723,0.40003 1.23978,0.31117 0.74316,-0.27268 -2.15068,-2.52841 -7.73825,-6.03191 -14.04086,-15.04073 -16.81908,-24.040866 -0.27986,-0.906607 -0.6022,-1.648376 -0.71631,-1.648376 -0.11412,0 -0.14002,-0.258007 -0.0575,-0.573349 0.0825,-0.315341 0.018,-0.573348 -0.14334,-0.573348 -0.1613,0 -0.2258,-0.258007 -0.14334,-0.573348 0.0825,-0.315342 0.01,-0.573348 -0.16117,-0.573348 -0.17112,0 -0.23623,-0.195148 -0.14471,-0.433661 0.0915,-0.238516 0.0241,-0.605143 -0.14984,-0.814731 -0.17394,-0.20959 -0.23694,-0.46039 -0.14,-0.557334 0.097,-0.09695 0.078,-0.407585 -0.0422,-0.690309 -0.12015,-0.282723 -0.1907,-0.933305 -0.15679,-1.445735 0.0358,-0.540392 -0.0751,-0.931691 -0.26389,-0.931691 -0.17906,0 -0.26679,-0.09675 -0.19495,-0.215005 0.0718,-0.118253 0.16861,-3.375588 0.21507,-7.238522 0.0464,-3.862934 0.17942,-7.154435 0.29547,-7.314446 0.11606,-0.160011 0.26718,-0.805028 0.33583,-1.43337 0.0686,-0.628343 0.2055,-1.335947 0.30412,-1.572453 0.0986,-0.236506 0.21308,-0.752519 0.25437,-1.146696 0.0413,-0.394177 0.14797,-0.781187 0.23707,-0.860023 0.0891,-0.07883 0.58466,-1.363988 1.10126,-2.855895 1.12838,-3.258696 3.32369,-8.037722 3.69224,-8.037722 0.14547,0 1.08761,0.935275 2.09363,2.078388 2.07147,2.353747 13.44807,13.83512 13.44807,13.571919 0,-0.09435 0.46961,0.348239 1.04357,0.983543 0.57396,0.635305 1.10432,1.094341 1.17858,1.020081 0.0743,-0.07426 0.45923,0.250288 0.85549,0.721216 0.39626,0.470931 0.76802,0.808685 0.82614,0.750565 0.0581,-0.05812 0.70276,0.45037 1.43254,1.129974 0.72978,0.679602 1.4402,1.165603 1.57871,1.080002 0.13851,-0.0856 0.25183,-0.02087 0.25183,0.143853 0,0.294105 3.91903,3.371924 4.15256,3.261228 0.0656,-0.0311 0.52578,0.323165 1.02259,0.787259 0.49681,0.464091 1.01918,0.772182 1.16082,0.684644 0.14164,-0.08754 0.25753,-0.02824 0.25753,0.131767 0,0.340803 4.56357,3.360299 4.91899,3.254665 0.13263,-0.03942 0.24115,0.04367 0.24115,0.184633 0,0.307624 4.86331,3.271955 5.37514,3.276304 0.19709,0.0017 0.35834,0.08273 0.35834,0.180129 0,0.298697 1.62764,1.157578 1.82316,0.962055 0.10096,-0.100958 0.18356,-0.02546 0.18356,0.167811 0,0.193255 0.11799,0.278452 0.26219,0.189331 0.1442,-0.08912 0.30545,-0.03709 0.35834,0.115638 0.13762,0.397443 7.43999,4.039047 7.73443,3.857069 0.1349,-0.08337 0.24526,-0.0073 0.24526,0.168934 0,0.176282 0.12901,0.240783 0.28668,0.143337 0.15767,-0.09745 0.28667,-0.05056 0.28667,0.104186 0,0.279361 1.95324,1.070496 2.36506,0.957939 0.11826,-0.03232 0.21501,0.05625 0.21501,0.19683 0,0.238295 0.96949,0.594431 1.54466,0.567417 0.14004,-0.0066 0.33354,0.115169 0.43001,0.270546 0.0965,0.155378 0.43339,0.327652 0.74873,0.382828 0.31534,0.05518 0.64946,0.203536 0.74248,0.329686 0.093,0.126154 0.44778,0.250359 0.78836,0.276013 0.34057,0.02566 0.61922,0.137945 0.61922,0.249536 0,0.197544 1.52312,0.624709 1.89823,0.532365 0.10324,-0.02543 0.26665,0.07478 0.36311,0.222671 0.16412,0.251616 2.61079,1.152366 3.6997,1.362066 0.26902,0.0518 0.52138,0.12019 0.56079,0.15196 0.0394,0.0318 0.16843,0.085 0.28668,0.11837 0.11825,0.0333 0.40851,0.14405 0.64502,0.24606 0.91418,0.39429 2.91326,1.04076 3.10028,1.00257 0.10806,-0.0221 0.5557,0.10823 0.99477,0.28954 0.43906,0.18131 0.89057,0.31031 1.00336,0.28668 0.11278,-0.0237 0.57064,0.10777 1.01747,0.29203 0.44682,0.18426 0.92167,0.26749 1.05522,0.18496 0.13354,-0.0825 0.32927,-0.0101 0.43495,0.16083 0.10568,0.17099 0.36847,0.24323 0.58398,0.16053 0.2155,-0.0827 0.47351,-0.0182 0.57334,0.14334 0.0998,0.16153 0.35784,0.22603 0.57335,0.14334 0.21551,-0.0827 0.47352,-0.0182 0.57335,0.14333 0.0998,0.16154 0.34625,0.23048 0.5476,0.15322 0.20134,-0.0773 0.47855,-0.0283 0.61601,0.10876 0.13747,0.13708 0.70619,0.29589 1.26382,0.3529 0.55764,0.057 1.17899,0.2057 1.38078,0.33041 0.20179,0.12472 0.43977,0.15388 0.52885,0.0648 0.0891,-0.0891 0.37828,-0.0462 0.64267,0.0953 0.42057,0.22508 1.0533,0.35051 3.60068,0.71377 0.31534,0.045 0.7991,0.17665 1.07503,0.29263 0.27592,0.11598 0.69105,0.1382 0.9225,0.0494 0.23146,-0.0888 0.49795,-0.0367 0.5922,0.11579 0.0942,0.1525 0.51764,0.27767 0.94087,0.27817 0.42323,5.7e-4 1.28552,0.0752 1.91621,0.16612 2.02138,0.29128 3.21163,0.4289 7.59686,0.8784 3.58306,0.36727 5.44681,0.34839 5.44681,-0.0552 0,-0.21411 -0.1117,-0.45832 -0.24823,-0.5427 -0.13653,-0.0844 -0.18599,-0.479 -0.10992,-0.87694 0.0792,-0.41407 0.005,-0.72353 -0.17278,-0.72353 -0.1711,0 -0.23684,-0.19351 -0.14609,-0.43001 0.0908,-0.23651 0.073,-0.65577 -0.0396,-0.93169 -0.29778,-0.73032 -0.37207,-2.25315 -0.3531,-7.238525 0.0247,-6.484927 0.0493,-7.294954 0.22642,-7.453528 0.26736,-0.239349 0.87408,-4.018294 0.69236,-4.31233 -0.0933,-0.150951 -0.0628,-0.274456 0.0678,-0.274456 0.21367,0 1.65382,-4.606566 1.65803,-5.303471 8.6e-4,-0.157671 0.078,-0.351176 0.17128,-0.430011 0.0933,-0.07884 0.74774,-1.433371 1.45442,-3.010079 5.56603,-12.418686 17.07564,-22.732436 29.90477,-26.79763 2.9613,-0.938354 7.72558,-2.01312 8.92387,-2.01312 0.37682,0 0.68483,-0.09675 0.68448,-0.215006 -2.9e-4,-0.118253 0.90267,-0.172168 2.00672,-0.119812 1.10405,0.05236 2.00736,-0.01751 2.00736,-0.155267 0,-0.308551 3.15798,-0.29265 3.6602,0.01843 0.19989,0.123817 1.10291,0.200918 2.00672,0.171336 0.9038,-0.02958 1.87118,0.04052 2.14973,0.155773 0.27856,0.115257 0.82232,0.149179 1.20837,0.07538 0.38604,-0.0738 0.73865,-0.05482 0.78357,0.04217 0.0847,0.182839 4.51881,1.207285 5.52848,1.27728 0.31534,0.02186 0.63785,0.115929 0.71668,0.209041 0.22234,0.2626 2.94783,1.135211 3.09282,0.990218 0.0709,-0.07087 0.32198,0.06427 0.55801,0.300307 0.23604,0.236037 0.57429,0.380782 0.75167,0.321656 0.17738,-0.05913 0.50155,0.07154 0.72037,0.290362 0.21883,0.218827 0.57474,0.329994 0.79092,0.24704 0.21617,-0.08295 0.39304,-0.01826 0.39304,0.143769 0,0.162027 0.12901,0.214867 0.28668,0.117421 0.15767,-0.09745 0.28667,-0.05621 0.28667,0.09164 0,0.285889 1.71581,1.09483 2.07839,0.979883 0.11825,-0.03749 0.21501,0.06845 0.21501,0.23543 0,0.166976 0.129,0.223864 0.28667,0.126419 0.15767,-0.09745 0.28667,-0.05003 0.28667,0.105379 0,0.155404 0.71652,0.692503 1.59226,1.193552 2.41619,1.382401 6.03593,4.151052 8.52006,6.51679 2.21535,2.109769 2.23607,2.121339 3.44009,1.921379 0.66622,-0.110644 1.25458,-0.315756 1.30747,-0.455804 0.0529,-0.140049 0.20703,-0.186103 0.34256,-0.102344 0.26485,0.163689 4.05324,-0.705093 4.29141,-0.984139 0.0788,-0.09237 0.52871,-0.209872 0.99973,-0.261124 0.47103,-0.05125 0.92254,-0.180256 1.00336,-0.286675 0.0808,-0.106418 0.414,-0.220103 0.74038,-0.252633 0.32638,-0.03253 0.9714,-0.213607 1.43337,-0.402393 0.46197,-0.188784 0.97258,-0.372308 1.13468,-0.407829 1.04946,-0.229977 3.57537,-1.128635 3.57537,-1.272036 0,-0.09532 0.27865,-0.194305 0.61923,-0.21996 0.34057,-0.02565 0.69533,-0.149859 0.78835,-0.276011 0.093,-0.126151 0.42714,-0.273434 0.74248,-0.327295 0.31534,-0.05386 0.61662,-0.215919 0.6695,-0.360129 0.0529,-0.14421 0.20447,-0.195256 0.33686,-0.113435 0.30376,0.187732 1.71704,-0.441569 1.71704,-0.764556 0,-0.132363 0.0968,-0.214215 0.21501,-0.181895 0.41182,0.112557 2.36506,-0.678577 2.36506,-0.957937 0,-0.154749 0.129,-0.201633 0.28667,-0.104187 0.15768,0.09745 0.28668,0.03294 0.28668,-0.143337 0,-0.176281 0.129,-0.240783 0.28667,-0.143337 0.15767,0.09745 0.28668,0.03294 0.28668,-0.143337 0,-0.176281 0.129,-0.240783 0.28667,-0.143337 0.15767,0.09745 0.28668,0.03294 0.28668,-0.143337 0,-0.176281 0.129,-0.240783 0.28667,-0.143337 0.15767,0.09745 0.28667,0.03294 0.28667,-0.143337 0,-0.176281 0.12901,-0.240783 0.28668,-0.143337 0.15767,0.09745 0.28667,0.03294 0.28667,-0.143337 0,-0.176282 0.12901,-0.240783 0.28668,-0.143337 0.15767,0.09745 0.28667,0.01906 0.28667,-0.174198 0,-0.193254 0.0836,-0.267733 0.18586,-0.165509 0.19941,0.19941 2.96756,-1.207473 2.96756,-1.508231 0,-0.374572 1.10736,-0.244761 1.25787,0.147454 0.0866,0.225748 0.0501,0.41045 -0.0812,0.41045 -0.1313,0 -0.467,0.612766 -0.746,1.361702 -0.84374,2.264913 -3.22712,6.75597 -4.95976,9.345744 -3.37566,5.045618 -7.95114,9.724497 -12.87203,13.162894 -2.37988,1.662911 -2.76159,2.217006 -1.52727,2.217006 0.45876,0 0.91035,-0.12337 1.00355,-0.274155 0.0932,-0.150785 0.35881,-0.201483 0.59026,-0.112666 0.23146,0.08882 0.64659,0.0666 0.92251,-0.04939 0.52001,-0.218575 0.71354,-0.253334 3.04828,-0.54749 0.76994,-0.09701 1.54169,-0.264013 1.715,-0.371123 0.33645,-0.207933 1.15813,-0.370753 1.96792,-0.389951 0.27282,-0.0065 0.56721,-0.126919 0.6542,-0.267671 0.087,-0.140751 0.33448,-0.18825 0.54999,-0.10555 0.21551,0.0827 0.47352,0.0182 0.57335,-0.143337 0.0998,-0.161535 0.35784,-0.226037 0.57335,-0.143337 0.21551,0.0827 0.4783,0.01046 0.58398,-0.160535 0.10567,-0.170993 0.31223,-0.236675 0.459,-0.14596 0.14678,0.09071 0.42812,0.0643 0.62521,-0.0587 0.19709,-0.122997 0.61635,-0.261117 0.93169,-0.30693 0.31534,-0.04581 0.76686,-0.167407 1.00336,-0.270208 0.23651,-0.102801 0.52677,-0.214177 0.64502,-0.247504 0.11825,-0.03333 0.24726,-0.08659 0.28667,-0.118361 0.0394,-0.03177 0.32968,-0.103795 0.64502,-0.16005 1.33931,-0.238925 3.8701,-1.110364 3.8701,-1.332609 0,-0.132708 0.0967,-0.216711 0.21501,-0.186675 0.46143,0.117203 2.07838,-0.402224 2.07838,-0.667656 0,-0.154448 0.10896,-0.213476 0.24213,-0.131174 0.13317,0.0823 0.90719,-0.103063 1.72004,-0.411924 1.43745,-0.546186 1.83514,-0.462438 1.13391,0.238785 -0.1892,0.189205 -0.22905,0.344009 -0.0885,0.344009 0.1405,0 0.0519,0.161255 -0.19681,0.358343 -0.24875,0.197089 -1.9969,2.294501 -3.88477,4.660917 -4.01355,5.030896 -11.92105,12.861217 -16.499,16.337963 l -3.01979,2.293393 0.0152,7.023516 c 0.008,3.86293 -0.079,7.24505 -0.19426,7.51582 -0.11522,0.27077 -0.16506,1.20622 -0.11075,2.07878 0.0543,0.87256 -0.0105,1.58629 -0.14393,1.58608 -0.13347,-2.2e-4 -0.19798,0.64471 -0.14334,1.43318 0.0546,0.78846 0.03,1.46573 -0.0548,1.50504 -0.0848,0.0393 -0.382,1.74532 -0.66047,3.79115 -0.27847,2.04582 -0.82417,5.44073 -1.21268,7.54425 -0.3885,2.10352 -0.63194,3.945 -0.54097,4.09219 0.091,0.14719 0.0466,0.26762 -0.0986,0.26762 -0.3106,0 -0.98308,3.10047 -0.75317,3.47248 0.0864,0.13985 0.006,0.25428 -0.17987,0.25428 -0.19589,0 -0.27424,0.2401 -0.18709,0.57335 0.0825,0.31534 0.0598,0.57335 -0.0504,0.57335 -0.26945,0 -0.94095,2.55665 -0.75187,2.8626 0.0822,0.13302 0.0159,0.28635 -0.14725,0.34075 -0.1632,0.0544 -0.32526,0.48468 -0.36013,0.95618 -0.0349,0.47149 -0.14611,0.92177 -0.24718,1.0006 -0.30459,0.23757 -1.10813,3.20515 -0.94106,3.47547 0.0854,0.13821 0.005,0.2513 -0.17895,0.2513 -0.18385,0 -0.26001,0.1935 -0.16926,0.43001 0.0908,0.2365 0.0263,0.43001 -0.14333,0.43001 -0.1696,0 -0.2341,0.1935 -0.14334,0.43001 0.0908,0.23651 0.0263,0.43001 -0.14334,0.43001 -0.16959,0 -0.23409,0.19351 -0.14333,0.43001 0.0908,0.23651 0.0522,0.43001 -0.0857,0.43001 -0.32072,0 -1.20517,2.56925 -0.99919,2.90254 0.0853,0.13798 0.031,0.25088 -0.1205,0.25088 -0.29945,0 -0.99056,1.73002 -0.77659,1.944 0.072,0.072 -0.0621,0.3241 -0.29818,0.56013 -0.23603,0.23604 -0.38078,0.57429 -0.32166,0.75167 0.0591,0.17738 -0.0715,0.50154 -0.29036,0.72037 -0.21882,0.21883 -0.32999,0.57474 -0.24704,0.79092 0.083,0.21617 0.0409,0.39304 -0.0935,0.39304 -0.24352,0 -1.60101,3.03837 -1.60101,3.58343 0,0.15767 -0.0798,0.35118 -0.17741,0.43001 -0.41758,0.33738 -1.69144,3.19931 -1.53599,3.45084 0.0938,0.15176 0.0263,0.27592 -0.14997,0.27592 -0.17628,0 -0.24078,0.12901 -0.14334,0.28668 0.0974,0.15767 0.0329,0.28667 -0.14333,0.28667 -0.17629,0 -0.24079,0.12901 -0.14334,0.28668 0.0974,0.15767 0.0191,0.28667 -0.1742,0.28667 -0.19325,0 -0.27151,0.0799 -0.17391,0.17747 0.0976,0.0976 -0.0111,0.36601 -0.24153,0.59646 -0.23044,0.23044 -0.34569,0.53759 -0.2561,0.68255 0.0896,0.14496 0.0187,0.26357 -0.15762,0.26357 -0.17628,0 -0.24078,0.129 -0.14334,0.28667 0.0975,0.15767 0.033,0.28667 -0.14334,0.28667 -0.17628,0 -0.24078,0.12901 -0.14333,0.28668 0.0974,0.15767 0.0517,0.28667 -0.10168,0.28667 -0.15337,0 -0.95366,1.25176 -1.77842,2.7817 -10.37583,19.24711 -26.38557,37.05887 -44.1016,49.06558 -7.34462,4.97768 -16.6897,9.98316 -24.68348,13.22115 -1.65554,0.67059 -3.05334,1.33423 -3.10623,1.47474 -0.0529,0.14051 -0.19803,0.19251 -0.32255,0.11556 -0.31599,-0.19529 -2.87805,0.70766 -2.87805,1.01432 0,0.1379 -0.1935,0.17647 -0.43001,0.0857 -0.2365,-0.0908 -0.43001,-0.0263 -0.43001,0.14333 0,0.16959 -0.1935,0.2341 -0.43001,0.14334 -0.23651,-0.0908 -0.43001,-0.0263 -0.43001,0.14334 0,0.16959 -0.19351,0.23409 -0.43001,0.14334 -0.23651,-0.0908 -0.43001,-0.0263 -0.43001,0.14333 0,0.16959 -0.19351,0.23409 -0.43002,0.14334 -0.2365,-0.0908 -0.43026,-0.0545 -0.43058,0.0807 -2.8e-4,0.13513 -0.36848,0.27126 -0.81814,0.30252 l -0.81758,0.0568 z" id="path949" inkscape:connector-curvature="0"/>
  <path style="fill:#a0a0a0;stroke:none;stroke-width:0.28667414" d="m 315.75353,236.73615 c -0.10045,-0.9611 -0.18265,-9.14845 -0.18265,-18.19409 v -16.44662 l -23.47995,0.0766 c -12.91398,0.0421 -23.41569,-0.0274 -23.33714,-0.15442 0.0786,-0.12705 -0.61101,-0.21832 -1.53236,-0.20282 -1.44008,0.0242 -2.98552,-0.11222 -4.68526,-0.41367 -0.23651,-0.0419 -0.62352,-0.15805 -0.86002,-0.258 -0.23651,-0.1 -0.81702,-0.22991 -1.29004,-0.28879 -0.47301,-0.0589 -1.05352,-0.18783 -1.29003,-0.28656 -1.53007,-0.63879 -5.559,-1.86708 -5.74571,-1.7517 -0.12401,0.0767 -0.26874,0.0336 -0.32163,-0.0957 -0.0529,-0.12928 -1.61488,-0.96239 -3.47109,-1.85135 -3.79988,-1.81979 -7.41009,-4.08633 -10.39941,-6.52889 -3.23408,-2.64253 -7.70262,-7.52753 -9.91052,-10.83414 -1.12306,-1.68192 -2.18756,-3.15282 -2.36554,-3.26866 -0.17799,-0.11584 -0.225,-0.21259 -0.10448,-0.215 0.28235,-0.006 -1.47972,-3.52005 -1.90448,-3.79844 -0.17676,-0.11584 -0.23245,-0.21259 -0.12377,-0.215 0.25112,-0.006 -0.61632,-2.58426 -0.86957,-2.58503 -0.10343,-2.9e-4 -0.21261,-0.35507 -0.24261,-0.78835 l -0.0546,-0.78779 h 8.36811 c 4.60246,0 8.62611,-0.11167 8.94145,-0.24816 0.31534,-0.13649 1.00858,-0.293 1.54053,-0.34782 1.34462,-0.13855 2.90292,-0.68369 2.90292,-1.01552 0,-0.15236 -0.16125,-0.24491 -0.35834,-0.20567 -0.19709,0.0392 -1.22606,-0.22262 -2.2866,-0.5819 -1.06055,-0.35928 -2.04931,-0.57843 -2.19724,-0.48699 -0.14794,0.0914 -0.31225,0.0511 -0.36514,-0.0895 -0.0529,-0.14067 -1.45068,-0.78558 -3.10623,-1.43314 -10.63822,-4.16111 -19.58977,-12.09272 -25.27512,-22.3953 -0.82658,-1.49787 -1.57323,-2.7879 -1.65923,-2.86674 -0.086,-0.0788 -0.15635,-0.27234 -0.15635,-0.43001 0,-0.57116 -1.36614,-3.8701 -1.60267,-3.8701 -0.13349,0 -0.16847,-0.19351 -0.0777,-0.43001 0.0908,-0.23651 0.0442,-0.43001 -0.10343,-0.43001 -0.14764,0 -0.25819,-0.22576 -0.24567,-0.50168 0.0299,-0.6588 -1.35093,-6.2121 -1.56992,-6.31383 -0.0931,-0.0433 -0.11301,-0.46253 -0.0441,-0.93169 0.0689,-0.46916 0.004,-0.85303 -0.14437,-0.85303 -0.14826,0 -0.21299,-0.38542 -0.14385,-0.8565 0.0691,-0.47108 0.0352,-1.08384 -0.0754,-1.3617 -0.217,-0.54501 -0.46497,-4.94865 -0.27866,-4.94865 0.062,0 0.82857,0.31657 1.70346,0.70349 0.8749,0.38692 1.64991,0.7155 1.72226,0.73017 0.0723,0.0147 0.73293,0.2927 1.46797,0.61784 0.73503,0.32514 1.47948,0.6221 1.65434,0.6599 0.17485,0.0378 0.53359,0.16267 0.7972,0.27746 0.26361,0.11479 0.71512,0.25341 1.00336,0.30804 0.28823,0.0546 0.55631,0.12532 0.59573,0.15709 0.0394,0.0318 0.20067,0.09 0.35834,0.12944 0.15768,0.0394 0.31893,0.0977 0.35835,0.12943 0.0394,0.0318 0.32967,0.11714 0.64501,0.18969 0.31535,0.0726 0.70236,0.16307 0.86003,0.20114 0.15767,0.0381 0.45651,0.17525 0.66409,0.30486 0.20757,0.1296 0.45029,0.16277 0.53937,0.0737 0.0891,-0.0891 0.40278,-0.0331 0.69713,0.12446 0.65487,0.35047 2.27376,0.57859 6.94539,0.97866 1.57806,0.13514 2.19543,0.10059 2.06195,-0.11539 -0.10479,-0.16956 -1.44092,-1.32224 -2.96917,-2.56152 -4.61417,-3.74171 -8.90965,-8.67821 -11.6938,-13.43889 -0.57786,-0.9881 -1.16266,-1.79655 -1.29955,-1.79655 -0.13689,0 -0.21821,-0.0968 -0.18072,-0.215 0.11494,-0.36258 -0.694,-2.07839 -0.97989,-2.07839 -0.14784,0 -0.19182,-0.12458 -0.0977,-0.27684 0.0941,-0.15227 -0.074,-0.76503 -0.3735,-1.3617 -0.29952,-0.59668 -0.89506,-2.147801 -1.32342,-3.446945 -0.42836,-1.299141 -0.88558,-2.42805 -1.01604,-2.508683 -0.13047,-0.08063 -0.16978,-0.404482 -0.0874,-0.719669 0.0824,-0.315184 0.0179,-0.573062 -0.14341,-0.573062 -0.1613,0 -0.2258,-0.258007 -0.14334,-0.573348 0.0825,-0.315342 0.018,-0.573348 -0.14333,-0.573348 -0.1613,0 -0.22961,-0.243447 -0.1518,-0.540995 0.0778,-0.297547 0.0133,-0.620185 -0.14326,-0.716972 -0.15661,-0.09679 -0.22111,-0.419295 -0.14334,-0.716685 0.0778,-0.29739 0.0133,-0.619898 -0.14334,-0.716685 -0.1566,-0.09679 -0.2178,-0.431926 -0.13599,-0.744754 0.0818,-0.312827 0.0608,-0.796464 -0.0467,-1.074744 -0.2843,-0.735864 -0.34296,-12.976011 -0.0622,-12.976161 0.13034,-7e-5 0.20848,-0.419387 0.17366,-0.931817 -0.0348,-0.51243 0.0254,-1.2542 0.13386,-1.648377 0.10845,-0.394177 0.239,-1.039193 0.29012,-1.43337 0.0511,-0.394177 0.18138,-0.924394 0.28946,-1.178259 0.10809,-0.253866 0.23676,-0.769879 0.28593,-1.146697 0.0492,-0.376817 0.23672,-1.050707 0.41678,-1.497533 0.18006,-0.446826 0.25434,-0.930588 0.16507,-1.075028 -0.0893,-0.14444 -0.0119,-0.262618 0.17196,-0.262618 0.18385,0 0.26001,-0.193505 0.16925,-0.430011 -0.0907,-0.236506 -0.0527,-0.430011 0.0846,-0.430011 0.32237,0 0.92104,-1.706887 0.71538,-2.039649 -0.0863,-0.139559 -0.0435,-0.253744 0.0951,-0.253744 0.13857,0 0.80939,-1.229164 1.49072,-2.731475 0.68134,-1.502311 1.35446,-2.802963 1.49584,-2.890338 0.26647,-0.16469 2.57116,1.757155 2.36019,1.968127 -0.0656,0.06557 0.42931,0.637369 1.09974,1.270666 0.67042,0.633297 3.55887,3.524857 6.41877,6.425689 6.47719,6.569879 7.65204,7.71097 7.93912,7.71097 0.12563,0 0.55865,0.392459 0.96227,0.872129 0.40362,0.479672 0.78318,0.822806 0.84346,0.762519 0.0603,-0.06028 0.64622,0.385777 1.30206,0.991253 0.65585,0.605473 1.33346,1.100863 1.50581,1.100863 0.17234,0 0.47448,0.258007 0.67141,0.573348 0.19694,0.315342 0.47801,0.573349 0.62462,0.573349 0.1466,0 0.67331,0.371524 1.17047,0.825607 0.49716,0.454083 1.23999,1.002347 1.65073,1.218365 0.41075,0.216017 1.06281,0.683015 1.44903,1.037775 0.38622,0.354759 0.87688,0.645016 1.09036,0.645016 0.21349,0 0.38815,0.112741 0.38815,0.250531 0,0.3013 4.34161,3.189559 4.79452,3.189559 0.17481,0 0.36084,0.122834 0.4134,0.272965 0.12848,0.367035 4.81555,3.167124 5.30144,3.167124 0.21135,0 0.38426,0.120653 0.38426,0.268118 0,0.147465 0.45151,0.431387 1.00336,0.630938 0.55185,0.199551 1.00336,0.47352 1.00336,0.608825 0,0.135301 0.1186,0.172701 0.26356,0.08311 0.14496,-0.08959 0.44682,0.02035 0.6708,0.24435 0.54747,0.547464 6.68238,3.611466 7.23108,3.611466 0.23913,0 0.43478,0.129003 0.43478,0.286674 0,0.157671 0.10374,0.254423 0.23052,0.215006 0.12679,-0.03942 0.70542,0.157585 1.28585,0.437783 0.58043,0.280195 1.54097,0.719047 2.13454,0.975222 0.59357,0.256175 1.43398,0.646983 1.86757,0.868459 0.43359,0.221479 0.78835,0.327918 0.78835,0.236532 0,-0.09138 0.32251,0.04516 0.71669,0.303439 0.39418,0.258273 0.71668,0.382937 0.71668,0.277028 0,-0.105912 0.28672,0.0083 0.63714,0.253703 0.35042,0.245445 0.84221,0.446266 1.09285,0.446266 0.25064,0 0.98223,0.254384 1.62574,0.565294 0.64352,0.31092 1.79125,0.70452 2.55052,0.87468 0.75927,0.17015 1.51478,0.41862 1.67889,0.55215 0.39819,0.32396 3.30848,1.17493 3.30848,0.9674 0,-0.0896 0.16447,-0.0265 0.36549,0.14034 0.20102,0.16683 0.68478,0.3563 1.07503,0.42104 0.39025,0.0647 0.90304,0.20054 1.13955,0.30179 0.2365,0.10124 0.68802,0.22156 1.00336,0.26737 0.31534,0.0458 0.7346,0.18393 0.93169,0.30693 0.19709,0.123 0.47843,0.14941 0.62521,0.0587 0.14677,-0.0907 0.35333,-0.025 0.459,0.14596 0.10568,0.17099 0.36847,0.24323 0.58398,0.16054 0.21551,-0.0827 0.47019,-0.0236 0.56597,0.13139 0.0958,0.15497 0.32566,0.25507 0.51086,0.22246 0.1852,-0.0326 0.84549,0.0895 1.4673,0.2713 0.62182,0.18183 1.19047,0.27071 1.26366,0.19752 0.0732,-0.0732 0.30932,0.0132 0.52473,0.19196 0.2154,0.17877 0.46999,0.24669 0.56575,0.15093 0.0958,-0.0957 0.38892,-0.0591 0.65149,0.0814 0.26257,0.14052 1.11638,0.34071 1.89736,0.44487 0.78098,0.10416 1.74247,0.25014 2.13665,0.3244 2.94074,0.55402 6.53397,1.06884 9.74692,1.3965 4.45637,0.45447 5.46544,0.53816 6.64284,0.55096 1.46958,0.016 1.85192,-0.17668 1.49156,-0.7516 -0.1301,-0.20758 -0.20135,-0.59174 -0.15832,-0.8537 0.043,-0.26196 -0.0513,-0.55635 -0.20964,-0.6542 -0.15833,-0.0979 -0.2152,-0.36729 -0.12639,-0.59874 0.0888,-0.23146 0.0701,-0.64659 -0.0416,-0.92251 -0.11169,-0.27593 -0.24649,-1.0177 -0.29955,-1.64838 -0.17823,-2.11827 -0.16529,-10.75127 0.0165,-11.04549 0.099,-0.160107 0.15198,-0.642947 0.11785,-1.072978 -0.0341,-0.430029 0.0376,-1.014967 0.15934,-1.299864 0.12177,-0.284897 0.23704,-1.090379 0.25615,-1.789964 0.0191,-0.699583 0.13959,-1.272756 0.26776,-1.273719 0.12816,-8.6e-4 0.20509,-0.227505 0.17094,-0.503429 -0.0341,-0.275924 0.0185,-0.695185 0.11703,-0.931691 0.51552,-1.237733 1.58256,-5.003444 1.46956,-5.186276 -0.0719,-0.116358 -0.0332,-0.25483 0.086,-0.307716 0.35045,-0.155435 1.5316,-2.83423 1.36707,-3.10045 -0.0828,-0.133916 -0.0467,-0.286754 0.0802,-0.33964 0.1269,-0.05289 0.7919,-1.12818 1.47778,-2.389546 4.8814,-8.977177 12.77058,-16.68219 21.62983,-21.124896 1.27741,-0.640594 2.38707,-1.245186 2.46591,-1.343539 0.0788,-0.09835 0.27234,-0.180721 0.43001,-0.183044 0.66456,-0.0098 3.29675,-1.068307 3.29675,-1.325769 0,-0.154304 0.12635,-0.202465 0.28078,-0.107024 0.30818,0.190469 2.58518,-0.413928 2.58725,-0.686749 5.7e-4,-0.0933 0.4821,-0.194791 1.06977,-0.225546 0.58768,-0.03075 1.10761,-0.173259 1.15542,-0.316677 0.0478,-0.143418 0.40492,-0.199969 0.7936,-0.125669 0.38868,0.0743 0.70777,0.0233 0.70909,-0.113334 10e-4,-0.136634 0.80127,-0.282755 1.77765,-0.324715 0.97639,-0.04196 1.84608,-0.170962 1.93265,-0.286674 0.38805,-0.518689 10.91124,-0.453033 11.76301,0.07339 0.16738,0.103447 0.65617,0.160157 1.0862,0.12602 0.43003,-0.03414 0.97538,0.01112 1.21188,0.10057 0.48588,0.183766 4.7873,1.131534 5.44681,1.200142 0.23651,0.0246 0.68802,0.182806 1.00336,0.351561 0.58882,0.31511 2.27997,0.741035 2.61491,0.65858 0.10325,-0.02542 0.26665,0.08091 0.36312,0.236291 0.0965,0.155379 0.43339,0.327651 0.74873,0.382828 0.31534,0.05518 0.75124,0.268995 0.96866,0.475151 0.21742,0.206156 0.57218,0.306957 0.78835,0.224003 0.21618,-0.08295 0.39305,-0.0044 0.39305,0.174629 0,0.179001 0.0799,0.245597 0.17746,0.147991 0.0976,-0.09761 0.37116,0.01623 0.60791,0.252973 0.23674,0.236741 0.80189,0.50473 1.2559,0.595531 0.45401,0.0908 0.82547,0.285585 0.82547,0.432852 0,0.147267 0.129,0.18803 0.28667,0.09059 0.15768,-0.09745 0.28668,-0.06837 0.28668,0.06461 0,0.344575 1.60272,1.247187 1.82315,1.026754 0.10097,-0.100959 0.18357,-0.05132 0.18357,0.110304 0,0.161626 0.70952,0.764959 1.57671,1.340741 0.86718,0.575781 1.5767,1.004441 1.5767,0.952579 0,-0.111161 1.76159,1.424708 4.97466,4.337238 2.18271,1.97854 2.37324,2.087877 3.3266,1.909025 0.55621,-0.104345 1.139,-0.268652 1.2951,-0.365127 0.1561,-0.09647 0.47959,-0.191455 0.71887,-0.211068 0.87562,-0.07177 3.59732,-0.790227 3.90152,-1.029898 0.17218,-0.135654 0.38004,-0.179653 0.46192,-0.09777 0.0819,0.08188 0.52152,-0.0039 0.97698,-0.190648 0.45546,-0.186735 1.12333,-0.388926 1.48414,-0.449313 0.36082,-0.06039 0.94134,-0.218268 1.29004,-0.350844 0.3487,-0.132577 0.6985,-0.252356 0.77734,-0.266176 0.41753,-0.07319 3.50186,-1.194909 3.80383,-1.383384 0.19412,-0.121164 0.60535,-0.259538 0.91385,-0.307499 0.3085,-0.04796 0.66128,-0.245198 0.78396,-0.438304 0.12269,-0.193107 0.22504,-0.249812 0.22745,-0.126012 0.002,0.123801 0.29465,0.0655 0.64941,-0.12955 0.35476,-0.195053 0.79032,-0.379341 0.96791,-0.409529 0.83542,-0.142006 1.54049,-0.46637 1.54049,-0.70869 0,-0.147046 0.21442,-0.267356 0.4765,-0.267356 0.26207,0 1.0191,-0.317993 1.6823,-0.70665 0.66319,-0.388658 1.28729,-0.625164 1.38689,-0.52557 0.0996,0.09959 0.18108,0.02296 0.18108,-0.17029 0,-0.193255 0.129,-0.271644 0.28667,-0.174198 0.15767,0.09745 0.28668,0.03294 0.28668,-0.143337 0,-0.176281 0.129,-0.240783 0.28667,-0.143337 0.15767,0.09745 0.28667,0.03294 0.28667,-0.143337 0,-0.176281 0.12901,-0.240783 0.28668,-0.143337 0.15767,0.09745 0.28667,0.03294 0.28667,-0.143337 0,-0.176282 0.12901,-0.240783 0.28668,-0.143337 0.15767,0.09745 0.28667,0.04056 0.28667,-0.126419 0,-0.166976 0.21053,-0.303592 0.46784,-0.303592 0.41416,0 2.30683,-0.999513 2.68558,-1.418239 0.32414,-0.358361 1.09274,-0.282556 1.24841,0.123129 0.0918,0.239298 0.042,0.435087 -0.11071,0.435087 -0.15273,0 -0.27768,0.141967 -0.27768,0.315481 0,0.604645 -3.37777,7.371408 -4.72652,9.468758 -2.93204,4.559395 -7.06513,9.112982 -11.25824,12.403627 -0.98397,0.772195 -1.78904,1.521578 -1.78904,1.665294 0,0.143718 -0.10692,0.195219 -0.23761,0.114449 -0.29176,-0.180312 -2.34246,1.471968 -2.34246,1.887353 0,0.179177 0.31629,0.226625 0.78836,0.118271 0.43359,-0.09952 1.11086,-0.232588 1.50504,-0.295696 0.39417,-0.06311 1.13574,-0.191831 1.64792,-0.286049 0.51218,-0.09422 1.2862,-0.232413 1.72005,-0.3071 0.83304,-0.143409 1.20603,-0.226338 2.36551,-0.525935 1.22854,-0.31744 2.41626,-0.528556 2.93277,-0.521288 0.27281,0.0038 0.5672,-0.108183 0.65419,-0.248934 0.087,-0.140751 0.33449,-0.18825 0.55,-0.10555 0.21551,0.0827 0.4783,0.01046 0.58398,-0.160535 0.10567,-0.170993 0.31223,-0.236675 0.459,-0.14596 0.14678,0.09071 0.42812,0.06383 0.62521,-0.05973 0.19709,-0.123569 0.67764,-0.268485 1.06789,-0.322042 0.39024,-0.05356 0.84576,-0.210433 1.01226,-0.348614 0.1665,-0.138181 0.66557,-0.317035 1.10906,-0.397455 1.18958,-0.215711 3.72128,-1.066751 4.03498,-1.356367 0.14979,-0.13829 0.54034,-0.251436 0.8679,-0.251436 0.32757,0 0.88228,-0.20082 1.2327,-0.446267 0.35043,-0.245447 0.63714,-0.381399 0.63714,-0.302115 0,0.07928 0.70952,-0.09996 1.57671,-0.398315 1.54294,-0.530849 1.9223,-0.460269 1.23269,0.229339 -0.1892,0.189205 -0.22905,0.344009 -0.0885,0.344009 0.1405,0 0.0556,0.161255 -0.18866,0.358343 -0.24428,0.197089 -1.71219,1.970885 -3.26205,3.941769 -1.54985,1.970885 -5.01899,5.781283 -7.7092,8.467552 -4.44556,4.439034 -8.622,8.361005 -8.94466,8.399652 -0.0696,0.0083 -0.88445,0.570487 -1.81078,1.249228 l -1.68424,1.234072 -0.051,7.310189 c -0.069,9.89336 -0.1036,10.89401 -0.37712,10.8938 -0.12994,-1e-4 -0.21056,0.61258 -0.17915,1.36152 0.0314,0.74894 -0.031,1.5711 -0.1388,1.82702 -0.10775,0.25593 -0.22064,1.31901 -0.25086,2.3624 -0.0302,1.04339 -0.13216,1.89827 -0.22652,1.89974 -0.24868,0.004 -0.88789,4.84011 -0.68344,5.17092 0.0947,0.15321 0.0562,0.27855 -0.0855,0.27855 -0.22982,0 -0.88596,2.98601 -1.07089,4.87346 -0.0386,0.39418 -0.14374,0.9102 -0.23361,1.1467 -0.42189,1.11029 -0.77329,2.90817 -0.61763,3.16003 0.0952,0.15403 0.0284,0.28006 -0.14852,0.28006 -0.17689,0 -0.29334,0.22576 -0.25879,0.50168 0.0346,0.27592 -0.0891,0.87224 -0.27491,1.32516 -0.18576,0.45291 -0.38213,1.16243 -0.43637,1.57671 -0.0543,0.41427 -0.24586,1.11881 -0.42581,1.56564 -0.17994,0.44682 -0.25413,0.93058 -0.16486,1.07503 0.0893,0.14443 0.0386,0.26261 -0.11269,0.26261 -0.27409,0 -1.07701,2.68741 -1.0064,3.36842 0.0204,0.19709 -0.0913,0.35835 -0.24834,0.35835 -0.15702,0 -0.21124,0.1935 -0.12048,0.43001 0.0908,0.2365 0.0263,0.43001 -0.14333,0.43001 -0.1696,0 -0.2341,0.1935 -0.14334,0.43001 0.0908,0.23651 0.0263,0.43001 -0.14334,0.43001 -0.16959,0 -0.23409,0.19351 -0.14334,0.43001 0.0908,0.23651 0.0568,0.43001 -0.0754,0.43001 -0.2447,0 -1.07016,2.54606 -0.95266,2.93841 0.0354,0.11826 -0.0506,0.21501 -0.19121,0.21501 -0.2333,0 -0.69316,1.17098 -0.73178,1.86338 -0.009,0.15767 -0.183,0.4629 -0.38713,0.67829 -0.20413,0.21539 -0.32276,0.53675 -0.26364,0.71413 0.0591,0.17738 -0.0715,0.50154 -0.29036,0.72037 -0.21882,0.21883 -0.32999,0.57474 -0.24704,0.79092 0.083,0.21617 0.0496,0.39304 -0.0741,0.39304 -0.25394,0 -1.57268,3.04601 -1.57268,3.63258 0,0.20947 -0.0916,0.38086 -0.20359,0.38086 -0.2347,0 -1.50619,2.83197 -1.51235,3.36842 -0.002,0.19709 -0.11922,0.35834 -0.25992,0.35834 -0.1407,0 -0.17608,0.12901 -0.0786,0.28668 0.0974,0.15767 0.0329,0.28667 -0.14333,0.28667 -0.17629,0 -0.24079,0.12901 -0.14334,0.28668 0.0974,0.15767 0.0191,0.28667 -0.1742,0.28667 -0.19325,0 -0.27151,0.0799 -0.17391,0.17747 0.0976,0.0976 -0.0111,0.36601 -0.24153,0.59646 -0.23044,0.23044 -0.34569,0.53759 -0.2561,0.68255 0.0896,0.14496 0.0187,0.26357 -0.15762,0.26357 -0.17628,0 -0.24078,0.129 -0.14334,0.28667 0.0975,0.15767 0.033,0.28667 -0.14334,0.28667 -0.17628,0 -0.24078,0.12901 -0.14333,0.28668 0.0974,0.15767 0.0329,0.28667 -0.14334,0.28667 -0.17628,0 -0.24078,0.12901 -0.14334,0.28668 0.0975,0.15767 0.0611,0.28667 -0.0808,0.28667 -0.35443,0 -1.81713,2.73658 -1.58616,2.96755 0.10223,0.10223 0.0477,0.18587 -0.12122,0.18587 -0.29973,0 -2.00051,2.7688 -2.15,3.50011 -0.0414,0.20235 -0.22937,0.49738 -0.41779,0.65562 -0.18843,0.15824 -0.38193,0.48075 -0.43001,0.71669 -0.0481,0.23593 -0.22952,0.55844 -0.40319,0.71668 -0.17367,0.15824 -1.41725,1.96476 -2.7635,4.01448 -8.3578,12.72505 -19.69801,24.97174 -31.53664,34.0575 -1.85263,1.42183 -3.36842,2.71502 -3.36842,2.87375 0,0.15873 -0.0809,0.2077 -0.1798,0.10881 -0.2296,-0.22961 -2.68694,1.44857 -2.68694,1.83498 0,0.15939 -0.12992,0.20952 -0.2887,0.11139 -0.15878,-0.0981 -0.35784,0.002 -0.44235,0.22198 -0.0845,0.22022 -0.31936,0.4004 -0.52189,0.4004 -0.20254,0 -0.93876,0.39022 -1.63604,0.86716 -2.26029,1.54601 -8.33638,4.98041 -12.44809,7.03604 -2.20739,1.10357 -4.0567,2.12118 -4.10959,2.26135 -0.0529,0.14017 -0.1966,0.19277 -0.31936,0.11689 -0.18796,-0.11616 -6.95086,2.64766 -7.87258,3.21732 -0.16613,0.10267 -0.49782,0.20294 -0.7371,0.22283 -0.73043,0.0607 -2.58511,0.80895 -2.58511,1.04294 0,0.12105 -0.1935,0.14583 -0.43001,0.0551 -0.2365,-0.0908 -0.43001,-0.0263 -0.43001,0.14333 0,0.16959 -0.1935,0.2341 -0.43001,0.14334 -0.23651,-0.0908 -0.43001,-0.0263 -0.43001,0.14334 0,0.16959 -0.19351,0.23409 -0.43001,0.14334 -0.23651,-0.0908 -0.43001,-0.0263 -0.43001,0.14333 0,0.16959 -0.19351,0.23409 -0.43002,0.14334 -0.2365,-0.0908 -0.43026,-0.0545 -0.43058,0.0807 -2.8e-4,0.13513 -0.36963,0.27135 -0.82071,0.30272 -0.8011,0.0557 -0.82438,0.0165 -1.00279,-1.69043 z" id="path951" inkscape:connector-curvature="0"/>
  <path style="fill:#ffffff;stroke:none;stroke-width:0.28667414;fill-opacity:0" d="m 237.88219,464.23489 c -13.59955,-0.94307 -18.80034,-1.42002 -27.95072,-2.56327 -45.71612,-5.7118 -88.52049,-20.26308 -122.409857,-41.61304 -29.193862,-18.39184 -50.835598,-41.83106 -62.012218,-67.16272 -3.0441,-6.89942 -5.854453,-15.79282 -7.337812,-23.22061 -1.273032,-6.3746 -1.706415,-11.2527 -1.706415,-19.20716 0,-7.94871 0.432347,-12.82031 1.704609,-19.20717 6.658951,-33.4285 29.222396,-63.72147 65.338398,-87.72128 8.046653,-5.34716 10.516789,-6.24284 15.691885,-5.68988 7.58539,0.8105 13.62716,8.66178 12.54466,16.30175 -0.79314,5.59771 -2.65713,7.80051 -11.834112,13.98517 -19.424595,13.09085 -31.470748,24.80409 -41.06222,39.92742 -6.849702,10.80025 -12.144425,25.52711 -12.281409,34.15981 -0.02187,1.37836 -0.146725,2.50713 -0.277455,2.5084 -0.130726,0.001 -0.175524,3.32413 -0.09955,7.38415 0.118955,6.35678 0.240528,7.91928 0.875488,11.25196 5.297314,27.80374 25.338697,52.86896 58.373288,73.0059 26.92889,16.41508 60.9867,28.00887 98.75923,33.61914 13.38313,1.98776 27.3142,3.23211 36.73598,3.28133 3.49168,0.0182 6.20075,0.13942 6.02016,0.26928 -0.1806,0.12987 5.67029,0.16833 13.00198,0.0855 12.79521,-0.14461 19.90895,-0.49404 30.24412,-1.48561 61.59498,-5.9095 114.80001,-27.40696 146.80081,-59.31479 16.26248,-16.21522 25.30045,-32.88569 28.38644,-52.35864 0.67117,-4.23519 0.66744,-15.56024 -0.007,-19.89267 -2.81416,-18.08917 -10.78606,-33.68805 -25.03181,-48.98049 -7.59128,-8.14905 -16.02858,-15.24115 -26.47373,-22.25284 -5.70344,-3.82865 -9.42309,-6.61239 -10.54895,-7.89467 -1.06932,-1.21787 -2.42583,-3.82337 -2.89208,-5.55478 -0.53875,-2.00085 -0.41378,-5.91779 0.25772,-8.07698 1.9954,-6.41612 8.15055,-10.63151 14.9281,-10.22356 3.1951,0.19232 4.84281,0.84756 9.50508,3.77982 12.38507,7.7894 22.7535,16.02709 32.64731,25.93818 18.77466,18.80748 30.63813,39.43226 35.62909,61.94169 2.87153,12.95065 2.94145,28.0852 0.1921,41.57651 -2.80866,13.78235 -8.98459,28.13283 -17.63871,40.98564 -19.97032,29.65924 -54.21088,54.54092 -98.04562,71.24711 -26.12427,9.95642 -54.28694,16.48065 -84.69911,19.6216 -13.36941,1.38078 -15.57749,1.47996 -34.97424,1.57102 -10.32744,0.0485 -19.48667,0.0389 -20.35386,-0.0212 z" id="path953" inkscape:connector-curvature="0"/>
  <path style="fill:#a0a0a0;stroke:none;stroke-width:0.28667414" d="m 315.7534,237.1844 c -0.10038,-0.73239 -0.18252,-8.92701 -0.18252,-18.21028 v -16.87868 l -23.50731,0.0766 c -12.92903,0.0421 -23.5073,-0.0268 -23.50728,-0.15316 2e-5,-0.12635 -0.67723,-0.21286 -1.505,-0.19224 -1.93762,0.0483 -4.85946,-0.28427 -5.24417,-0.59685 -0.16447,-0.13363 -0.74972,-0.2892 -1.30055,-0.34571 -0.55084,-0.0565 -1.12579,-0.17279 -1.27767,-0.2584 -0.41756,-0.23536 -4.79691,-1.64441 -5.44356,-1.75147 -0.31134,-0.0515 -0.85634,-0.2532 -1.2111,-0.44813 -0.35476,-0.19492 -0.64699,-0.25311 -0.6494,-0.12931 -0.002,0.1238 -0.0992,0.08 -0.21501,-0.0973 -0.11584,-0.17734 -1.43615,-0.93445 -2.93402,-1.68247 -3.31245,-1.6542 -6.91126,-3.96552 -9.61757,-6.17683 -3.20249,-2.61672 -7.60791,-7.42467 -9.88971,-10.79333 -1.15447,-1.70437 -2.2365,-3.19363 -2.4045,-3.30947 -0.16801,-0.11584 -0.19902,-0.21259 -0.0689,-0.215 0.20528,-0.004 -0.0803,-0.59672 -1.72817,-3.58782 -0.17372,-0.31534 -0.47809,-1.12161 -0.67636,-1.79171 -0.19828,-0.6701 -0.44142,-1.21837 -0.54031,-1.21837 -0.0989,0 -0.20681,-0.35476 -0.23981,-0.78835 l -0.06,-0.78836 8.38423,-0.006 c 4.61133,-0.003 8.64224,-0.11729 8.95758,-0.25333 0.31534,-0.13604 0.96036,-0.29598 1.43337,-0.35543 1.48153,-0.1862 2.53819,-0.54964 2.65994,-0.91487 0.0645,-0.19342 0.008,-0.32432 -0.12466,-0.29089 -0.13304,0.0334 -0.93507,-0.15382 -1.7823,-0.41611 -0.84723,-0.26229 -1.6535,-0.407 -1.79171,-0.32158 -0.13822,0.0854 -0.2513,0.013 -0.2513,-0.16085 0,-0.17389 -0.16125,-0.28747 -0.35834,-0.25242 -0.19709,0.0351 -0.80986,-0.14606 -1.3617,-0.40246 -0.55185,-0.25641 -2.2417,-0.99447 -3.75523,-1.64014 -5.76261,-2.45832 -10.31842,-5.52985 -14.88624,-10.03632 -1.67808,-1.65554 -3.79752,-4.00985 -4.70986,-5.2318 -0.91233,-1.22195 -1.77217,-2.22173 -1.91073,-2.22173 -0.13857,0 -0.21969,-0.11425 -0.18027,-0.25388 0.10768,-0.38146 -1.8161,-3.47288 -2.16116,-3.47288 -0.16471,0 -0.21925,-0.0802 -0.12121,-0.17825 0.21141,-0.21141 -1.16225,-3.02504 -1.62533,-3.32912 -0.17641,-0.11584 -0.23071,-0.21259 -0.12065,-0.215 0.29269,-0.006 -0.35405,-1.72444 -0.64915,-1.72444 -0.1373,0 -0.18177,-0.17687 -0.0988,-0.39304 0.083,-0.21618 -0.0282,-0.57209 -0.24704,-0.79092 -0.21883,-0.21883 -0.3445,-0.55797 -0.27927,-0.75365 0.0652,-0.19568 -0.0171,-0.35578 -0.18297,-0.35578 -0.16587,0 -0.22732,-0.19351 -0.13656,-0.43001 0.0908,-0.23651 0.0263,-0.43001 -0.14334,-0.43001 -0.16959,0 -0.23409,-0.19351 -0.14333,-0.43001 0.0908,-0.23651 0.0545,-0.43031 -0.0807,-0.43067 -0.13512,-2.9e-4 -0.26075,-0.4139 -0.27918,-0.91897 -0.0184,-0.50507 -0.16599,-0.96248 -0.32791,-1.01645 -0.16192,-0.054 -0.22855,-0.34996 -0.14807,-0.65774 0.0805,-0.30778 0.0345,-0.55998 -0.1021,-0.56044 -0.13664,-5.8e-4 -0.25705,-0.42634 -0.26757,-0.94639 -0.0105,-0.52004 -0.12579,-1.19693 -0.25615,-1.50419 -0.13035,-0.30726 -0.20877,-0.91342 -0.17426,-1.34701 0.0345,-0.4336 -0.0437,-0.78836 -0.17387,-0.78836 -0.13014,0 -0.25436,-0.48376 -0.27605,-1.07502 -0.0217,-0.59127 -0.1243,-2.20381 -0.22804,-3.58343 -0.10373,-1.37962 -0.1099,-2.5084 -0.0137,-2.5084 0.2878,0 3.06921,1.16324 4.21512,1.76285 0.58696,0.30714 1.10297,0.54382 1.1467,0.52598 0.0806,-0.0329 0.64542,0.14068 1.94289,0.5971 1.10778,0.38969 5.80764,1.73291 6.45016,1.84345 1.795,0.30881 4.84456,0.71352 6.59351,0.87502 l 2.00672,0.18531 -0.69393,-0.74367 c -0.38166,-0.40902 -0.73543,-0.70217 -0.78615,-0.65144 -0.12012,0.12012 -2.21606,-1.70052 -5.0591,-4.3946 -2.72342,-2.58074 -4.99543,-5.31179 -7.15468,-8.60022 -0.88,-1.34021 -1.79248,-2.65174 -2.02773,-2.91453 -0.23525,-0.26278 -0.35247,-0.55304 -0.2605,-0.64501 0.092,-0.092 0.0328,-0.16723 -0.13139,-0.16723 -0.16424,0 -0.37291,-0.37146 -0.46371,-0.82546 -0.0908,-0.45401 -0.37415,-1.03453 -0.62966,-1.29004 -0.25551,-0.25551 -0.38912,-0.46456 -0.2969,-0.46456 0.0922,0 -0.0387,-0.48377 -0.29083,-1.07503 -0.25217,-0.59127 -0.83805,-2.107058 -1.30196,-3.368424 -0.46391,-1.261366 -0.92482,-2.486898 -1.02424,-2.723404 -0.0994,-0.236506 -0.15577,-0.540344 -0.1252,-0.675192 0.0306,-0.134849 -0.0768,-0.404727 -0.23868,-0.599725 -0.16183,-0.194999 -0.21794,-0.430846 -0.12469,-0.524101 0.0933,-0.09325 0.066,-0.337126 -0.0606,-0.541932 -0.12658,-0.204805 -0.26039,-0.568148 -0.29736,-0.807426 -0.037,-0.239278 -0.14018,-0.822061 -0.22936,-1.295073 -0.0892,-0.473012 -0.21657,-1.311534 -0.28309,-1.863382 -0.19161,-1.589729 -0.1998,-13.757435 -0.009,-14.065401 0.0945,-0.152851 0.14293,-0.566007 0.1077,-0.918125 -0.0352,-0.352118 0.0167,-0.962723 0.11536,-1.3569 0.0987,-0.394177 0.23905,-1.103695 0.31194,-1.576707 0.0729,-0.473013 0.2617,-1.28167 0.41961,-1.797017 0.1579,-0.515346 0.31087,-1.03136 0.33992,-1.146696 0.0291,-0.115337 0.16731,-0.510786 0.30722,-0.878776 0.13991,-0.36799 0.18134,-0.787251 0.0921,-0.931691 -0.0893,-0.14444 -0.0119,-0.262618 0.17196,-0.262618 0.18385,0 0.26001,-0.193505 0.16925,-0.430011 -0.0907,-0.236506 -0.054,-0.430011 0.0816,-0.430011 0.22616,0 0.6848,-1.182421 0.72278,-1.863382 0.009,-0.157671 0.0921,-0.351176 0.18508,-0.430011 0.093,-0.07883 0.76209,-1.40112 1.48686,-2.93841 0.72477,-1.53729 1.4227,-2.791582 1.55095,-2.787316 0.30625,0.01019 2.38324,1.944457 2.38324,2.219473 0,0.117038 3.45084,3.617447 7.66854,7.778687 8.72861,8.611788 9.04394,8.914576 9.28377,8.914576 0.0966,0 0.74019,0.516013 1.43015,1.146697 0.68996,0.630683 1.37271,1.146696 1.51722,1.146696 0.14451,0 0.46708,0.199236 0.71681,0.442742 1.13054,1.102357 2.75816,2.408252 3.43745,2.757972 0.40886,0.210493 1.06457,0.67297 1.45713,1.02773 0.39257,0.354759 0.86053,0.645016 1.03993,0.645016 0.17939,0 0.48447,0.190745 0.67795,0.423874 0.32963,0.397184 4.15139,3.016216 4.40134,3.016216 0.063,0 1.00248,0.599023 2.08763,1.331163 1.08516,0.73214 2.48903,1.582742 3.11971,1.890226 0.63068,0.307483 1.87725,0.966243 2.77015,1.46391 2.70925,1.510024 7.31578,3.847416 8.02703,4.072983 0.36838,0.116825 1.76631,0.717049 3.10652,1.333826 2.42213,1.114698 3.07197,1.399614 4.44344,1.948205 0.39418,0.157671 1.00695,0.412186 1.36171,0.565588 0.8428,0.364438 2.46359,0.927821 6.66517,2.316811 4.90564,1.62174 5.2209,1.72141 5.79387,1.83175 0.28336,0.0546 1.03071,0.23803 1.66078,0.40769 0.63006,0.16966 1.23994,0.32051 1.35528,0.33521 0.11533,0.0147 0.63135,0.1545 1.14669,0.31064 1.40439,0.42552 1.97063,0.57028 3.23039,0.82582 1.34799,0.27343 2.29768,0.4948 2.96131,0.69026 0.26333,0.0776 1.0593,0.21725 1.76881,0.31043 0.70952,0.0932 1.99956,0.30471 2.86674,0.47008 0.86719,0.16537 2.02822,0.35691 2.58007,0.42565 0.55185,0.0687 2.5514,0.319 4.44345,0.55615 4.91692,0.61628 9.89026,0.85235 9.89026,0.46946 0,-0.16947 -0.12337,-0.38437 -0.27416,-0.47757 -0.15078,-0.0932 -0.20385,-0.35263 -0.11793,-0.57653 0.0859,-0.22391 0.0568,-0.56802 -0.0648,-0.7647 -0.12156,-0.19668 -0.25257,-0.62212 -0.29115,-0.94542 -0.0386,-0.3233 -0.13523,-1.03934 -0.21479,-1.59118 -0.14967,-1.03817 -0.18184,-10.841538 -0.0414,-12.613666 0.0437,-0.551848 0.16289,-1.204418 0.26479,-1.450158 0.1019,-0.245737 0.2132,-1.051111 0.24733,-1.789718 0.0341,-0.738608 0.16692,-1.34382 0.29508,-1.344915 0.12817,-0.0011 0.19589,-0.227751 0.1505,-0.503675 -0.0454,-0.275924 -0.009,-0.630683 0.0816,-0.788354 0.0903,-0.15767 0.45863,-1.383202 0.81861,-2.723404 0.35999,-1.340202 0.96803,-3.04912 1.35122,-3.797595 0.38319,-0.748475 0.61674,-1.490244 0.51901,-1.648376 -0.0977,-0.158133 -0.0335,-0.287512 0.14282,-0.287512 0.17628,0 0.24629,-0.12009 0.15558,-0.266865 -0.0907,-0.146777 -0.0314,-0.349409 0.13187,-0.450299 0.40333,-0.249274 1.78486,-3.008482 1.50909,-3.013989 -0.12091,-0.0024 -0.0742,-0.09917 0.10378,-0.215006 0.17798,-0.115838 1.23356,-1.565151 2.34572,-3.220694 4.80014,-7.145391 11.659,-13.242284 19.08872,-16.968121 1.27742,-0.640594 2.41735,-1.309688 2.53319,-1.486876 0.11584,-0.177187 0.21259,-0.233236 0.21501,-0.124553 0.006,0.291824 2.58445,-0.638079 2.58445,-0.932242 0,-0.137901 0.19351,-0.176474 0.43001,-0.08572 0.23651,0.09076 0.43002,0.02625 0.43002,-0.143337 0,-0.169591 0.1935,-0.234093 0.43001,-0.143337 0.2365,0.09076 0.4303,0.05446 0.43066,-0.08067 2.9e-4,-0.135122 0.40099,-0.260102 0.89029,-0.277733 0.4893,-0.01763 0.97277,-0.146634 1.07438,-0.286674 0.1016,-0.14004 0.63625,-0.298278 1.18809,-0.351641 0.55185,-0.05336 1.04011,-0.195868 1.08503,-0.316677 0.0449,-0.12081 0.39968,-0.158863 0.78836,-0.08456 0.38867,0.0743 0.70756,0.0233 0.70862,-0.113334 0.001,-0.136634 0.72875,-0.284284 1.61706,-0.328111 0.88831,-0.04383 1.7357,-0.154211 1.88307,-0.245296 0.7741,-0.47842 6.4158,-0.622076 9.97161,-0.25391 1.18254,0.122438 2.60157,0.267558 3.15342,0.322489 0.55185,0.05493 2.03593,0.35219 3.29796,0.660575 1.26203,0.308385 2.61656,0.613691 3.01008,0.678458 0.39351,0.06477 1.10249,0.276317 1.5755,0.470113 0.47301,0.193796 1.24703,0.428187 1.72004,0.520868 0.47302,0.09268 1.15028,0.356138 1.50504,0.58546 0.35476,0.229322 0.64502,0.334636 0.64502,0.234032 0,-0.100604 0.30055,0.01402 0.6679,0.25471 0.36735,0.240693 0.75436,0.35117 0.86002,0.245503 0.10567,-0.105667 0.19212,-0.034 0.19212,0.15925 0,0.193255 0.11439,0.280678 0.2542,0.194273 0.1398,-0.0864 0.40672,0.02669 0.59315,0.251328 0.18643,0.224636 0.71706,0.491472 1.17918,0.59297 0.46212,0.101498 0.84022,0.310909 0.84022,0.465357 0,0.154448 0.129,0.201086 0.28667,0.103641 0.15767,-0.09745 0.28667,-0.06126 0.28667,0.0804 0,0.237141 0.98822,0.807085 1.51528,0.873918 0.12389,0.01571 0.42381,0.227131 0.66651,0.469826 0.58489,0.584894 2.97835,2.226481 2.97835,2.042746 0,-0.07924 0.29997,0.140315 0.66659,0.487908 1.29087,1.223844 6.2683,5.508095 6.6513,5.725006 0.21322,0.120758 0.94374,0.02588 1.62336,-0.210833 0.67962,-0.236717 1.53001,-0.432272 1.88974,-0.434566 0.35973,-0.0023 1.42097,-0.262523 2.35829,-0.578286 0.93733,-0.315762 1.96196,-0.613446 2.27696,-0.661519 0.31501,-0.04807 0.66206,-0.176732 0.77124,-0.285909 0.10918,-0.109177 0.49111,-0.198503 0.84875,-0.198503 0.35763,0 0.9489,-0.113549 1.31392,-0.25233 0.36502,-0.138782 0.75864,-0.272875 0.87469,-0.297984 0.4535,-0.09811 2.57836,-0.885573 3.59345,-1.331707 1.83183,-0.805098 2.73945,-1.144982 3.29186,-1.232729 0.11887,-0.01888 0.82839,-0.348411 1.5767,-0.732286 0.74832,-0.383874 3.16662,-1.569904 5.37401,-2.635621 2.20739,-1.065718 4.05644,-2.042648 4.109,-2.170955 0.16405,-0.40051 1.12483,-0.254911 1.29814,0.196725 0.0908,0.236506 0.0401,0.430011 -0.11266,0.430011 -0.15273,0 -0.27768,0.176901 -0.27768,0.393113 0,0.844661 -4.39436,9.0622 -6.15174,11.503864 -2.46526,3.425189 -5.71368,6.914887 -8.88698,9.547059 -1.42546,1.182379 -2.63474,2.259314 -2.6873,2.393185 -0.0526,0.133874 -0.24606,0.24371 -0.43001,0.24408 -0.48184,8.6e-4 -2.35347,1.659296 -2.12762,1.885146 0.10437,0.104367 0.55053,0.08439 0.99146,-0.04438 0.44094,-0.128777 0.93071,-0.252284 1.08838,-0.274464 0.44447,-0.06252 2.32115,-0.42513 5.31975,-1.027868 3.5674,-0.717066 3.68944,-0.744533 4.79082,-1.078244 0.51534,-0.156146 0.96685,-0.281672 1.00336,-0.278943 0.25998,0.01944 1.97227,-0.447163 2.85354,-0.777579 0.58693,-0.220054 1.48729,-0.47412 2.00081,-0.564589 0.51352,-0.09047 1.501,-0.415444 2.19439,-0.722165 0.6934,-0.306721 1.45017,-0.557674 1.68173,-0.557674 0.23155,0 0.76341,-0.17822 1.18192,-0.396043 0.4185,-0.217824 1.44367,-0.594728 2.27814,-0.837565 1.50241,-0.437206 1.51537,-0.435647 1.32646,0.159546 -0.10492,0.330588 -0.85218,1.391387 -1.66056,2.357332 -0.80839,0.965945 -2.53583,3.057349 -3.83875,4.647565 -2.3097,2.818981 -13.097,13.62524 -13.34939,13.372852 -0.0697,-0.06969 -0.38574,0.202587 -0.70233,0.605069 -0.31659,0.402479 -0.71099,0.731781 -0.87645,0.731781 -0.16545,0 -0.50165,0.286712 -0.7471,0.637136 -0.24544,0.350422 -0.45055,0.511676 -0.4558,0.358343 -0.005,-0.153336 -0.26325,0.02574 -0.57335,0.397981 -0.31009,0.372229 -0.56381,0.57799 -0.56381,0.457251 0,-0.120741 -0.24507,0.0023 -0.54461,0.273341 -0.50599,0.457913 -0.54594,0.994751 -0.56323,7.569629 -0.0202,7.68907 -0.13958,10.70074 -0.44353,11.19254 -0.10761,0.17412 -0.1976,0.86735 -0.19997,1.54049 -0.007,1.98046 -0.15957,3.56037 -0.37804,3.91386 -0.11208,0.18135 -0.17566,0.61783 -0.14127,0.96994 0.0344,0.35212 -0.0357,0.8679 -0.15577,1.14618 -0.12005,0.27828 -0.15292,0.75586 -0.0731,1.06129 0.0799,0.30542 0.0359,0.59375 -0.0976,0.64073 -0.13356,0.047 -0.29995,0.79493 -0.36976,1.66212 -0.0698,0.86719 -0.19723,1.77021 -0.28315,2.00672 -0.18823,0.51808 -0.72194,3.24714 -0.869,4.44345 -0.0581,0.47301 -0.18375,1.05353 -0.27911,1.29003 -0.33311,0.82615 -0.72516,2.98113 -0.58393,3.20965 0.0783,0.12675 -0.002,0.23044 -0.17919,0.23044 -0.17689,0 -0.29334,0.22576 -0.25879,0.50168 0.0346,0.27592 -0.0891,0.87224 -0.27491,1.32516 -0.18576,0.45291 -0.38246,1.16243 -0.43713,1.57671 -0.0547,0.41427 -0.17934,0.94673 -0.27708,1.18324 -0.0977,0.2365 -0.22398,0.68802 -0.28054,1.00336 -0.0566,0.31534 -0.26464,0.96035 -0.46236,1.43337 -0.19773,0.47301 -0.42794,1.34378 -0.51158,1.93505 -0.0836,0.59126 -0.27789,1.07503 -0.43167,1.07503 -0.15378,0 -0.20535,0.1935 -0.11459,0.43001 0.0908,0.2365 0.0263,0.43001 -0.14333,0.43001 -0.1696,0 -0.2341,0.1935 -0.14334,0.43001 0.0908,0.23651 0.0344,0.43001 -0.12523,0.43001 -0.15964,0 -0.26479,0.16125 -0.23367,0.35834 0.0311,0.19709 -0.15674,0.83797 -0.41745,1.42417 -0.26071,0.5862 -0.47402,1.268 -0.47402,1.51512 0,0.24712 -0.19005,0.73937 -0.42234,1.09389 -0.23229,0.35452 -0.46436,0.89824 -0.5157,1.20828 -0.0513,0.31003 -0.25284,0.85395 -0.44776,1.20871 -0.19493,0.35476 -0.2824,0.64502 -0.19438,0.64502 0.088,0 -0.0302,0.29026 -0.2626,0.64501 -0.23245,0.35476 -0.43381,0.73951 -0.44748,0.855 -0.0137,0.11548 -0.34121,0.8895 -0.72787,1.72004 -0.38667,0.83054 -0.70429,1.73583 -0.70583,2.01175 -0.001,0.27592 -0.1146,0.50168 -0.25125,0.50168 -0.27444,0 -1.4716,2.71304 -1.4716,3.33498 0,0.21548 -0.13661,0.39178 -0.30359,0.39178 -0.16698,0 -0.22386,0.12901 -0.12642,0.28668 0.0974,0.15767 0.0329,0.28667 -0.14333,0.28667 -0.17629,0 -0.24079,0.12901 -0.14334,0.28668 0.0974,0.15767 0.0329,0.28667 -0.14334,0.28667 -0.17628,0 -0.24721,0.1186 -0.15762,0.26356 0.0896,0.14496 -0.0257,0.45211 -0.2561,0.68256 -0.23045,0.23045 -0.33914,0.49886 -0.24153,0.59646 0.0976,0.0976 0.0193,0.17747 -0.17391,0.17747 -0.19326,0 -0.27164,0.129 -0.1742,0.28667 0.0975,0.15767 0.033,0.28667 -0.14334,0.28667 -0.17628,0 -0.24721,0.11861 -0.15762,0.26357 0.0896,0.14496 -0.008,0.43521 -0.21683,0.64501 -0.66547,0.66851 -1.92526,3.00298 -1.72734,3.2009 0.10485,0.10485 0.0639,0.19064 -0.091,0.19064 -0.15492,0 -0.57168,0.51601 -0.92614,1.14669 -0.35447,0.63069 -0.54707,1.1467 -0.42801,1.1467 0.11906,0 0.005,0.16125 -0.25258,0.35834 -0.25798,0.19709 -0.50839,0.5411 -0.55647,0.76447 -0.0481,0.22336 -0.31788,0.64733 -0.59956,0.94214 -0.28168,0.29482 -0.43532,0.66033 -0.34143,0.81225 0.0939,0.15192 0.0619,0.27621 -0.0711,0.27621 -0.23203,0 -1.1902,1.42427 -1.15715,1.72005 0.009,0.0788 -0.25875,0.46584 -0.59458,0.86002 -0.33583,0.39418 -1.72944,2.32923 -3.09691,4.30011 -8.2432,11.88059 -18.5153,22.70626 -29.91765,31.52995 -1.49788,1.15913 -2.85241,2.24703 -3.01008,2.41756 -0.15767,0.17053 -0.65252,0.49904 -1.09966,0.73002 -0.44715,0.23098 -1.12442,0.70859 -1.50504,1.06134 -0.38063,0.35276 -0.69616,0.55078 -0.70117,0.44005 -0.005,-0.11072 -0.19852,0.0491 -0.43001,0.35516 -0.23149,0.30606 -0.4209,0.46335 -0.4209,0.34953 0,-0.11381 -0.74177,0.2707 -1.64837,0.85449 -0.90661,0.58378 -2.51915,1.56642 -3.58343,2.18364 -1.06428,0.61723 -1.93505,1.26158 -1.93505,1.4319 0,0.17032 -0.0741,0.23558 -0.16465,0.14502 -0.15046,-0.15046 -8.76609,4.12728 -10.44229,5.1847 -0.39418,0.24866 -0.89378,0.48032 -1.11023,0.51479 -0.77988,0.12422 -2.04319,0.75167 -2.04319,1.01481 0,0.14784 -0.11019,0.20071 -0.24486,0.11748 -0.21235,-0.13124 -4.41776,1.49236 -5.31104,2.05046 -0.1765,0.11028 -0.55015,0.23621 -0.83032,0.27984 -0.28017,0.0436 -0.98969,0.29293 -1.57671,0.55398 -0.58702,0.26106 -1.22856,0.44919 -1.42565,0.41807 -0.19709,-0.0311 -0.35834,0.074 -0.35834,0.23367 0,0.15963 -0.1935,0.21599 -0.43001,0.12523 -0.23651,-0.0908 -0.43001,-0.0263 -0.43001,0.14334 0,0.16959 -0.19351,0.23409 -0.43001,0.14334 -0.23651,-0.0908 -0.43001,-0.0263 -0.43001,0.14333 0,0.16959 -0.19351,0.23409 -0.43002,0.14334 -0.2365,-0.0908 -0.43001,-0.0497 -0.43001,0.0913 0,0.14101 -0.36938,0.28452 -0.82084,0.31892 -0.77168,0.0588 -0.83177,-0.0172 -1.00336,-1.26907 z" id="path955" inkscape:connector-curvature="0"/>
  <path style="fill:#ffffff;stroke:none;stroke-width:0.28667414;fill-opacity:0" d="m 315.75489,237.43785 c -0.0977,-0.59127 -0.17911,-8.78514 -0.18085,-18.20861 l -0.003,-17.13357 -23.51882,0.0146 c -12.93535,0.008 -23.62282,-0.0497 -23.74993,-0.12825 -0.1271,-0.0786 -1.05718,-0.14083 -2.06684,-0.13839 -1.00965,0.003 -2.48075,-0.13866 -3.26911,-0.31355 -0.78835,-0.17489 -1.94938,-0.43247 -2.58007,-0.57241 -0.63068,-0.13993 -2.30772,-0.65219 -3.72676,-1.13835 -1.41904,-0.48616 -2.77357,-0.91878 -3.01008,-0.96138 -0.2365,-0.0426 -0.72027,-0.23693 -1.07503,-0.43185 -0.35476,-0.19493 -0.64501,-0.26538 -0.64501,-0.15656 0,0.10882 -0.22576,-9e-5 -0.50168,-0.24202 -0.78891,-0.69171 -2.35393,-1.40975 -2.66016,-1.22049 -0.15304,0.0946 -0.27825,0.0375 -0.27825,-0.1268 0,-0.16432 -0.62996,-0.61798 -1.39991,-1.00815 -4.73362,-2.39871 -11.90394,-8.36976 -15.50233,-12.90949 -2.07048,-2.61212 -4.885,-6.71978 -4.885,-7.12943 0,-0.19965 -0.40259,-0.99781 -0.89464,-1.7737 -0.49205,-0.77588 -1.07592,-2.02113 -1.29748,-2.76721 -0.22156,-0.74608 -0.52849,-1.43417 -0.68207,-1.52908 -0.15357,-0.0949 -0.27922,-0.55921 -0.27922,-1.03176 v -0.85918 l 5.2318,0.17545 c 6.58488,0.22083 13.44469,-0.30427 15.66271,-1.19892 l 0.684,-0.2759 -0.82733,-0.31299 c -1.75057,-0.66228 -2.76625,-0.9227 -3.01032,-0.77186 -0.13955,0.0862 -0.25374,0.0146 -0.25374,-0.15934 0,-0.17389 -0.16125,-0.28344 -0.35834,-0.24344 -0.19709,0.04 -0.65127,-0.0893 -1.00929,-0.28737 -0.35801,-0.19804 -0.77727,-0.282 -0.93169,-0.18656 -0.15441,0.0954 -0.28075,0.0544 -0.28075,-0.0911 0,-0.14555 -0.61276,-0.49485 -1.3617,-0.77621 -6.79947,-2.55443 -14.31464,-7.90565 -19.2024,-13.67319 -1.22457,-1.44498 -2.50307,-2.91786 -2.8411,-3.27305 -0.33804,-0.3552 -0.54533,-0.71509 -0.46065,-0.79977 0.0847,-0.0847 -0.058,-0.23531 -0.31708,-0.33472 -0.25907,-0.0994 -0.47104,-0.36046 -0.47104,-0.5801 0,-0.21963 -0.15051,-0.39934 -0.33446,-0.39934 -0.18394,0 -0.25577,-0.0787 -0.15962,-0.17483 0.19225,-0.19225 -1.12308,-2.42267 -1.62716,-2.75919 -0.17352,-0.11584 -0.21657,-0.21259 -0.0957,-0.215 0.27382,-0.005 -1.10432,-2.76383 -1.50441,-3.0111 -0.16067,-0.0993 -0.29213,-0.48623 -0.29213,-0.85984 0,-0.3736 -0.17162,-0.85091 -0.38138,-1.06066 -0.20976,-0.20976 -0.333,-0.52651 -0.27388,-0.70389 0.0591,-0.17738 -0.0699,-0.49989 -0.28667,-0.71669 -0.2168,-0.2168 -0.34081,-0.55428 -0.27558,-0.74996 0.0652,-0.19568 -0.0171,-0.35578 -0.18297,-0.35578 -0.16587,0 -0.22732,-0.19351 -0.13656,-0.43001 0.0908,-0.23651 0.0263,-0.43001 -0.14334,-0.43001 -0.16959,0 -0.23409,-0.19351 -0.14333,-0.43001 0.0908,-0.23651 0.0545,-0.43027 -0.0807,-0.43059 -0.13512,-2.8e-4 -0.27519,-0.41866 -0.31127,-0.92966 -0.0361,-0.511 -0.18363,-0.96845 -0.32791,-1.01653 -0.14427,-0.0481 -0.19646,-0.33927 -0.11598,-0.64705 0.0805,-0.30778 0.0345,-0.56027 -0.1021,-0.56109 -0.13664,-8.6e-4 -0.27957,-0.54151 -0.31762,-1.20154 -0.038,-0.66003 -0.18922,-1.3201 -0.33594,-1.46682 -0.14672,-0.14672 -0.19854,-0.44454 -0.11515,-0.66184 0.0834,-0.21729 0.0522,-0.62083 -0.0693,-0.89675 -0.25876,-0.58762 -0.30916,-1.00925 -0.56544,-4.73013 -0.10588,-1.53729 -0.11984,-2.79507 -0.031,-2.79507 0.25953,0 3.14515,1.12375 3.69778,1.44003 1.05221,0.6022 7.1959,2.56452 9.7418,3.11158 2.2204,0.47712 7.32685,1.18187 8.56349,1.18187 0.2066,0 0.13661,-0.2274 -0.17647,-0.57335 -0.28538,-0.31534 -0.66135,-0.57334 -0.8355,-0.57334 -0.17414,0 -0.48559,-0.27057 -0.69211,-0.60127 -0.20653,-0.33069 -0.43557,-0.5412 -0.50898,-0.46778 -0.2287,0.2287 -6.3805,-5.8195 -8.12547,-7.98863 -0.91235,-1.13412 -2.40793,-3.20445 -3.32352,-4.60072 -0.91558,-1.39628 -1.77203,-2.58196 -1.90321,-2.63485 -0.13119,-0.0529 -0.1656,-0.21414 -0.0765,-0.35834 0.0891,-0.1442 0.0254,-0.26219 -0.14155,-0.26219 -0.16698,0 -0.3036,-0.2293 -0.3036,-0.50956 0,-0.28026 -0.22279,-0.82765 -0.4951,-1.21642 -0.27231,-0.38877 -0.52016,-0.83674 -0.55079,-0.99548 -0.0473,-0.24531 -2.07443,-5.725916 -2.59849,-7.025458 -0.0954,-0.236506 -0.1484,-0.540344 -0.11783,-0.675192 0.0306,-0.134849 -0.0768,-0.404727 -0.23868,-0.599725 -0.16183,-0.194999 -0.21248,-0.43631 -0.11254,-0.536244 0.0999,-0.09994 0.0489,-0.346073 -0.11341,-0.546972 -0.28291,-0.350167 -0.63578,-1.982618 -0.82256,-3.805361 -0.12003,-1.171313 -0.0811,-13.799961 0.0463,-15.050392 0.0563,-0.551848 0.24393,-1.712878 0.41705,-2.580067 0.17311,-0.867189 0.38896,-1.963718 0.47968,-2.43673 0.0907,-0.473013 0.27758,-1.00207 0.41527,-1.175683 0.13768,-0.173614 0.27861,-0.657376 0.31318,-1.075028 0.0346,-0.417652 0.16937,-0.759368 0.29956,-0.759368 0.1302,0 0.204,-0.161254 0.164,-0.358342 -0.04,-0.197089 0.0827,-0.638852 0.2726,-0.981697 0.18993,-0.342845 0.3866,-0.858858 0.43706,-1.146697 0.13201,-0.753078 3.02923,-6.400553 3.28231,-6.39812 0.11681,0.0011 0.67807,0.484886 1.24723,1.075028 6.11509,6.340483 17.7919,17.843423 18.11313,17.843423 0.0951,0 0.5344,0.338539 0.97612,0.75231 0.44171,0.413774 1.25463,1.048597 1.80648,1.410721 0.55185,0.362124 1.39037,1.005002 1.86338,1.428617 0.47301,0.423616 1.50504,1.186473 2.29339,1.695239 0.78836,0.50877 1.61042,1.139894 1.82682,1.402499 0.21639,0.262608 0.5389,0.477625 0.71668,0.477817 0.17779,1.92e-4 0.69544,0.320442 1.15034,0.711663 0.45491,0.391221 1.48693,1.121506 2.2934,1.622854 0.80646,0.501347 2.64935,1.664636 4.09531,2.585089 1.44597,0.920451 2.69662,1.673549 2.77924,1.673549 0.0826,0 1.70974,0.852767 3.61584,1.895037 13.06745,7.145364 28.7611,12.53135 43.72394,15.00584 5.2104,0.86167 12.841,1.73294 15.17717,1.73294 1.24353,0 1.26789,-0.0181 1.24968,-0.93169 -0.0102,-0.51243 -0.11432,-1.06069 -0.23134,-1.21836 -0.42574,-0.57363 -0.59087,-3.02031 -0.57208,-8.476431 0.0199,-5.78314 0.0898,-6.920525 0.56911,-9.257479 0.15718,-0.766414 0.2204,-1.499271 0.14049,-1.628567 -0.0799,-0.129298 -0.0224,-0.311044 0.12782,-0.403878 0.15021,-0.09284 0.27178,-0.392006 0.27015,-0.664826 -0.005,-0.772217 1.48557,-5.498937 2.22519,-7.058152 0.36577,-0.77109 0.59651,-1.512859 0.51276,-1.648376 -0.0838,-0.135517 -0.0157,-0.246394 0.15131,-0.246394 0.16698,0 0.27492,-0.09675 0.23989,-0.215005 -0.035,-0.118253 0.27857,-0.795521 0.69692,-1.505039 0.41835,-0.709519 0.80178,-1.483539 0.85207,-1.720045 0.0503,-0.236506 0.1668,-0.494513 0.25892,-0.573348 0.0921,-0.07884 0.95678,-1.322563 1.92144,-2.763839 3.46545,-5.177599 7.27002,-9.196942 12.23776,-12.928611 1.58056,-1.187286 2.91702,-2.271105 2.9699,-2.408485 0.0529,-0.13738 0.20944,-0.179771 0.34789,-0.0942 0.13845,0.08557 0.51444,-0.107132 0.83554,-0.428225 0.32109,-0.321092 0.5838,-0.517681 0.5838,-0.436863 0,0.2246 4.08405,-1.866401 4.68855,-2.4005 0.29248,-0.258415 0.55049,-0.406303 0.57335,-0.328639 0.0719,0.244141 2.4783,-0.649853 2.4783,-0.920696 0,-0.141739 0.12009,-0.183488 0.26687,-0.09277 0.14678,0.09071 0.34441,0.03946 0.43919,-0.113899 0.0948,-0.153356 0.3617,-0.20616 0.59316,-0.117342 0.23145,0.08882 0.42108,0.05093 0.4214,-0.08419 2.9e-4,-0.135122 0.40984,-0.274501 0.91007,-0.309731 0.50022,-0.03523 0.98372,-0.1647 1.07445,-0.287711 0.0907,-0.123011 0.55197,-0.268416 1.02499,-0.323122 0.47301,-0.05471 0.98902,-0.179262 1.14669,-0.276792 0.15767,-0.09753 0.57693,-0.139824 0.93169,-0.09399 0.35476,0.04584 0.64547,-0.02264 0.64602,-0.152182 5.8e-4,-0.129537 0.73859,-0.27564 1.64007,-0.324673 0.90149,-0.04903 1.77577,-0.202601 1.94284,-0.341262 0.16708,-0.138661 1.97686,-0.292049 4.02175,-0.34086 3.21734,-0.0768 5.34782,0.04379 9.16478,0.518757 1.42956,0.177887 6.82483,1.429713 7.68327,1.782692 0.4417,0.181622 1.19001,0.398387 1.66291,0.481701 0.47291,0.08331 1.07904,0.262439 1.34697,0.398056 0.26792,0.135618 0.80965,0.376488 1.20382,0.535267 2.5648,1.033129 6.22093,3.026596 8.39996,4.579996 0.71881,0.51243 1.43419,0.931691 1.58973,0.931691 0.15554,0 0.3258,0.10779 0.37836,0.239533 0.0887,0.222253 2.56216,2.419522 5.64269,5.012556 1.53494,1.29203 1.60974,1.291016 6.77986,-0.09189 1.89205,-0.506089 3.8271,-1.019047 4.30011,-1.139907 1.70953,-0.436806 4.90383,-1.52723 6.30683,-2.152937 0.78835,-0.351589 1.94938,-0.817597 2.58007,-1.035574 0.63068,-0.217977 3.56099,-1.590827 6.51179,-3.050779 2.9508,-1.459951 5.48786,-2.654457 5.63792,-2.654457 0.70185,0 0.33925,1.052698 -1.87554,5.44499 -3.63901,7.216745 -7.08921,11.655826 -13.12879,16.891706 -1.65202,1.432174 -3.10459,2.609197 -3.22794,2.615604 -0.50361,0.02617 -2.12029,1.654385 -1.8243,1.837323 0.1705,0.10537 0.42509,0.120449 0.56576,0.03351 0.14067,-0.08694 2.04347,-0.485781 4.22844,-0.886319 5.76582,-1.056953 15.28722,-3.664906 18.30639,-5.014194 0.31534,-0.140928 1.25777,-0.450728 2.0943,-0.688443 1.50857,-0.42869 1.51938,-0.427256 1.32789,0.176081 -0.43369,1.366431 -8.05141,10.090635 -13.28006,15.209004 -3.02003,2.956327 -5.61622,5.37514 -5.76932,5.37514 -0.1531,0 -0.4395,0.258006 -0.63643,0.573348 -0.19693,0.315341 -0.51322,0.573348 -0.70286,0.573348 -0.18964,0 -0.54562,0.286712 -0.79107,0.637136 -0.24544,0.350422 -0.45055,0.511676 -0.4558,0.358343 -0.005,-0.153336 -0.24723,0.006 -0.53776,0.354034 -0.29052,0.348054 -0.59035,0.570691 -0.6663,0.494751 -0.0759,-0.07594 -0.31771,0.07836 -0.53726,0.342896 -0.31448,0.378898 -0.40846,1.977352 -0.44287,7.532119 -0.0573,9.2574 -0.12199,10.90122 -0.43645,11.09557 -0.14445,0.0893 -0.25621,0.76384 -0.24837,1.49904 0.008,0.7352 -0.0638,1.98174 -0.15917,2.7701 -0.0954,0.78835 -0.20349,1.76576 -0.24026,2.17202 -0.0368,0.40626 -0.16173,0.89218 -0.2777,1.07983 -0.11597,0.18765 -0.17364,0.62928 -0.12815,0.98139 0.0455,0.35212 -0.008,0.78591 -0.119,0.96399 -0.11094,0.17807 -0.25504,0.95209 -0.32022,1.72004 -0.0652,0.76795 -0.19629,1.58978 -0.29136,1.82629 -0.0951,0.2365 -0.36295,1.59104 -0.59528,3.01008 -0.59215,3.6167 -1.02702,5.64816 -1.33723,6.24682 -0.14631,0.28234 -0.19503,0.62818 -0.10829,0.76855 0.0867,0.14036 0.0378,0.32929 -0.10868,0.41985 -0.21227,0.13119 -0.63809,1.75977 -0.72936,2.78949 -0.009,0.10511 -0.11369,0.28787 -0.23195,0.40612 -0.11825,0.11825 -0.215,0.50127 -0.215,0.85114 0,0.34988 -0.18992,1.00222 -0.42205,1.44964 -0.23213,0.44743 -0.50478,1.3652 -0.6059,2.03949 -0.10112,0.67429 -0.31201,1.22599 -0.46864,1.22599 -0.15664,0 -0.21055,0.1935 -0.11979,0.43001 0.0908,0.2365 0.0263,0.43001 -0.14333,0.43001 -0.1696,0 -0.2341,0.1935 -0.14334,0.43001 0.0908,0.23651 0.0344,0.43001 -0.12523,0.43001 -0.15964,0 -0.26479,0.16125 -0.23367,0.35834 0.0311,0.19709 -0.15674,0.83797 -0.41745,1.42417 -0.26071,0.5862 -0.47812,1.29572 -0.48313,1.5767 -0.005,0.28099 -0.19853,0.7613 -0.43002,1.06736 -0.23149,0.30606 -0.42089,0.79436 -0.42089,1.08512 0,0.29075 -0.20834,0.84661 -0.46298,1.23524 -0.25464,0.38863 -0.38067,0.7066 -0.28007,0.7066 0.10061,0 -0.007,0.29026 -0.23971,0.64501 -0.23245,0.35476 -0.43487,0.73915 -0.44982,0.85419 -0.015,0.11505 -0.34375,0.92499 -0.73067,1.79989 -0.38692,0.87489 -0.70349,1.77293 -0.70349,1.99564 0,0.2227 -0.13096,0.48585 -0.29102,0.58477 -0.27287,0.16864 -1.13211,1.9445 -1.24705,2.57738 -0.13365,0.73583 -0.85304,2.15006 -1.0937,2.15006 -0.14784,0 -0.20683,0.10029 -0.13108,0.22286 0.0758,0.12257 -0.29768,0.99334 -0.82987,1.93505 -0.53218,0.94171 -1.26382,2.29271 -1.62585,3.00223 -0.36204,0.70951 -0.94078,1.68609 -1.28609,2.17018 -0.34531,0.48408 -0.66782,1.06152 -0.71668,1.2832 -0.0489,0.22169 -0.25011,0.57661 -0.44719,0.78871 -0.19709,0.2121 -0.35835,0.56993 -0.35835,0.79518 0,0.22524 -0.12654,0.40953 -0.28121,0.40953 -0.15467,0 -0.36216,0.32251 -0.46109,0.71669 -0.0989,0.39418 -0.27458,0.71668 -0.39033,0.71668 -0.11575,0 -0.45652,0.4818 -0.75728,1.07066 -0.30075,0.58886 -0.7151,1.25012 -0.92079,1.46947 -0.68915,0.73495 -3.22948,4.62673 -3.02006,4.62673 0.11378,0 -8.6e-4,0.16125 -0.25506,0.35834 -0.25406,0.19709 -1.41559,1.64838 -2.5812,3.22508 -5.69557,7.70441 -15.94079,18.57225 -22.71566,24.09618 -1.7299,1.41049 -3.48137,2.88703 -3.89215,3.2812 -0.41078,0.39418 -0.83392,0.71669 -0.9403,0.71669 -0.10638,0 -0.80598,0.51704 -1.55465,1.14897 -0.74868,0.63193 -1.69844,1.3216 -2.11058,1.5326 -0.41213,0.211 -1.07553,0.6861 -1.47422,1.05579 -0.39869,0.36968 -0.80022,0.59682 -0.89229,0.50475 -0.0921,-0.0921 -0.24874,0.0446 -0.34816,0.30364 -0.0994,0.25908 -0.31226,0.47105 -0.47298,0.47105 -0.44887,0 -5.09324,2.91082 -5.09324,3.19214 0,0.13637 -0.0967,0.23267 -0.21501,0.214 -0.49754,-0.0786 -0.85517,0.0631 -1.37931,0.54624 -0.30566,0.28177 -0.975,0.68443 -1.48743,0.89481 -0.51243,0.21037 -0.93169,0.51735 -0.93169,0.68217 0,0.16482 -0.0794,0.22024 -0.17653,0.12315 -0.17679,-0.17679 -7.07471,3.1621 -8.42369,4.07742 -0.39418,0.26747 -1.26495,0.64389 -1.93505,0.8365 -0.6701,0.19261 -1.21837,0.44657 -1.21837,0.56436 0,0.11779 -0.22575,0.2323 -0.50168,0.25448 -0.60479,0.0486 -4.68972,1.75298 -5.07413,2.11711 -0.14979,0.14189 -0.50869,0.25797 -0.79756,0.25797 -0.28887,0 -1.00484,0.21331 -1.59104,0.47402 -0.5862,0.26071 -1.22708,0.44857 -1.42417,0.41745 -0.19709,-0.0311 -0.35834,0.0857 -0.35834,0.25958 0,0.17389 -0.14343,0.22752 -0.31872,0.11918 -0.1753,-0.10834 -0.41646,-0.0388 -0.5359,0.15441 -0.11945,0.19327 -0.55645,0.37105 -0.97111,0.39507 -0.41466,0.024 -0.75402,0.14043 -0.75413,0.25868 -1.1e-4,0.11826 -0.37034,0.21501 -0.82272,0.21501 -0.72775,0 -0.84298,-0.12385 -1.0002,-1.07503 z" id="path957" inkscape:connector-curvature="0"/>
  <path style="fill:#ffffff;stroke:none;stroke-width:0.28667414;fill-opacity:0.94117647" d="m 315.75489,237.43785 c -0.0977,-0.59127 -0.17911,-8.78514 -0.18085,-18.20861 l -0.003,-17.13357 -23.51882,0.0146 c -12.93535,0.008 -23.62282,-0.0497 -23.74993,-0.12825 -0.1271,-0.0786 -1.05718,-0.14083 -2.06684,-0.13839 -1.00965,0.003 -2.48075,-0.13866 -3.26911,-0.31355 -0.78835,-0.17489 -1.94938,-0.43247 -2.58007,-0.57241 -0.63068,-0.13993 -2.30772,-0.65219 -3.72676,-1.13835 -1.41904,-0.48616 -2.77357,-0.91878 -3.01008,-0.96138 -0.2365,-0.0426 -0.72027,-0.23693 -1.07503,-0.43185 -0.35476,-0.19493 -0.64501,-0.26538 -0.64501,-0.15656 0,0.10882 -0.22576,-9e-5 -0.50168,-0.24202 -0.78891,-0.69171 -2.35393,-1.40975 -2.66016,-1.22049 -0.15304,0.0946 -0.27825,0.0375 -0.27825,-0.1268 0,-0.16432 -0.62996,-0.61798 -1.39991,-1.00815 -4.73362,-2.39871 -11.90394,-8.36976 -15.50233,-12.90949 -2.07048,-2.61212 -4.885,-6.71978 -4.885,-7.12943 0,-0.19965 -0.40259,-0.99781 -0.89464,-1.7737 -0.49205,-0.77588 -1.07592,-2.02113 -1.29748,-2.76721 -0.22156,-0.74608 -0.52849,-1.43417 -0.68207,-1.52908 -0.15357,-0.0949 -0.27922,-0.55921 -0.27922,-1.03176 v -0.85918 l 5.2318,0.17545 c 6.58488,0.22083 13.44469,-0.30427 15.66271,-1.19892 l 0.684,-0.2759 -0.82733,-0.31299 c -1.75057,-0.66228 -2.76625,-0.9227 -3.01032,-0.77186 -0.13955,0.0862 -0.25374,0.0146 -0.25374,-0.15934 0,-0.17389 -0.16125,-0.28344 -0.35834,-0.24344 -0.19709,0.04 -0.65127,-0.0893 -1.00929,-0.28737 -0.35801,-0.19804 -0.77727,-0.282 -0.93169,-0.18656 -0.15441,0.0954 -0.28075,0.0544 -0.28075,-0.0911 0,-0.14555 -0.61276,-0.49485 -1.3617,-0.77621 -6.79947,-2.55443 -14.31464,-7.90565 -19.2024,-13.67319 -1.22457,-1.44498 -2.50307,-2.91786 -2.8411,-3.27305 -0.33804,-0.3552 -0.54533,-0.71509 -0.46065,-0.79977 0.0847,-0.0847 -0.058,-0.23531 -0.31708,-0.33472 -0.25907,-0.0994 -0.47104,-0.36046 -0.47104,-0.5801 0,-0.21963 -0.15051,-0.39934 -0.33446,-0.39934 -0.18394,0 -0.25577,-0.0787 -0.15962,-0.17483 0.19225,-0.19225 -1.12308,-2.42267 -1.62716,-2.75919 -0.17352,-0.11584 -0.21657,-0.21259 -0.0957,-0.215 0.27382,-0.005 -1.10432,-2.76383 -1.50441,-3.0111 -0.16067,-0.0993 -0.29213,-0.48623 -0.29213,-0.85984 0,-0.3736 -0.17162,-0.85091 -0.38138,-1.06066 -0.20976,-0.20976 -0.333,-0.52651 -0.27388,-0.70389 0.0591,-0.17738 -0.0699,-0.49989 -0.28667,-0.71669 -0.2168,-0.2168 -0.34081,-0.55428 -0.27558,-0.74996 0.0652,-0.19568 -0.0171,-0.35578 -0.18297,-0.35578 -0.16587,0 -0.22732,-0.19351 -0.13656,-0.43001 0.0908,-0.23651 0.0263,-0.43001 -0.14334,-0.43001 -0.16959,0 -0.23409,-0.19351 -0.14333,-0.43001 0.0908,-0.23651 0.0545,-0.43027 -0.0807,-0.43059 -0.13512,-2.8e-4 -0.27519,-0.41866 -0.31127,-0.92966 -0.0361,-0.511 -0.18363,-0.96845 -0.32791,-1.01653 -0.14427,-0.0481 -0.19646,-0.33927 -0.11598,-0.64705 0.0805,-0.30778 0.0345,-0.56027 -0.1021,-0.56109 -0.13664,-8.6e-4 -0.27957,-0.54151 -0.31762,-1.20154 -0.038,-0.66003 -0.18922,-1.3201 -0.33594,-1.46682 -0.14672,-0.14672 -0.19854,-0.44454 -0.11515,-0.66184 0.0834,-0.21729 0.0522,-0.62083 -0.0693,-0.89675 -0.25876,-0.58762 -0.30916,-1.00925 -0.56544,-4.73013 -0.10588,-1.53729 -0.11984,-2.79507 -0.031,-2.79507 0.25953,0 3.14515,1.12375 3.69778,1.44003 1.05221,0.6022 7.1959,2.56452 9.7418,3.11158 2.2204,0.47712 7.32685,1.18187 8.56349,1.18187 0.2066,0 0.13661,-0.2274 -0.17647,-0.57335 -0.28538,-0.31534 -0.66135,-0.57334 -0.8355,-0.57334 -0.17414,0 -0.48559,-0.27057 -0.69211,-0.60127 -0.20653,-0.33069 -0.43557,-0.5412 -0.50898,-0.46778 -0.2287,0.2287 -6.3805,-5.8195 -8.12547,-7.98863 -0.91235,-1.13412 -2.40793,-3.20445 -3.32352,-4.60072 -0.91558,-1.39628 -1.77203,-2.58196 -1.90321,-2.63485 -0.13119,-0.0529 -0.1656,-0.21414 -0.0765,-0.35834 0.0891,-0.1442 0.0254,-0.26219 -0.14155,-0.26219 -0.16698,0 -0.3036,-0.2293 -0.3036,-0.50956 0,-0.28026 -0.22279,-0.82765 -0.4951,-1.21642 -0.27231,-0.38877 -0.52016,-0.83674 -0.55079,-0.99548 -0.0473,-0.24531 -2.07443,-5.725916 -2.59849,-7.025458 -0.0954,-0.236506 -0.1484,-0.540344 -0.11783,-0.675192 0.0306,-0.134849 -0.0768,-0.404727 -0.23868,-0.599725 -0.16183,-0.194999 -0.21248,-0.43631 -0.11254,-0.536244 0.0999,-0.09994 0.0489,-0.346073 -0.11341,-0.546972 -0.28291,-0.350167 -0.63578,-1.982618 -0.82256,-3.805361 -0.12003,-1.171313 -0.0811,-13.799961 0.0463,-15.050392 0.0563,-0.551848 0.24393,-1.712878 0.41705,-2.580067 0.17311,-0.867189 0.38896,-1.963718 0.47968,-2.43673 0.0907,-0.473013 0.27758,-1.00207 0.41527,-1.175683 0.13768,-0.173614 0.27861,-0.657376 0.31318,-1.075028 0.0346,-0.417652 0.16937,-0.759368 0.29956,-0.759368 0.1302,0 0.204,-0.161254 0.164,-0.358342 -0.04,-0.197089 0.0827,-0.638852 0.2726,-0.981697 0.18993,-0.342845 0.3866,-0.858858 0.43706,-1.146697 0.13201,-0.753078 3.02923,-6.400553 3.28231,-6.39812 0.11681,0.0011 0.67807,0.484886 1.24723,1.075028 6.11509,6.340483 17.7919,17.843423 18.11313,17.843423 0.0951,0 0.5344,0.338539 0.97612,0.75231 0.44171,0.413774 1.25463,1.048597 1.80648,1.410721 0.55185,0.362124 1.39037,1.005002 1.86338,1.428617 0.47301,0.423616 1.50504,1.186473 2.29339,1.695239 0.78836,0.50877 1.61042,1.139894 1.82682,1.402499 0.21639,0.262608 0.5389,0.477625 0.71668,0.477817 0.17779,1.92e-4 0.69544,0.320442 1.15034,0.711663 0.45491,0.391221 1.48693,1.121506 2.2934,1.622854 0.80646,0.501347 2.64935,1.664636 4.09531,2.585089 1.44597,0.920451 2.69662,1.673549 2.77924,1.673549 0.0826,0 1.70974,0.852767 3.61584,1.895037 13.06745,7.145364 28.7611,12.53135 43.72394,15.00584 5.2104,0.86167 12.841,1.73294 15.17717,1.73294 1.24353,0 1.26789,-0.0181 1.24968,-0.93169 -0.0102,-0.51243 -0.11432,-1.06069 -0.23134,-1.21836 -0.42574,-0.57363 -0.59087,-3.02031 -0.57208,-8.476431 0.0199,-5.78314 0.0898,-6.920525 0.56911,-9.257479 0.15718,-0.766414 0.2204,-1.499271 0.14049,-1.628567 -0.0799,-0.129298 -0.0224,-0.311044 0.12782,-0.403878 0.15021,-0.09284 0.27178,-0.392006 0.27015,-0.664826 -0.005,-0.772217 1.48557,-5.498937 2.22519,-7.058152 0.36577,-0.77109 0.59651,-1.512859 0.51276,-1.648376 -0.0838,-0.135517 -0.0157,-0.246394 0.15131,-0.246394 0.16698,0 0.27492,-0.09675 0.23989,-0.215005 -0.035,-0.118253 0.27857,-0.795521 0.69692,-1.505039 0.41835,-0.709519 0.80178,-1.483539 0.85207,-1.720045 0.0503,-0.236506 0.1668,-0.494513 0.25892,-0.573348 0.0921,-0.07884 0.95678,-1.322563 1.92144,-2.763839 3.46545,-5.177599 7.27002,-9.196942 12.23776,-12.928611 1.58056,-1.187286 2.91702,-2.271105 2.9699,-2.408485 0.0529,-0.13738 0.20944,-0.179771 0.34789,-0.0942 0.13845,0.08557 0.51444,-0.107132 0.83554,-0.428225 0.32109,-0.321092 0.5838,-0.517681 0.5838,-0.436863 0,0.2246 4.08405,-1.866401 4.68855,-2.4005 0.29248,-0.258415 0.55049,-0.406303 0.57335,-0.328639 0.0719,0.244141 2.4783,-0.649853 2.4783,-0.920696 0,-0.141739 0.12009,-0.183488 0.26687,-0.09277 0.14678,0.09071 0.34441,0.03946 0.43919,-0.113899 0.0948,-0.153356 0.3617,-0.20616 0.59316,-0.117342 0.23145,0.08882 0.42108,0.05093 0.4214,-0.08419 2.9e-4,-0.135122 0.40984,-0.274501 0.91007,-0.309731 0.50022,-0.03523 0.98372,-0.1647 1.07445,-0.287711 0.0907,-0.123011 0.55197,-0.268416 1.02499,-0.323122 0.47301,-0.05471 0.98902,-0.179262 1.14669,-0.276792 0.15767,-0.09753 0.57693,-0.139824 0.93169,-0.09399 0.35476,0.04584 0.64547,-0.02264 0.64602,-0.152182 5.8e-4,-0.129537 0.73859,-0.27564 1.64007,-0.324673 0.90149,-0.04903 1.77577,-0.202601 1.94284,-0.341262 0.16708,-0.138661 1.97686,-0.292049 4.02175,-0.34086 3.21734,-0.0768 5.34782,0.04379 9.16478,0.518757 1.42956,0.177887 6.82483,1.429713 7.68327,1.782692 0.4417,0.181622 1.19001,0.398387 1.66291,0.481701 0.47291,0.08331 1.07904,0.262439 1.34697,0.398056 0.26792,0.135618 0.80965,0.376488 1.20382,0.535267 2.5648,1.033129 6.22093,3.026596 8.39996,4.579996 0.71881,0.51243 1.43419,0.931691 1.58973,0.931691 0.15554,0 0.3258,0.10779 0.37836,0.239533 0.0887,0.222253 2.56216,2.419522 5.64269,5.012556 1.53494,1.29203 1.60974,1.291016 6.77986,-0.09189 1.89205,-0.506089 3.8271,-1.019047 4.30011,-1.139907 1.70953,-0.436806 4.90383,-1.52723 6.30683,-2.152937 0.78835,-0.351589 1.94938,-0.817597 2.58007,-1.035574 0.63068,-0.217977 3.56099,-1.590827 6.51179,-3.050779 2.9508,-1.459951 5.48786,-2.654457 5.63792,-2.654457 0.70185,0 0.33925,1.052698 -1.87554,5.44499 -3.63901,7.216745 -7.08921,11.655826 -13.12879,16.891706 -1.65202,1.432174 -3.10459,2.609197 -3.22794,2.615604 -0.50361,0.02617 -2.12029,1.654385 -1.8243,1.837323 0.1705,0.10537 0.42509,0.120449 0.56576,0.03351 0.14067,-0.08694 2.04347,-0.485781 4.22844,-0.886319 5.76582,-1.056953 15.28722,-3.664906 18.30639,-5.014194 0.31534,-0.140928 1.25777,-0.450728 2.0943,-0.688443 1.50857,-0.42869 1.51938,-0.427256 1.32789,0.176081 -0.43369,1.366431 -8.05141,10.090635 -13.28006,15.209004 -3.02003,2.956327 -5.61622,5.37514 -5.76932,5.37514 -0.1531,0 -0.4395,0.258006 -0.63643,0.573348 -0.19693,0.315341 -0.51322,0.573348 -0.70286,0.573348 -0.18964,0 -0.54562,0.286712 -0.79107,0.637136 -0.24544,0.350422 -0.45055,0.511676 -0.4558,0.358343 -0.005,-0.153336 -0.24723,0.006 -0.53776,0.354034 -0.29052,0.348054 -0.59035,0.570691 -0.6663,0.494751 -0.0759,-0.07594 -0.31771,0.07836 -0.53726,0.342896 -0.31448,0.378898 -0.40846,1.977352 -0.44287,7.532119 -0.0573,9.2574 -0.12199,10.90122 -0.43645,11.09557 -0.14445,0.0893 -0.25621,0.76384 -0.24837,1.49904 0.008,0.7352 -0.0638,1.98174 -0.15917,2.7701 -0.0954,0.78835 -0.20349,1.76576 -0.24026,2.17202 -0.0368,0.40626 -0.16173,0.89218 -0.2777,1.07983 -0.11597,0.18765 -0.17364,0.62928 -0.12815,0.98139 0.0455,0.35212 -0.008,0.78591 -0.119,0.96399 -0.11094,0.17807 -0.25504,0.95209 -0.32022,1.72004 -0.0652,0.76795 -0.19629,1.58978 -0.29136,1.82629 -0.0951,0.2365 -0.36295,1.59104 -0.59528,3.01008 -0.59215,3.6167 -1.02702,5.64816 -1.33723,6.24682 -0.14631,0.28234 -0.19503,0.62818 -0.10829,0.76855 0.0867,0.14036 0.0378,0.32929 -0.10868,0.41985 -0.21227,0.13119 -0.63809,1.75977 -0.72936,2.78949 -0.009,0.10511 -0.11369,0.28787 -0.23195,0.40612 -0.11825,0.11825 -0.215,0.50127 -0.215,0.85114 0,0.34988 -0.18992,1.00222 -0.42205,1.44964 -0.23213,0.44743 -0.50478,1.3652 -0.6059,2.03949 -0.10112,0.67429 -0.31201,1.22599 -0.46864,1.22599 -0.15664,0 -0.21055,0.1935 -0.11979,0.43001 0.0908,0.2365 0.0263,0.43001 -0.14333,0.43001 -0.1696,0 -0.2341,0.1935 -0.14334,0.43001 0.0908,0.23651 0.0344,0.43001 -0.12523,0.43001 -0.15964,0 -0.26479,0.16125 -0.23367,0.35834 0.0311,0.19709 -0.15674,0.83797 -0.41745,1.42417 -0.26071,0.5862 -0.47812,1.29572 -0.48313,1.5767 -0.005,0.28099 -0.19853,0.7613 -0.43002,1.06736 -0.23149,0.30606 -0.42089,0.79436 -0.42089,1.08512 0,0.29075 -0.20834,0.84661 -0.46298,1.23524 -0.25464,0.38863 -0.38067,0.7066 -0.28007,0.7066 0.10061,0 -0.007,0.29026 -0.23971,0.64501 -0.23245,0.35476 -0.43487,0.73915 -0.44982,0.85419 -0.015,0.11505 -0.34375,0.92499 -0.73067,1.79989 -0.38692,0.87489 -0.70349,1.77293 -0.70349,1.99564 0,0.2227 -0.13096,0.48585 -0.29102,0.58477 -0.27287,0.16864 -1.13211,1.9445 -1.24705,2.57738 -0.13365,0.73583 -0.85304,2.15006 -1.0937,2.15006 -0.14784,0 -0.20683,0.10029 -0.13108,0.22286 0.0758,0.12257 -0.29768,0.99334 -0.82987,1.93505 -0.53218,0.94171 -1.26382,2.29271 -1.62585,3.00223 -0.36204,0.70951 -0.94078,1.68609 -1.28609,2.17018 -0.34531,0.48408 -0.66782,1.06152 -0.71668,1.2832 -0.0489,0.22169 -0.25011,0.57661 -0.44719,0.78871 -0.19709,0.2121 -0.35835,0.56993 -0.35835,0.79518 0,0.22524 -0.12654,0.40953 -0.28121,0.40953 -0.15467,0 -0.36216,0.32251 -0.46109,0.71669 -0.0989,0.39418 -0.27458,0.71668 -0.39033,0.71668 -0.11575,0 -0.45652,0.4818 -0.75728,1.07066 -0.30075,0.58886 -0.7151,1.25012 -0.92079,1.46947 -0.68915,0.73495 -3.22948,4.62673 -3.02006,4.62673 0.11378,0 -8.6e-4,0.16125 -0.25506,0.35834 -0.25406,0.19709 -1.41559,1.64838 -2.5812,3.22508 -5.69557,7.70441 -15.94079,18.57225 -22.71566,24.09618 -1.7299,1.41049 -3.48137,2.88703 -3.89215,3.2812 -0.41078,0.39418 -0.83392,0.71669 -0.9403,0.71669 -0.10638,0 -0.80598,0.51704 -1.55465,1.14897 -0.74868,0.63193 -1.69844,1.3216 -2.11058,1.5326 -0.41213,0.211 -1.07553,0.6861 -1.47422,1.05579 -0.39869,0.36968 -0.80022,0.59682 -0.89229,0.50475 -0.0921,-0.0921 -0.24874,0.0446 -0.34816,0.30364 -0.0994,0.25908 -0.31226,0.47105 -0.47298,0.47105 -0.44887,0 -5.09324,2.91082 -5.09324,3.19214 0,0.13637 -0.0967,0.23267 -0.21501,0.214 -0.49754,-0.0786 -0.85517,0.0631 -1.37931,0.54624 -0.30566,0.28177 -0.975,0.68443 -1.48743,0.89481 -0.51243,0.21037 -0.93169,0.51735 -0.93169,0.68217 0,0.16482 -0.0794,0.22024 -0.17653,0.12315 -0.17679,-0.17679 -7.07471,3.1621 -8.42369,4.07742 -0.39418,0.26747 -1.26495,0.64389 -1.93505,0.8365 -0.6701,0.19261 -1.21837,0.44657 -1.21837,0.56436 0,0.11779 -0.22575,0.2323 -0.50168,0.25448 -0.60479,0.0486 -4.68972,1.75298 -5.07413,2.11711 -0.14979,0.14189 -0.50869,0.25797 -0.79756,0.25797 -0.28887,0 -1.00484,0.21331 -1.59104,0.47402 -0.5862,0.26071 -1.22708,0.44857 -1.42417,0.41745 -0.19709,-0.0311 -0.35834,0.0857 -0.35834,0.25958 0,0.17389 -0.14343,0.22752 -0.31872,0.11918 -0.1753,-0.10834 -0.41646,-0.0388 -0.5359,0.15441 -0.11945,0.19327 -0.55645,0.37105 -0.97111,0.39507 -0.41466,0.024 -0.75402,0.14043 -0.75413,0.25868 -1.1e-4,0.11826 -0.37034,0.21501 -0.82272,0.21501 -0.72775,0 -0.84298,-0.12385 -1.0002,-1.07503 z" id="path959" inkscape:connector-curvature="0"/>
  <path style="fill:#a0a0a0;stroke:none;stroke-width:0.28667414" d="m 233.86876,385.23401 c -33.82038,-0.11477 -69.24205,-0.24587 -78.71483,-0.29133 l -17.22322,-0.0827 -1.4106,-0.86757 c -0.87933,-0.54083 -1.81509,-1.4728 -2.48461,-2.47455 l -1.07403,-1.60697 -0.003,-79.44958 c -0.003,-74.01038 0.0301,-79.50308 0.48015,-80.23095 0.82302,-1.33091 2.47813,-2.9514 3.67765,-3.60072 1.13051,-0.61196 1.40167,-0.62325 19.20716,-0.80002 23.30895,-0.23141 99.10092,-0.23141 122.40986,0 17.83247,0.17704 18.07519,0.18718 19.22672,0.80356 1.0287,0.55062 2.0871,1.56369 3.58317,3.42968 0.24712,0.30822 0.39762,0.71546 0.33445,0.90497 -0.0632,0.18951 -0.003,0.34456 0.13428,0.34456 0.13702,0 0.29403,0.22576 0.34891,0.50168 0.0549,0.27592 0.11673,35.39709 0.13746,78.04703 0.0207,42.64995 -0.0289,68.96663 -0.11024,58.48153 l -0.14794,-19.06383 -0.1431,20.37652 -0.14311,20.37653 -0.86002,1.38488 c -0.49111,0.79083 -1.47487,1.79533 -2.29339,2.34176 -0.78836,0.52628 -1.59463,1.09126 -1.79172,1.25549 -0.19708,0.16424 -0.35834,0.23222 -0.35834,0.15108 0,-0.0811 -0.29026,-0.0519 -0.64501,0.065 -0.35476,0.1169 -28.31624,0.11866 -62.13662,0.004 z m -4.69804,-16.98904 c 0.52369,-0.38287 0.5438,-1.36474 0.61939,-30.24293 l 0.0781,-29.84721 9.61358,0.0314 c 7.17122,0.0234 9.7204,-0.0573 10.03407,-0.31759 0.23126,-0.19194 0.36315,-0.40631 0.29307,-0.47639 -0.0701,-0.0701 0.0507,-0.72896 0.26841,-1.46419 0.2177,-0.73523 0.4027,-1.59478 0.41112,-1.91012 0.008,-0.31534 0.0897,-1.08936 0.18059,-1.72005 0.25515,-1.77018 0.44787,-3.3528 0.52708,-4.32828 0.0397,-0.4885 0.16575,-1.03969 0.28019,-1.22485 0.11443,-0.18516 0.17115,-0.68857 0.12603,-1.1187 -0.0451,-0.43012 0.003,-0.91918 0.10632,-1.0868 0.16383,-0.26508 0.43284,-2.55054 0.64227,-5.45655 0.0352,-0.4885 0.15261,-1.03155 0.26091,-1.20678 0.10829,-0.17522 0.1935,-0.74306 0.18934,-1.26186 -0.004,-0.5188 0.056,-1.78926 0.13379,-2.82325 0.15866,-2.11034 -0.17916,-2.87913 -1.31552,-2.99371 -0.38148,-0.0385 -5.43449,-0.0864 -11.22889,-0.10653 l -10.53527,-0.0366 0.0101,-4.8018 c 0.006,-2.64098 0.12796,-6.5098 0.27199,-8.59736 0.31934,-4.62834 0.81207,-5.96669 2.63097,-7.1462 0.68403,-0.44357 1.3082,-0.87221 1.38703,-0.95252 0.25819,-0.26302 0.7659,-0.28734 9.81425,-0.47016 9.97516,-0.20156 9.49829,-0.0921 9.82727,-2.25593 0.0959,-0.63068 0.13414,-5.8991 0.085,-11.70758 l -0.0893,-10.56089 -0.67919,-0.54969 c -0.37355,-0.30232 -1.01856,-0.55864 -1.43337,-0.56959 -0.4148,-0.011 -1.5282,-0.0789 -2.47423,-0.15096 -5.11587,-0.38974 -8.33509,-0.49685 -13.90369,-0.4626 -7.44626,0.0458 -7.48806,0.0471 -8.02688,0.25279 -0.2365,0.0903 -0.93479,0.21538 -1.55174,0.27802 -0.61695,0.0626 -1.27384,0.24011 -1.45975,0.39441 -0.18591,0.15429 -0.405,0.21353 -0.48688,0.13165 -0.0819,-0.0819 -0.52152,0.005 -0.97699,0.19347 -0.45546,0.18829 -0.92486,0.36928 -1.04312,0.4022 -0.11825,0.0329 -0.24725,0.0856 -0.28667,0.11699 -0.0394,0.0314 -0.38858,0.11531 -0.77591,0.18642 -0.38733,0.0711 -0.77434,0.22276 -0.86002,0.33704 -0.0857,0.11427 -0.41379,0.25148 -0.72913,0.30491 -0.78389,0.13282 -3.29675,1.51381 -3.29675,1.81179 0,0.13262 -0.0968,0.20967 -0.21501,0.17123 -0.31687,-0.103 -2.36506,1.21909 -2.36506,1.52664 0,0.14481 -0.14917,0.26329 -0.33149,0.26329 -0.80136,0 -7.42204,7.4428 -6.63413,7.45792 0.12583,0.002 0.0842,0.0992 -0.0926,0.215 -0.38901,0.25495 -2.19963,3.79405 -1.94105,3.79405 0.10041,0 0.0371,0.17529 -0.14073,0.38954 -0.33736,0.4065 -1.47985,3.52704 -1.41384,3.86169 0.0208,0.10572 -0.04,0.38572 -0.13531,0.62223 -0.67589,1.67786 -0.82013,3.64155 -0.94759,12.90033 -0.077,5.59732 -0.20652,10.72015 -0.28772,11.38409 l -0.14763,1.20715 -9.22936,0.0829 c -6.5019,0.0584 -9.46233,0.18668 -10.01771,0.43413 l -0.78835,0.35125 0.005,12.83576 0.005,12.83576 0.68047,0.64502 c 0.67751,0.64222 0.72167,0.64502 10.17198,0.64502 h 9.49149 v 28.91825 c 0,15.90504 0.0828,29.33232 0.18403,29.8384 0.11068,0.55338 0.42491,1.0186 0.78835,1.16716 0.33238,0.13585 6.35941,0.24892 13.39341,0.25126 10.42814,0.003 12.889,-0.0688 13.33035,-0.39147 z" id="path961" inkscape:connector-curvature="0"/>
  <path style="fill:#ffffff;stroke:none;stroke-width:0.28667414;fill-opacity:0.94117647" d="m 230.71534,385.25766 c -89.61156,-0.24357 -93.45577,-0.26508 -93.45577,-0.52296 0,-0.12568 -0.51583,-0.56986 -1.14629,-0.98708 -0.63046,-0.41722 -1.59753,-1.43819 -2.14904,-2.26884 l -1.00276,-1.51026 -0.003,-79.50594 -0.003,-79.50593 0.59105,-0.95633 c 1.05575,-1.70825 3.2857,-3.46802 4.93039,-3.89084 2.2784,-0.58573 155.86501,-0.57496 158.14921,0.0111 1.21619,0.31203 1.86805,0.71557 3.01007,1.86338 1.83882,1.84813 2.46341,2.65723 2.23082,2.88982 -0.10074,0.10073 0.007,0.30043 0.23855,0.44377 0.36947,0.22833 0.42248,9.91328 0.42794,78.17478 0.003,42.85279 -0.063,71.722 -0.14752,64.15381 l -0.15374,-13.76036 -0.0675,14.91974 -0.0675,14.91973 -0.93169,1.55695 c -0.97971,1.6372 -3.72118,3.8065 -5.09834,4.03427 -0.38875,0.0643 -29.79707,0.0378 -65.35183,-0.0588 z m -1.52864,-16.97642 c 0.49451,-0.494 0.61196,-6.54041 0.63989,-32.94041 l 0.0287,-27.15861 9.80606,-0.0754 9.80607,-0.0754 0.3809,-1.29003 c 0.20949,-0.70952 0.44606,-1.80605 0.52569,-2.43673 0.0796,-0.63068 0.21099,-1.59821 0.29191,-2.15005 0.0809,-0.55185 0.20896,-1.48683 0.28453,-2.07773 0.0756,-0.5909 0.21245,-1.62292 0.30417,-2.29339 0.0917,-0.67047 0.19704,-1.60604 0.23405,-2.07905 0.037,-0.47302 0.15043,-1.1202 0.25202,-1.4382 0.1016,-0.318 0.2584,-1.41453 0.34846,-2.43673 0.0901,-1.02221 0.23295,-2.37457 0.31753,-3.00525 0.0846,-0.63068 0.19843,-1.79172 0.25299,-2.58007 0.0546,-0.78835 0.16947,-1.90094 0.25535,-2.47241 0.0859,-0.57147 0.0216,-1.42506 -0.1429,-1.89686 -0.26685,-0.7655 -0.45944,-0.8771 -1.78935,-1.03686 -0.81967,-0.0985 -5.90867,-0.18015 -11.30889,-0.18152 l -9.81859,-0.002 0.007,-5.08847 c 0.004,-2.79866 0.12999,-6.67656 0.28092,-8.61756 0.33695,-4.3331 0.85938,-5.69395 2.62565,-6.83933 0.68403,-0.44357 1.3082,-0.87221 1.38703,-0.95252 0.26379,-0.26872 0.85508,-0.29909 8.68751,-0.44618 8.88638,-0.16689 10.03718,-0.26535 10.56789,-0.90422 0.29855,-0.35939 0.40128,-2.71568 0.4712,-10.8079 0.0492,-5.69156 0.008,-10.90587 -0.0923,-11.58733 -0.21628,-1.47441 -1.00101,-2.35752 -2.07971,-2.34046 -0.43126,0.007 -1.88065,-0.0826 -3.22085,-0.1988 -3.03401,-0.26299 -20.62884,-0.27375 -22.30249,-0.0136 -0.67757,0.1053 -1.35697,0.26873 -1.50977,0.36316 -0.15281,0.0944 -0.63046,0.23101 -1.06145,0.30349 -0.43099,0.0725 -0.97713,0.21367 -1.21364,0.31374 -0.2365,0.10008 -0.52676,0.20923 -0.64501,0.24256 -0.11826,0.0333 -0.24726,0.0863 -0.28668,0.11773 -0.0394,0.0314 -0.38857,0.11531 -0.77591,0.18641 -0.38733,0.0711 -0.80461,0.28727 -0.9273,0.48037 -0.12268,0.19311 -0.22503,0.2525 -0.22745,0.13197 -0.005,-0.2351 -3.49177,1.44171 -3.73115,1.79418 -0.0788,0.11608 -0.40134,0.29419 -0.71669,0.39579 -0.54187,0.17459 -1.23886,0.72371 -3.58342,2.82323 -1.57609,1.41135 -4.60028,4.85924 -5.1191,5.83629 -2.1313,4.0137 -3.94732,8.34952 -3.63001,8.66682 0.0791,0.0792 0.03,0.28479 -0.10921,0.45696 -0.25512,0.31553 -0.81507,2.9765 -0.8501,4.03982 -0.0104,0.31534 -0.0945,5.02396 -0.18695,10.4636 -0.0924,5.43965 -0.22401,10.16343 -0.29241,10.4973 -0.12281,0.59951 -0.23909,0.60883 -9.37366,0.7512 -5.74208,0.0895 -9.54825,0.26425 -10.03767,0.46089 l -0.78835,0.31674 v 12.82663 12.82664 l 0.76127,0.65414 c 0.75917,0.65233 0.78737,0.65415 10.17169,0.65415 h 9.41041 l 0.0769,29.48345 c 0.0821,31.48535 0.0221,30.2298 1.45943,30.52539 1.13467,0.23334 25.94272,0.0543 26.18626,-0.18897 z" id="path963" inkscape:connector-curvature="0"/>
</svg>