<!-- Generator: Adobe Illustrator 16.0.0, SVG Export Plug-In . SVG Version: 6.00 Build 0)  --><svg xmlns:cc="http://creativecommons.org/ns#" xmlns="http://www.w3.org/2000/svg" xmlns:inkscape="http://www.inkscape.org/namespaces/inkscape" xmlns:rdf="http://www.w3.org/1999/02/22-rdf-syntax-ns#" xmlns:svg="http://www.w3.org/2000/svg" xmlns:sodipodi="http://sodipodi.sourceforge.net/DTD/sodipodi-0.dtd" xmlns:dc="http://purl.org/dc/elements/1.1/" version="1.1" id="Layer_1" x="0px" y="0px" width="512px" height="512px" viewBox="0 0 512 512" enable-background="new 0 0 512 512" xml:space="preserve" sodipodi:docname="phone.svg" inkscape:version="0.92.4 (33fec40, 2019-01-16)"><metadata id="metadata9"><rdf:RDF><cc:Work rdf:about=""><dc:format>image/svg+xml</dc:format><dc:type rdf:resource="http://purl.org/dc/dcmitype/StillImage"/></cc:Work></rdf:RDF></metadata><defs id="defs7"/><sodipodi:namedview pagecolor="#ffffff" bordercolor="#666666" borderopacity="1" objecttolerance="10" gridtolerance="10" guidetolerance="10" inkscape:pageopacity="0" inkscape:pageshadow="2" inkscape:window-width="3840" inkscape:window-height="2086" id="namedview5" showgrid="false" inkscape:zoom="0.4609375" inkscape:cx="256" inkscape:cy="256" inkscape:window-x="0" inkscape:window-y="0" inkscape:window-maximized="1" inkscape:current-layer="Layer_1"/>
<path d="M256,32c123.5,0,224,100.5,224,224S379.5,480,256,480S32,379.5,32,256S132.5,32,256,32 M256,0C114.625,0,0,114.625,0,256  s114.625,256,256,256s256-114.625,256-256S397.375,0,256,0L256,0z M398.719,341.594l-1.438-4.375  c-3.375-10.063-14.5-20.563-24.75-23.375L334.688,303.5c-10.25-2.781-24.875,0.969-32.406,8.5l-13.688,13.688  c-49.75-13.469-88.781-52.5-102.219-102.25l13.688-13.688c7.5-7.5,11.25-22.125,8.469-32.406L198.219,139.5  c-2.781-10.25-13.344-21.375-23.406-24.75l-4.313-1.438c-10.094-3.375-24.5,0.031-32,7.563l-20.5,20.5  c-3.656,3.625-6,14.031-6,14.063c-0.688,65.063,24.813,127.719,70.813,173.75c45.875,45.875,108.313,71.344,173.156,70.781  c0.344,0,11.063-2.281,14.719-5.938l20.5-20.5C398.688,366.063,402.063,351.656,398.719,341.594z" id="path2"/>
<path style="fill:#ffffff;stroke-width:2.16949153" d="M 212.25189,507.0157 C 159.51856,497.45677 114.17648,473.65827 76.042153,435.52395 -2.9237009,356.5581 -21.373891,237.33077 30.070322,138.44848 56.653657,87.351953 105.77192,42.272312 158.11441,20.932495 258.40553,-19.955785 367.48913,3.5963097 441.45456,82.108095 515.2599,160.44996 531.78409,274.70095 483.2043,370.77239 446.76762,442.82956 378.81298,493.1371 299.15108,507.02898 c -22.42389,3.9104 -65.28981,3.90385 -86.89919,-0.013 z m 104.24239,-34.62619 c 40.08977,-11.65184 72.6298,-31.14648 100.35965,-60.12518 C 461.83526,365.2572 483.41658,308.08502 480.11676,244.67154 476.00423,165.64005 433.14033,97.326358 363.09304,58.166747 355.61967,53.988788 339.25424,47.172593 326.72542,43.019648 196.25533,-0.22747399 60.40363,80.474774 34.830748,216.41871 c -4.826003,25.65474 -3.404902,70.69028 2.986156,94.63307 21.003873,78.68672 79.783476,138.81923 157.654286,161.28297 36.07461,10.4066 85.32944,10.4289 121.02309,0.0547 z" id="path11" inkscape:connector-curvature="0"/><path style="fill:#ffffff;stroke-width:2.16949153" d="m 332.14915,398.10354 c -100.39203,-9.10911 -186.35924,-82.6626 -211.64788,-181.08576 -5.14753,-20.03415 -8.41455,-56.71796 -5.91151,-66.37752 2.46912,-9.52864 29.4698,-34.5393 39.27288,-36.37837 12.57572,-2.35922 22.78231,0.63869 32.25389,9.47369 7.52828,7.02229 9.40929,10.87357 14.94936,30.60812 6.68486,23.81241 7.92667,38.52153 3.91463,46.36842 -1.33258,2.6063 -6.32175,8.79062 -11.08704,13.74293 -8.51795,8.85224 -8.61907,9.14515 -5.99179,17.35593 6.24772,19.52537 18.55459,38.92904 35.74087,56.35096 14.50567,14.70454 20.82094,19.28971 38.09817,27.66101 11.39062,5.51907 22.6703,10.03468 25.06594,10.03468 2.39565,0 7.72012,-3.50025 11.83215,-7.77832 15.26045,-15.87664 23.96156,-17.06154 57.09225,-7.77466 32.87446,9.21506 44.63575,21.91343 41.99511,45.34109 -0.94774,8.40843 -2.99516,11.68538 -14.89721,23.84363 -19.0987,19.5098 -23.39959,21.08945 -50.67982,18.61417 z" id="path13" inkscape:connector-curvature="0"/></svg>