<!-- Created with Inkscape (http://www.inkscape.org/) --><svg xmlns:cc="http://creativecommons.org/ns#" xmlns="http://www.w3.org/2000/svg" xmlns:inkscape="http://www.inkscape.org/namespaces/inkscape" xmlns:rdf="http://www.w3.org/1999/02/22-rdf-syntax-ns#" xmlns:svg="http://www.w3.org/2000/svg" xmlns:sodipodi="http://sodipodi.sourceforge.net/DTD/sodipodi-0.dtd" xmlns:dc="http://purl.org/dc/elements/1.1/" version="1.1" id="svg850" xml:space="preserve" width="243.22667" height="80.519997" viewBox="0 0 243.22667 80.519997" sodipodi:docname="snf_light.svg" inkscape:version="0.92.3 (2405546, 2018-03-11)"><metadata id="metadata856"><rdf:RDF><cc:Work rdf:about=""><dc:format>image/svg+xml</dc:format><dc:type rdf:resource="http://purl.org/dc/dcmitype/StillImage"/><dc:title/></cc:Work></rdf:RDF></metadata><defs id="defs854"/><sodipodi:namedview pagecolor="#ffffff" bordercolor="#666666" borderopacity="1" objecttolerance="10" gridtolerance="10" guidetolerance="10" inkscape:pageopacity="0" inkscape:pageshadow="2" inkscape:window-width="1853" inkscape:window-height="1025" id="namedview852" showgrid="false" inkscape:zoom="5.6038263" inkscape:cx="121.61333" inkscape:cy="40.259998" inkscape:window-x="67" inkscape:window-y="27" inkscape:window-maximized="1" inkscape:current-layer="g858"/><g id="g858" inkscape:groupmode="layer" inkscape:label="ink_ext_XXXXXX" transform="matrix(1.3333333,0,0,-1.3333333,0,80.52)"><g id="g860" transform="scale(0.1)"><path d="m 386.813,362.297 h -24.899 v -20.902 h 20.402 v -7.793 h -20.402 v -32.301 h -9.703 v 68.894 h 35.906 l -1.304,-7.898" style="fill:#1e5cb3;fill-opacity:1;fill-rule:nonzero;stroke:none" id="path862" inkscape:connector-curvature="0"/><path d="m 397.012,307.195 c -5,5.305 -7.301,11.797 -7.301,20.5 0,16.809 9.199,27 24.305,27 8.496,0 14.597,-2.8 18.996,-8.203 3.801,-4.394 5.699,-10.594 5.699,-18.992 0,-8.508 -1.699,-14.504 -5.398,-19.004 -4.403,-5.5 -10,-8.098 -18.7,-8.098 -7.898,0 -13.203,2.102 -17.601,6.797 z M 426.41,315 c 1.301,3.203 1.699,6.395 1.699,11.797 0,6.504 -0.695,10.703 -2.296,14.004 -2.399,4.695 -6.399,6.601 -12,6.601 -4.797,0 -8.899,-2.097 -11,-5.507 -1.899,-3.094 -2.7,-7.391 -2.7,-13.594 0,-7 1.2,-12.199 3.301,-15.801 1.899,-3.301 5.899,-5.098 11.199,-5.098 5.899,0 9.899,2.395 11.797,7.598" style="fill:#1e5cb3;fill-opacity:1;fill-rule:nonzero;stroke:none" id="path864" inkscape:connector-curvature="0"/><path d="m 481.113,301.301 -15,26.297 c -3.101,5.207 -6.601,12.597 -7,13.601 0.2,-2.703 0.496,-8.105 0.598,-14.707 l 0.402,-25.191 h -9.3 v 52.594 h 10.597 l 15.301,-26.493 c 3.098,-5.398 5.598,-10.8 6.301,-12.207 -0.102,1.2 -0.801,7.899 -0.903,14.102 l -0.296,24.598 h 9 v -52.594 h -9.7" style="fill:#1e5cb3;fill-opacity:1;fill-rule:nonzero;stroke:none" id="path866" inkscape:connector-curvature="0"/><path d="m 532.406,352.098 c 7.805,-2.403 15.106,-8.895 15.106,-24.5 0,-17.004 -10.602,-24.2 -17.102,-25.594 -2.301,-0.609 -5.504,-0.703 -9.398,-0.703 h -15.305 v 52.594 h 11.805 c 5.496,0 10.597,0 14.894,-1.797 z m 0.907,-10.496 c -3.102,3.703 -6.602,4.793 -12.004,4.793 h -6.2 v -37.5 h 7.297 c 1.707,0 3.606,0.207 5,0.609 5.602,1.394 9.801,6.297 9.801,17.391 0,6.906 -1.098,11.406 -3.894,14.707" style="fill:#1e5cb3;fill-opacity:1;fill-rule:nonzero;stroke:none" id="path868" inkscape:connector-curvature="0"/><path d="m 586.809,303.301 c -3.801,-2.102 -8.496,-3.106 -13.899,-3.106 -6.703,0 -13.5,1.602 -19.402,4.707 l 3.601,7.293 c 5.5,-2.898 10.5,-4.297 16.301,-4.297 3.5,0 5.801,0.5 7.899,1.7 2.5,1.398 3.902,3.398 3.902,5.996 0,3.801 -2.699,6.203 -9.301,7.902 l -7.5,1.902 c -4.801,1.301 -8.504,3.594 -10.601,6.797 -1.5,2.2 -2.301,4.602 -2.301,7.309 0,9.297 8.301,15.801 20,15.801 6.801,0 14.199,-2.004 18.902,-5.207 l -4.301,-6.7 c -4.699,2.801 -9.5,4.2 -14.199,4.2 -6.101,0 -10.203,-2.598 -10.203,-6.797 0,-3.301 2.301,-5.098 8.301,-6.809 l 7.199,-1.797 c 4.102,-1.093 8.203,-2.898 10.602,-5.398 2.402,-2.402 3.8,-5.899 3.8,-9.5 0,-5.805 -3.3,-11.098 -8.8,-13.996" style="fill:#1e5cb3;fill-opacity:1;fill-rule:nonzero;stroke:none" id="path870" inkscape:connector-curvature="0"/><path d="m 654.805,301.301 -15,26.297 c -3.094,5.207 -6.598,12.597 -6.996,13.601 0.199,-2.703 0.496,-8.105 0.601,-14.707 l 0.399,-25.191 h -9.301 v 52.594 h 10.601 l 15.297,-26.493 c 3.102,-5.398 5.602,-10.8 6.305,-12.207 -0.106,1.2 -0.801,7.899 -0.906,14.102 l -0.297,24.598 h 9 v -52.594 h -9.703" style="fill:#1e5cb3;fill-opacity:1;fill-rule:nonzero;stroke:none" id="path872" inkscape:connector-curvature="0"/><path d="m 711.305,301.301 -5,13.699 h -19.7 l -5,-13.699 h -9.699 l 19.598,52.691 h 10.902 l 19.199,-52.691 z m -14.7,44.195 c -0.3,-1.394 -7.199,-21.601 -7.601,-22.996 h 15.101 c -0.597,1.797 -7.199,21.602 -7.5,22.996" style="fill:#1e5cb3;fill-opacity:1;fill-rule:nonzero;stroke:none" id="path874" inkscape:connector-curvature="0"/><path d="m 762.707,346.199 h -15.203 v -44.898 h -9.301 v 44.898 h -15 v 7.696 h 40.801 l -1.297,-7.696" style="fill:#1e5cb3;fill-opacity:1;fill-rule:nonzero;stroke:none" id="path876" inkscape:connector-curvature="0"/><path d="m 772.102,301.301 h 9.5 v 52.5938 h -9.5 z" style="fill:#1e5cb3;fill-opacity:1;fill-rule:nonzero;stroke:none" id="path878" inkscape:connector-curvature="0"/><path d="m 800.801,307.195 c -5,5.305 -7.293,11.797 -7.293,20.5 0,16.809 9.199,27 24.297,27 8.496,0 14.597,-2.8 19.004,-8.203 3.796,-4.394 5.691,-10.594 5.691,-18.992 0,-8.508 -1.699,-14.504 -5.398,-19.004 -4.395,-5.5 -10,-8.098 -18.704,-8.098 -7.898,0 -13.191,2.102 -17.597,6.797 z M 830.207,315 c 1.297,3.203 1.699,6.395 1.699,11.797 0,6.504 -0.703,10.703 -2.304,14.004 -2.395,4.695 -6.399,6.601 -11.993,6.601 -4.804,0 -8.906,-2.097 -11.007,-5.507 -1.895,-3.094 -2.696,-7.391 -2.696,-13.594 0,-7 1.203,-12.199 3.301,-15.801 1.895,-3.301 5.898,-5.098 11.191,-5.098 5.911,0 9.903,2.395 11.809,7.598" style="fill:#1e5cb3;fill-opacity:1;fill-rule:nonzero;stroke:none" id="path880" inkscape:connector-curvature="0"/><path d="m 884.902,301.301 -15,26.297 c -3.105,5.207 -6.601,12.597 -7,13.601 0.203,-2.703 0.496,-8.105 0.606,-14.707 l 0.39,-25.191 h -9.296 v 52.594 h 10.605 L 880.5,327.402 c 3.105,-5.398 5.605,-10.8 6.297,-12.207 -0.098,1.2 -0.789,7.899 -0.899,14.102 l -0.293,24.598 h 8.997 v -52.594 h -9.7" style="fill:#1e5cb3;fill-opacity:1;fill-rule:nonzero;stroke:none" id="path882" inkscape:connector-curvature="0"/><path d="m 941.398,301.301 -5,13.699 h -19.699 l -5,-13.699 h -9.695 l 19.598,52.691 H 932.5 l 19.199,-52.691 z m -14.699,44.195 c -0.301,-1.394 -7.195,-21.601 -7.597,-22.996 h 15.097 c -0.594,1.797 -7.195,21.602 -7.5,22.996" style="fill:#1e5cb3;fill-opacity:1;fill-rule:nonzero;stroke:none" id="path884" inkscape:connector-curvature="0"/><path d="m 988.996,301.301 h -30.195 v 52.594 h 9.5 V 308.992 H 990.5 l -1.504,-7.691" style="fill:#1e5cb3;fill-opacity:1;fill-rule:nonzero;stroke:none" id="path886" inkscape:connector-curvature="0"/><path d="m 1045,303.301 c -3.79,-2.102 -8.5,-3.106 -13.9,-3.106 -6.7,0 -13.5,1.602 -19.4,4.707 l 3.6,7.293 c 5.51,-2.898 10.51,-4.297 16.31,-4.297 3.49,0 5.8,0.5 7.9,1.7 2.5,1.398 3.89,3.398 3.89,5.996 0,3.801 -2.7,6.203 -9.29,7.902 l -7.5,1.902 c -4.81,1.301 -8.51,3.594 -10.61,6.797 -1.49,2.2 -2.29,4.602 -2.29,7.309 0,9.297 8.3,15.801 20,15.801 6.79,0 14.2,-2.004 18.89,-5.207 l -4.29,-6.7 c -4.71,2.801 -9.51,4.2 -14.2,4.2 -6.11,0 -10.21,-2.598 -10.21,-6.797 0,-3.301 2.31,-5.098 8.3,-6.809 l 7.2,-1.797 c 4.1,-1.093 8.2,-2.898 10.6,-5.398 2.4,-2.402 3.8,-5.899 3.8,-9.5 0,-5.805 -3.3,-11.098 -8.8,-13.996" style="fill:#1e5cb3;fill-opacity:1;fill-rule:nonzero;stroke:none" id="path888" inkscape:connector-curvature="0"/><path d="m 1101.1,305.398 c -3.5,-3.3 -8.4,-5 -15.69,-5 -10.11,0 -15.71,3.704 -18.31,8.301 -1.6,3 -2.1,5.196 -2.1,11.098 v 34.098 h 9.4 v -32.293 c 0,-3.797 0.2,-6.602 0.8,-8 1.41,-3.407 5.21,-5.399 10.3,-5.399 4.1,0 7.2,1.192 8.8,3.289 1.51,2.004 2,3.813 2,8.906 v 33.497 h 9.51 V 320 c 0,-8.398 -1.11,-11.301 -4.71,-14.602" style="fill:#1e5cb3;fill-opacity:1;fill-rule:nonzero;stroke:none" id="path890" inkscape:connector-curvature="0"/><path d="m 1120.5,301.301 h 9.5 v 52.5938 h -9.5 z" style="fill:#1e5cb3;fill-opacity:1;fill-rule:nonzero;stroke:none" id="path892" inkscape:connector-curvature="0"/><path d="m 1173.3,303.301 c -3.8,-2.102 -8.5,-3.106 -13.9,-3.106 -6.7,0 -13.5,1.602 -19.4,4.707 l 3.6,7.293 c 5.5,-2.898 10.5,-4.297 16.3,-4.297 3.5,0 5.8,0.5 7.9,1.7 2.5,1.398 3.9,3.398 3.9,5.996 0,3.801 -2.7,6.203 -9.3,7.902 l -7.5,1.902 c -4.8,1.301 -8.5,3.594 -10.6,6.797 -1.5,2.2 -2.3,4.602 -2.3,7.309 0,9.297 8.3,15.801 20,15.801 6.8,0 14.2,-2.004 18.9,-5.207 l -4.3,-6.7 c -4.7,2.801 -9.5,4.2 -14.2,4.2 -6.1,0 -10.2,-2.598 -10.2,-6.797 0,-3.301 2.3,-5.098 8.3,-6.809 l 7.2,-1.797 c 4.1,-1.093 8.2,-2.898 10.6,-5.398 2.4,-2.402 3.8,-5.899 3.8,-9.5 0,-5.805 -3.3,-11.098 -8.8,-13.996" style="fill:#1e5cb3;fill-opacity:1;fill-rule:nonzero;stroke:none" id="path894" inkscape:connector-curvature="0"/><path d="m 1221.9,303.301 c -3.8,-2.102 -8.5,-3.106 -13.9,-3.106 -6.7,0 -13.5,1.602 -19.4,4.707 l 3.6,7.293 c 5.5,-2.898 10.5,-4.297 16.3,-4.297 3.5,0 5.8,0.5 7.9,1.7 2.5,1.398 3.9,3.398 3.9,5.996 0,3.801 -2.7,6.203 -9.3,7.902 l -7.5,1.902 c -4.8,1.301 -8.5,3.594 -10.6,6.797 -1.5,2.2 -2.3,4.602 -2.3,7.309 0,9.297 8.3,15.801 20,15.801 6.8,0 14.2,-2.004 18.9,-5.207 l -4.3,-6.7 c -4.7,2.801 -9.5,4.2 -14.2,4.2 -6.1,0 -10.2,-2.598 -10.2,-6.797 0,-3.301 2.3,-5.098 8.3,-6.809 l 7.2,-1.797 c 4.1,-1.093 8.2,-2.898 10.6,-5.398 2.4,-2.402 3.8,-5.899 3.8,-9.5 0,-5.805 -3.3,-11.098 -8.8,-13.996" style="fill:#1e5cb3;fill-opacity:1;fill-rule:nonzero;stroke:none" id="path896" inkscape:connector-curvature="0"/><path d="m 1242.2,301.301 v 52.594 h 33 l -1.3,-7.696 h -22.3 v -13.601 h 18.6 v -7.696 h -18.51 V 309.297 H 1276 v -7.996 h -33.8" style="fill:#1e5cb3;fill-opacity:1;fill-rule:nonzero;stroke:none" id="path898" inkscape:connector-curvature="0"/><path d="m 368.91,200 c -7.898,0 -15.496,2.004 -22.195,6.102 l 3.797,7.394 c 6.004,-3.699 11.699,-5.691 18.601,-5.691 9.004,0 14.903,4.597 14.903,11.992 0,5.601 -3.703,9.5 -11.403,11.695 l -7.199,2.11 c -10.398,3 -16.301,8 -16.301,17.793 0,11.906 9.2,20 22.801,20 7.598,0 15,-2.196 21.098,-6.493 l -4.301,-6.808 c -6.395,3.91 -10.699,5.402 -16.395,5.402 -7.703,0 -12.5,-3.992 -12.5,-10.402 0,-4.891 2.797,-7.696 10.2,-9.891 l 8.101,-2.402 c 9.199,-2.707 16.797,-8.703 16.797,-19.406 0,-9.598 -7.902,-21.395 -26.004,-21.395" style="fill:#1e5cb3;fill-opacity:1;fill-rule:nonzero;stroke:none" id="path900" inkscape:connector-curvature="0"/><path d="m 429.816,200.496 c -7.203,0 -13.203,2.199 -17.703,6.508 -5,4.793 -7.699,11.695 -7.699,19.891 0,6.406 1.598,11.906 4.496,16.406 4.504,7.195 12.301,11.601 21.301,11.601 5.504,0 11.305,-1.601 14.801,-4.199 l -4.602,-6.308 c -3.199,2 -6.394,3.007 -10.097,3.007 -5.497,0 -10.399,-2.707 -12.899,-7.402 -1.805,-2.996 -2.598,-6.906 -2.598,-12.5 0,-7.402 1.098,-11.199 4.2,-14.695 2.996,-3.41 6.898,-5.11 11.699,-5.11 4.101,0 7.5,1.2 10.898,3.301 l 4.5,-5.801 c -4,-3.097 -9.8,-4.699 -16.297,-4.699" style="fill:#1e5cb3;fill-opacity:1;fill-rule:nonzero;stroke:none" id="path902" inkscape:connector-curvature="0"/><path d="m 486.313,201.301 v 24.004 h -21 v -24.004 h -9.399 v 52.594 h 9.399 v -20.899 h 21 v 20.899 h 9.402 v -52.594 h -9.402" style="fill:#1e5cb3;fill-opacity:1;fill-rule:nonzero;stroke:none" id="path904" inkscape:connector-curvature="0"/><path d="m 561.613,200.996 h -11.004 l -5.898,22.996 c -2,7.707 -3.203,14.903 -3.402,16.906 -0.297,-2.097 -1.598,-9.503 -3.297,-16.503 l -5.703,-23.399 h -11.2 l -14.097,52.899 h 10 l 6.097,-23.192 c 2.102,-8.008 3.102,-14.707 3.504,-18.008 0.399,3.203 1.602,9.805 3.598,17.5 l 6.098,23.7 h 10.402 l 6.398,-25.293 c 1.602,-6.305 2.801,-12.801 3.2,-15.508 0.304,2.402 1.703,10.109 3.5,17.304 l 6.004,23.497 h 9.699 l -13.899,-52.899" style="fill:#1e5cb3;fill-opacity:1;fill-rule:nonzero;stroke:none" id="path906" inkscape:connector-curvature="0"/><path d="m 585.012,201.301 v 52.594 h 32.996 l -1.297,-7.696 H 594.41 v -13.601 h 18.598 v -7.696 h -18.5 v -15.605 h 24.301 v -7.996 h -33.797" style="fill:#1e5cb3;fill-opacity:1;fill-rule:nonzero;stroke:none" id="path908" inkscape:connector-curvature="0"/><path d="m 633.41,201.301 h 9.5 v 52.5938 h -9.5 z" style="fill:#1e5cb3;fill-opacity:1;fill-rule:nonzero;stroke:none" id="path910" inkscape:connector-curvature="0"/><path d="m 692.711,201.301 h -35.703 v 6.695 l 23.5,33.801 c 1.402,1.902 2.601,3.699 3.5,4.598 -1.199,-0.094 -3.098,-0.094 -5.899,-0.094 H 657.91 l 2.301,7.594 h 34.496 v -7 l -23.199,-33.899 c -1.297,-1.797 -2.5,-3.398 -3.301,-4.297 1.301,0.102 3.301,0.196 5.305,0.196 h 21.699 l -2.5,-7.594" style="fill:#1e5cb3;fill-opacity:1;fill-rule:nonzero;stroke:none" id="path912" inkscape:connector-curvature="0"/><path d="m 708.207,201.301 v 52.594 h 33 l -1.301,-7.696 h -22.297 v -13.601 h 18.598 v -7.696 h -18.5 v -15.605 h 24.301 v -7.996 h -33.801" style="fill:#1e5cb3;fill-opacity:1;fill-rule:nonzero;stroke:none" id="path914" inkscape:connector-curvature="0"/><path d="m 785.305,201.301 c -1.496,2.594 -3.196,5.191 -5,8.094 -4.492,7.207 -7.2,10.507 -9.797,12.5 -1.504,1.308 -2.801,1.707 -4.598,1.906 v -22.5 h -9.305 v 52.594 h 15.7 c 7.902,0 12.004,-0.899 15.097,-3.192 3.703,-2.707 6.008,-6.902 6.008,-11.808 0,-8.7 -5.703,-14.297 -14.601,-14.696 0.898,-0.597 1.894,-1.504 2.597,-2.402 1.699,-2.102 4.699,-5.996 7.5,-9.699 3,-4.293 7.598,-10.496 7.805,-10.797 z m -19.395,45.094 v -15.997 h 5.098 c 5.203,0 7.996,0.598 10,2.102 1.699,1.301 2.703,3.398 2.703,6.199 0,3.305 -1.902,5.899 -5.106,6.895 -1.796,0.605 -3.898,0.801 -6.894,0.801 h -5.801" style="fill:#1e5cb3;fill-opacity:1;fill-rule:nonzero;stroke:none" id="path916" inkscape:connector-curvature="0"/><path d="m 809.211,201.301 h 9.49219 v 52.5938 H 809.211 Z" style="fill:#1e5cb3;fill-opacity:1;fill-rule:nonzero;stroke:none" id="path918" inkscape:connector-curvature="0"/><path d="m 864.309,203.301 c -3.801,-2.102 -8.508,-3.106 -13.899,-3.106 -6.707,0 -13.504,1.602 -19.402,4.707 l 3.601,7.293 c 5.5,-2.898 10.5,-4.297 16.301,-4.297 3.496,0 5.801,0.5 7.899,1.7 2.5,1.398 3.898,3.398 3.898,5.996 0,3.801 -2.695,6.203 -9.297,7.902 l -7.5,1.902 c -4.805,1.301 -8.508,3.594 -10.605,6.797 -1.496,2.2 -2.297,4.602 -2.297,7.309 0,9.297 8.301,15.801 20,15.801 6.797,0 14.199,-2.004 18.898,-5.207 l -4.297,-6.7 c -4.699,2.801 -9.504,4.2 -14.199,4.2 -6.105,0 -10.207,-2.598 -10.207,-6.797 0,-3.301 2.305,-5.098 8.301,-6.809 l 7.199,-1.797 c 4.102,-1.093 8.203,-2.898 10.606,-5.398 2.402,-2.402 3.796,-5.899 3.796,-9.5 0,-5.805 -3.3,-11.098 -8.796,-13.996" style="fill:#1e5cb3;fill-opacity:1;fill-rule:nonzero;stroke:none" id="path920" inkscape:connector-curvature="0"/><path d="m 924.707,205.195 -4.5,5.801 c -3.398,-2.101 -6.797,-3.301 -10.898,-3.301 -4.805,0 -8.704,1.7 -11.7,5.11 -3.105,3.496 -4.199,7.293 -4.199,14.695 0,5.594 0.801,9.504 2.598,12.5 2.5,4.695 7.402,7.402 12.898,7.402 3.703,0 6.895,-1.007 10.098,-3.007 l 4.601,6.308 c -3.496,2.598 -9.296,4.199 -14.796,4.199 -9.004,0 -16.805,-4.406 -21.309,-11.601 -2.891,-4.5 -4.492,-10 -4.492,-16.406 0,-8.196 2.695,-15.098 7.695,-19.891 4.504,-4.309 10.5,-6.508 17.707,-6.508 6.492,0 12.293,1.602 16.297,4.699" style="fill:#1e5cb3;fill-opacity:1;fill-rule:nonzero;stroke:none" id="path922" inkscape:connector-curvature="0"/><path d="m 964.902,201.301 v 24.004 h -20.996 v -24.004 h -9.402 v 52.594 h 9.402 v -20.899 h 20.996 v 20.899 h 9.407 v -52.594 h -9.407" style="fill:#1e5cb3;fill-opacity:1;fill-rule:nonzero;stroke:none" id="path924" inkscape:connector-curvature="0"/><path d="m 991.301,201.301 v 52.594 h 33.009 l -1.3,-7.696 h -22.3 v -13.601 h 18.6 v -7.696 h -18.5 v -15.605 h 24.3 v -7.996 h -33.809" style="fill:#1e5cb3;fill-opacity:1;fill-rule:nonzero;stroke:none" id="path926" inkscape:connector-curvature="0"/><path d="m 1068.41,201.301 c -1.5,2.594 -3.2,5.191 -5,8.094 -4.5,7.207 -7.2,10.507 -9.8,12.5 -1.51,1.308 -2.8,1.707 -4.6,1.906 v -22.5 h -9.3 v 52.594 h 15.7 c 7.9,0 12,-0.899 15.1,-3.192 3.69,-2.707 6,-6.902 6,-11.808 0,-8.7 -5.7,-14.297 -14.6,-14.696 0.9,-0.597 1.89,-1.504 2.6,-2.402 1.7,-2.102 4.69,-5.996 7.5,-9.699 2.99,-4.293 7.59,-10.496 7.8,-10.797 z m -19.4,45.094 v -15.997 h 5.1 c 5.2,0 7.99,0.598 10,2.102 1.7,1.301 2.7,3.398 2.7,6.199 0,3.305 -1.9,5.899 -5.11,6.895 -1.79,0.605 -3.89,0.801 -6.89,0.801 h -5.8" style="fill:#1e5cb3;fill-opacity:1;fill-rule:nonzero;stroke:none" id="path928" inkscape:connector-curvature="0"/><path d="m 1161.91,201.301 -18.11,36.597 c -3.49,7.102 -7.1,14.907 -8.39,18.899 l -0.6,-0.098 c 0.5,-5.898 0.69,-12.804 0.8,-19.199 l 0.4,-36.199 h -9.71 v 68.894 h 11.2 l 19.2,-38 c 2.9,-5.703 6.3,-14.597 6.81,-16.492 l 0.6,0.195 c -0.21,2 -1,12.903 -1,20.497 l -0.2,33.8 h 9.29 v -68.894 h -10.29" style="fill:#1e5cb3;fill-opacity:1;fill-rule:nonzero;stroke:none" id="path930" inkscape:connector-curvature="0"/><path d="m 1221.3,201.301 -5,13.699 h -19.69 l -5,-13.699 h -9.7 l 19.6,52.691 h 10.9 l 19.2,-52.691 z m -14.69,44.195 c -0.31,-1.394 -7.2,-21.601 -7.6,-22.996 h 15.1 c -0.61,1.797 -7.2,21.602 -7.5,22.996" style="fill:#1e5cb3;fill-opacity:1;fill-rule:nonzero;stroke:none" id="path932" inkscape:connector-curvature="0"/><path d="m 1272.01,246.199 h -15.21 v -44.898 h -9.3 v 44.898 h -15 v 7.696 h 40.81 l -1.3,-7.696" style="fill:#1e5cb3;fill-opacity:1;fill-rule:nonzero;stroke:none" id="path934" inkscape:connector-curvature="0"/><path d="m 1283.71,201.301 h 9.5 v 52.5938 h -9.5 z" style="fill:#1e5cb3;fill-opacity:1;fill-rule:nonzero;stroke:none" id="path936" inkscape:connector-curvature="0"/><path d="m 1314.7,207.195 c -5,5.305 -7.29,11.797 -7.29,20.5 0,16.809 9.2,27 24.29,27 8.5,0 14.6,-2.8 19,-8.203 3.81,-4.394 5.7,-10.594 5.7,-18.992 0,-8.508 -1.7,-14.504 -5.4,-19.004 -4.39,-5.5 -10,-8.098 -18.7,-8.098 -7.9,0 -13.19,2.102 -17.6,6.797 z m 29.41,7.805 c 1.3,3.203 1.7,6.395 1.7,11.797 0,6.504 -0.71,10.703 -2.31,14.004 -2.4,4.695 -6.4,6.601 -12,6.601 -4.8,0 -8.9,-2.097 -11,-5.507 -1.9,-3.094 -2.69,-7.391 -2.69,-13.594 0,-7 1.19,-12.199 3.29,-15.801 1.9,-3.301 5.91,-5.098 11.2,-5.098 5.9,0 9.9,2.395 11.81,7.598" style="fill:#1e5cb3;fill-opacity:1;fill-rule:nonzero;stroke:none" id="path938" inkscape:connector-curvature="0"/><path d="m 1401.1,201.301 -15,26.297 c -3.1,5.207 -6.6,12.597 -6.99,13.601 0.19,-2.703 0.49,-8.105 0.59,-14.707 l 0.4,-25.191 h -9.29 v 52.594 h 10.59 l 15.3,-26.493 c 3.1,-5.398 5.6,-10.8 6.3,-12.207 -0.09,1.2 -0.8,7.899 -0.9,14.102 l -0.3,24.598 h 9.01 v -52.594 h -9.71" style="fill:#1e5cb3;fill-opacity:1;fill-rule:nonzero;stroke:none" id="path940" inkscape:connector-curvature="0"/><path d="m 1459.9,201.301 -5,13.699 h -19.7 l -5,-13.699 h -9.7 l 19.6,52.691 h 10.9 l 19.2,-52.691 z m -14.7,44.195 c -0.3,-1.394 -7.2,-21.601 -7.6,-22.996 h 15.1 c -0.6,1.797 -7.2,21.602 -7.5,22.996" style="fill:#1e5cb3;fill-opacity:1;fill-rule:nonzero;stroke:none" id="path942" inkscape:connector-curvature="0"/><path d="m 1509.8,201.301 h -30.21 v 52.594 h 9.51 v -44.903 h 22.2 l -1.5,-7.691" style="fill:#1e5cb3;fill-opacity:1;fill-rule:nonzero;stroke:none" id="path944" inkscape:connector-curvature="0"/><path d="m 1550.8,246.395 h -20.9 v -13.7 h 17.1 v -7.597 h -17.1 v -23.797 h -9.3 v 52.594 h 31.4 l -1.2,-7.5" style="fill:#1e5cb3;fill-opacity:1;fill-rule:nonzero;stroke:none" id="path946" inkscape:connector-curvature="0"/><path d="m 1567.6,207.195 c -5,5.305 -7.3,11.797 -7.3,20.5 0,16.809 9.2,27 24.29,27 8.51,0 14.6,-2.8 19.01,-8.203 3.8,-4.394 5.7,-10.594 5.7,-18.992 0,-8.508 -1.7,-14.504 -5.4,-19.004 -4.4,-5.5 -10,-8.098 -18.7,-8.098 -7.9,0 -13.2,2.102 -17.6,6.797 z M 1597,215 c 1.3,3.203 1.7,6.395 1.7,11.797 0,6.504 -0.7,10.703 -2.3,14.004 -2.4,4.695 -6.4,6.601 -12,6.601 -4.81,0 -8.9,-2.097 -11.01,-5.507 -1.89,-3.094 -2.69,-7.391 -2.69,-13.594 0,-7 1.2,-12.199 3.3,-15.801 1.89,-3.301 5.9,-5.098 11.2,-5.098 5.9,0 9.9,2.395 11.8,7.598" style="fill:#1e5cb3;fill-opacity:1;fill-rule:nonzero;stroke:none" id="path948" inkscape:connector-curvature="0"/><path d="m 1654,201.301 -15,26.297 c -3.11,5.207 -6.6,12.597 -7,13.601 0.19,-2.703 0.5,-8.105 0.59,-14.707 l 0.4,-25.191 h -9.29 v 52.594 h 10.6 l 15.29,-26.493 c 3.11,-5.398 5.61,-10.8 6.3,-12.207 -0.09,1.2 -0.8,7.899 -0.89,14.102 l -0.31,24.598 h 9.01 v -52.594 h -9.7" style="fill:#1e5cb3;fill-opacity:1;fill-rule:nonzero;stroke:none" id="path950" inkscape:connector-curvature="0"/><path d="m 1707.59,252.098 c 7.81,-2.403 15.11,-8.895 15.11,-24.5 0,-17.004 -10.61,-24.2 -17.1,-25.594 -2.3,-0.609 -5.51,-0.703 -9.4,-0.703 h -15.31 v 52.594 h 11.81 c 5.5,0 10.6,0 14.89,-1.797 z m 0.9,-10.496 c -3.09,3.703 -6.59,4.793 -11.99,4.793 h -6.2 v -37.5 h 7.29 c 1.7,0 3.61,0.207 5,0.609 5.61,1.394 9.81,6.297 9.81,17.391 0,6.906 -1.11,11.406 -3.91,14.707" style="fill:#1e5cb3;fill-opacity:1;fill-rule:nonzero;stroke:none" id="path952" inkscape:connector-curvature="0"/><path d="m 1765.3,203.301 c -3.8,-2.102 -8.51,-3.106 -13.91,-3.106 -6.7,0 -13.49,1.602 -19.39,4.707 l 3.59,7.293 c 5.51,-2.898 10.51,-4.297 16.3,-4.297 3.51,0 5.8,0.5 7.9,1.7 2.5,1.398 3.91,3.398 3.91,5.996 0,3.801 -2.71,6.203 -9.31,7.902 l -7.5,1.902 c -4.8,1.301 -8.5,3.594 -10.6,6.797 -1.5,2.2 -2.29,4.602 -2.29,7.309 0,9.297 8.29,15.801 20,15.801 6.8,0 14.2,-2.004 18.9,-5.207 l -4.3,-6.7 c -4.71,2.801 -9.5,4.2 -14.21,4.2 -6.09,0 -10.2,-2.598 -10.2,-6.797 0,-3.301 2.31,-5.098 8.31,-6.809 l 7.19,-1.797 c 4.1,-1.093 8.21,-2.898 10.61,-5.398 2.39,-2.402 3.8,-5.899 3.8,-9.5 0,-5.805 -3.3,-11.098 -8.8,-13.996" style="fill:#1e5cb3;fill-opacity:1;fill-rule:nonzero;stroke:none" id="path954" inkscape:connector-curvature="0"/><path d="m 386.813,162.297 h -24.899 v -20.902 h 20.402 v -7.793 h -20.402 v -32.301 h -9.703 v 68.894 h 35.906 l -1.304,-7.898" style="fill:#1e5cb3;fill-opacity:1;fill-rule:nonzero;stroke:none" id="path956" inkscape:connector-curvature="0"/><path d="m 397.012,107.195 c -5,5.305 -7.301,11.797 -7.301,20.5 0,16.809 9.199,27 24.305,27 8.496,0 14.597,-2.8 18.996,-8.203 3.801,-4.394 5.699,-10.594 5.699,-18.992 0,-8.508 -1.699,-14.504 -5.398,-19.004 -4.403,-5.5 -10,-8.098 -18.7,-8.098 -7.898,0 -13.203,2.102 -17.601,6.797 z M 426.41,115 c 1.301,3.203 1.699,6.395 1.699,11.797 0,6.504 -0.695,10.703 -2.296,14.004 -2.399,4.695 -6.399,6.601 -12,6.601 -4.797,0 -8.899,-2.097 -11,-5.507 -1.899,-3.094 -2.7,-7.391 -2.7,-13.594 0,-7 1.2,-12.199 3.301,-15.801 1.899,-3.301 5.899,-5.098 11.199,-5.098 5.899,0 9.899,2.395 11.797,7.598" style="fill:#1e5cb3;fill-opacity:1;fill-rule:nonzero;stroke:none" id="path958" inkscape:connector-curvature="0"/><path d="m 481.113,101.301 -15,26.297 c -3.101,5.207 -6.601,12.597 -7,13.601 0.2,-2.703 0.496,-8.105 0.598,-14.707 l 0.402,-25.191 h -9.3 v 52.594 h 10.597 l 15.301,-26.493 c 3.098,-5.398 5.598,-10.8 6.301,-12.207 -0.102,1.2 -0.801,7.899 -0.903,14.102 l -0.296,24.598 h 9 v -52.594 h -9.7" style="fill:#1e5cb3;fill-opacity:1;fill-rule:nonzero;stroke:none" id="path960" inkscape:connector-curvature="0"/><path d="m 532.406,152.098 c 7.805,-2.403 15.106,-8.895 15.106,-24.5 0,-17.004 -10.602,-24.2 -17.102,-25.594 -2.301,-0.609 -5.504,-0.703 -9.398,-0.703 h -15.305 v 52.594 h 11.805 c 5.496,0 10.597,0 14.894,-1.797 z m 0.907,-10.496 c -3.102,3.703 -6.602,4.793 -12.004,4.793 h -6.2 v -37.5 h 7.297 c 1.707,0 3.606,0.207 5,0.609 5.602,1.394 9.801,6.297 9.801,17.391 0,6.906 -1.098,11.406 -3.894,14.707" style="fill:#1e5cb3;fill-opacity:1;fill-rule:nonzero;stroke:none" id="path962" inkscape:connector-curvature="0"/><path d="m 563.707,107.195 c -5,5.305 -7.301,11.797 -7.301,20.5 0,16.809 9.203,27 24.301,27 8.504,0 14.602,-2.8 19,-8.203 3.801,-4.394 5.703,-10.594 5.703,-18.992 0,-8.508 -1.703,-14.504 -5.398,-19.004 -4.403,-5.5 -10,-8.098 -18.703,-8.098 -7.899,0 -13.2,2.102 -17.602,6.797 z M 593.109,115 c 1.301,3.203 1.7,6.395 1.7,11.797 0,6.504 -0.704,10.703 -2.297,14.004 -2.403,4.695 -6.403,6.601 -12.004,6.601 -4.801,0 -8.903,-2.097 -11,-5.507 -1.899,-3.094 -2.699,-7.391 -2.699,-13.594 0,-7 1.199,-12.199 3.3,-15.801 1.899,-3.301 5.899,-5.098 11.2,-5.098 5.898,0 9.898,2.395 11.8,7.598" style="fill:#1e5cb3;fill-opacity:1;fill-rule:nonzero;stroke:none" id="path964" inkscape:connector-curvature="0"/><path d="m 663.508,101.301 -15,26.297 c -3.102,5.207 -6.602,12.597 -7.004,13.601 0.199,-2.703 0.504,-8.105 0.601,-14.707 l 0.399,-25.191 h -9.297 v 52.594 h 10.598 l 15.3,-26.493 c 3.102,-5.398 5.602,-10.8 6.301,-12.207 -0.097,1.2 -0.801,7.899 -0.898,14.102 l -0.305,24.598 h 9.004 v -52.594 h -9.699" style="fill:#1e5cb3;fill-opacity:1;fill-rule:nonzero;stroke:none" id="path966" inkscape:connector-curvature="0"/><path d="m 720.004,101.301 -5,13.699 h -19.699 l -5,-13.699 h -9.7 l 19.602,52.691 h 10.898 l 19.2,-52.691 z m -14.699,44.195 c -0.301,-1.394 -7.2,-21.601 -7.598,-22.996 h 15.098 c -0.598,1.797 -7.2,21.602 -7.5,22.996" style="fill:#1e5cb3;fill-opacity:1;fill-rule:nonzero;stroke:none" id="path968" inkscape:connector-curvature="0"/><path d="m 769.902,101.301 h -35.699 v 6.695 l 23.504,33.801 c 1.395,1.902 2.598,3.699 3.496,4.598 -1.203,-0.094 -3.098,-0.094 -5.898,-0.094 h -20.203 l 2.3,7.594 h 34.504 v -7 l -23.199,-33.899 c -1.305,-1.797 -2.5,-3.398 -3.301,-4.297 1.297,0.102 3.301,0.196 5.297,0.196 h 21.699 l -2.5,-7.594" style="fill:#1e5cb3;fill-opacity:1;fill-rule:nonzero;stroke:none" id="path970" inkscape:connector-curvature="0"/><path d="m 783.301,101.301 h 9.50391 v 52.5938 H 783.301 Z" style="fill:#1e5cb3;fill-opacity:1;fill-rule:nonzero;stroke:none" id="path972" inkscape:connector-curvature="0"/><path d="m 812.004,107.195 c -5,5.305 -7.305,11.797 -7.305,20.5 0,16.809 9.207,27 24.305,27 8.496,0 14.601,-2.8 18.996,-8.203 3.797,-4.394 5.703,-10.594 5.703,-18.992 0,-8.508 -1.699,-14.504 -5.402,-19.004 -4.395,-5.5 -10,-8.098 -18.699,-8.098 -7.903,0 -13.196,2.102 -17.598,6.797 z M 841.406,115 c 1.301,3.203 1.699,6.395 1.699,11.797 0,6.504 -0.703,10.703 -2.304,14.004 -2.403,4.695 -6.395,6.601 -12,6.601 -4.797,0 -8.899,-2.097 -10.996,-5.507 -1.907,-3.094 -2.707,-7.391 -2.707,-13.594 0,-7 1.203,-12.199 3.3,-15.801 1.907,-3.301 5.899,-5.098 11.204,-5.098 5.898,0 9.902,2.395 11.804,7.598" style="fill:#1e5cb3;fill-opacity:1;fill-rule:nonzero;stroke:none" id="path974" inkscape:connector-curvature="0"/><path d="m 896.105,101.301 -15,26.297 c -3.105,5.207 -6.601,12.597 -7.003,13.601 0.195,-2.703 0.5,-8.105 0.597,-14.707 l 0.399,-25.191 h -9.297 v 52.594 h 10.597 l 15.301,-26.493 c 3.106,-5.398 5.606,-10.8 6.301,-12.207 -0.098,1.2 -0.801,7.899 -0.898,14.102 l -0.305,24.598 h 9.004 v -52.594 h -9.696" style="fill:#1e5cb3;fill-opacity:1;fill-rule:nonzero;stroke:none" id="path976" inkscape:connector-curvature="0"/><path d="m 952.598,101.301 -5,13.699 h -19.696 l -5,-13.699 h -9.699 l 19.602,52.691 h 10.898 l 19.199,-52.691 z m -14.696,44.195 c -0.304,-1.394 -7.199,-21.601 -7.597,-22.996 h 15.097 c -0.605,1.797 -7.199,21.602 -7.5,22.996" style="fill:#1e5cb3;fill-opacity:1;fill-rule:nonzero;stroke:none" id="path978" inkscape:connector-curvature="0"/><path d="M 1000.2,101.301 H 970 v 52.594 h 9.504 v -44.903 h 22.196 l -1.5,-7.691" style="fill:#1e5cb3;fill-opacity:1;fill-rule:nonzero;stroke:none" id="path980" inkscape:connector-curvature="0"/><path d="m 1008.71,101.301 v 52.594 h 32.99 l -1.29,-7.696 h -22.31 v -13.601 h 18.6 v -7.696 h -18.5 v -15.605 h 24.3 v -7.996 h -33.79" style="fill:#1e5cb3;fill-opacity:1;fill-rule:nonzero;stroke:none" id="path982" inkscape:connector-curvature="0"/><path d="m 1098.6,103.301 c -3.8,-2.102 -8.5,-3.106 -13.9,-3.106 -6.7,0 -13.49,1.602 -19.4,4.707 l 3.6,7.293 c 5.5,-2.898 10.5,-4.297 16.3,-4.297 3.51,0 5.8,0.5 7.9,1.7 2.5,1.398 3.9,3.398 3.9,5.996 0,3.801 -2.7,6.203 -9.3,7.902 l -7.5,1.902 c -4.79,1.301 -8.5,3.594 -10.6,6.797 -1.5,2.2 -2.3,4.602 -2.3,7.309 0,9.297 8.3,15.801 20,15.801 6.8,0 14.2,-2.004 18.91,-5.207 l -4.31,-6.7 c -4.7,2.801 -9.5,4.2 -14.2,4.2 -6.1,0 -10.2,-2.598 -10.2,-6.797 0,-3.301 2.3,-5.098 8.31,-6.809 l 7.19,-1.797 c 4.1,-1.093 8.21,-2.898 10.6,-5.398 2.4,-2.402 3.8,-5.899 3.8,-9.5 0,-5.805 -3.3,-11.098 -8.8,-13.996" style="fill:#1e5cb3;fill-opacity:1;fill-rule:nonzero;stroke:none" id="path984" inkscape:connector-curvature="0"/><path d="m 1140.8,101.102 h -8.7 l -20,52.793 h 10.2 l 10.7,-27.899 c 2,-5.098 3.5,-10.898 3.7,-11.699 0.2,0.898 1.6,6.406 3.6,11.406 l 11.3,28.192 h 9.7 l -20.5,-52.793" style="fill:#1e5cb3;fill-opacity:1;fill-rule:nonzero;stroke:none" id="path986" inkscape:connector-curvature="0"/><path d="m 1169.3,101.301 h 9.5 v 52.5938 h -9.5 z" style="fill:#1e5cb3;fill-opacity:1;fill-rule:nonzero;stroke:none" id="path988" inkscape:connector-curvature="0"/><path d="m 1226.3,101.301 h -35.7 v 6.695 l 23.5,33.801 c 1.4,1.902 2.6,3.699 3.5,4.598 -1.2,-0.094 -3.1,-0.094 -5.9,-0.094 h -20.2 l 2.3,7.594 h 34.5 v -7 l -23.2,-33.899 c -1.3,-1.797 -2.5,-3.398 -3.3,-4.297 1.3,0.102 3.3,0.196 5.3,0.196 h 21.7 l -2.5,-7.594" style="fill:#1e5cb3;fill-opacity:1;fill-rule:nonzero;stroke:none" id="path990" inkscape:connector-curvature="0"/><path d="m 1272,101.301 h -35.71 v 6.695 l 23.51,33.801 c 1.4,1.902 2.6,3.699 3.5,4.598 -1.21,-0.094 -3.1,-0.094 -5.9,-0.094 h -20.2 l 2.3,7.594 h 34.5 v -7 l -23.2,-33.899 c -1.3,-1.797 -2.5,-3.398 -3.3,-4.297 1.29,0.102 3.3,0.196 5.3,0.196 h 21.7 l -2.5,-7.594" style="fill:#1e5cb3;fill-opacity:1;fill-rule:nonzero;stroke:none" id="path992" inkscape:connector-curvature="0"/><path d="m 1285.2,101.301 v 52.594 h 33 l -1.3,-7.696 h -22.31 v -13.601 h 18.61 v -7.696 h -18.51 V 109.297 H 1319 v -7.996 h -33.8" style="fill:#1e5cb3;fill-opacity:1;fill-rule:nonzero;stroke:none" id="path994" inkscape:connector-curvature="0"/><path d="m 1360,101.301 c -1.5,2.594 -3.21,5.191 -5,8.094 -4.51,7.207 -7.2,10.507 -9.8,12.5 -1.5,1.308 -2.8,1.707 -4.6,1.906 v -22.5 h -9.31 v 52.594 H 1347 c 7.9,0 12,-0.899 15.09,-3.192 3.71,-2.707 6.01,-6.902 6.01,-11.808 0,-8.7 -5.7,-14.297 -14.6,-14.696 0.9,-0.597 1.9,-1.504 2.6,-2.402 1.7,-2.102 4.7,-5.996 7.5,-9.699 3,-4.293 7.6,-10.496 7.8,-10.797 z m -19.4,45.094 v -15.997 h 5.1 c 5.19,0 8,0.598 10,2.102 1.7,1.301 2.69,3.398 2.69,6.199 0,3.305 -1.89,5.899 -5.09,6.895 -1.8,0.605 -3.9,0.801 -6.9,0.801 h -5.8" style="fill:#1e5cb3;fill-opacity:1;fill-rule:nonzero;stroke:none" id="path996" inkscape:connector-curvature="0"/><path d="m 1384.59,107.195 c -5,5.305 -7.29,11.797 -7.29,20.5 0,16.809 9.2,27 24.3,27 8.49,0 14.6,-2.8 19,-8.203 3.8,-4.394 5.69,-10.594 5.69,-18.992 0,-8.508 -1.7,-14.504 -5.4,-19.004 -4.39,-5.5 -10,-8.098 -18.7,-8.098 -7.9,0 -13.19,2.102 -17.6,6.797 z M 1414,115 c 1.3,3.203 1.7,6.395 1.7,11.797 0,6.504 -0.7,10.703 -2.31,14.004 -2.4,4.695 -6.39,6.601 -12,6.601 -4.79,0 -8.89,-2.097 -10.99,-5.507 -1.91,-3.094 -2.7,-7.391 -2.7,-13.594 0,-7 1.19,-12.199 3.29,-15.801 1.91,-3.301 5.91,-5.098 11.2,-5.098 5.91,0 9.9,2.395 11.81,7.598" style="fill:#1e5cb3;fill-opacity:1;fill-rule:nonzero;stroke:none" id="path998" inkscape:connector-curvature="0"/><path d="m 368.91,0 c -7.898,0 -15.496,2.00391 -22.195,6.10156 l 3.797,7.39454 c 6.004,-3.69922 11.699,-5.69141 18.601,-5.69141 9.004,0 14.903,4.59761 14.903,11.99221 0,5.6015 -3.703,9.5 -11.403,11.6953 l -7.199,2.1094 c -10.398,3 -16.301,8 -16.301,17.7929 0,11.9063 9.2,20 22.801,20 7.598,0 15,-2.1953 21.098,-6.4922 l -4.301,-6.8085 c -6.395,3.9101 -10.699,5.4023 -16.395,5.4023 -7.703,0 -12.5,-3.9922 -12.5,-10.4023 0,-4.8907 2.797,-7.6954 10.2,-9.8907 l 8.101,-2.4023 c 9.199,-2.707 16.797,-8.7031 16.797,-19.4063 C 394.914,11.7969 387.012,0 368.91,0" style="fill:#1e5cb3;fill-opacity:1;fill-rule:nonzero;stroke:none" id="path1000" inkscape:connector-curvature="0"/><path d="m 454.711,0.996094 h -11 L 437.813,23.9922 c -2,7.707 -3.2,14.9023 -3.399,16.9062 -0.301,-2.0976 -1.601,-9.5039 -3.301,-16.5039 L 425.41,0.996094 H 414.215 L 400.113,53.8945 h 10 l 6.098,-23.1914 c 2.102,-8.0078 3.102,-14.707 3.5,-18.0078 0.402,3.2031 1.602,9.8047 3.602,17.5 l 6.101,23.6992 h 10.402 l 6.395,-25.2929 c 1.602,-6.3047 2.805,-12.8008 3.203,-15.5078 0.297,2.4023 1.699,10.1093 3.496,17.3046 l 6,23.4961 h 9.703 L 454.711,0.996094" style="fill:#1e5cb3;fill-opacity:1;fill-rule:nonzero;stroke:none" id="path1002" inkscape:connector-curvature="0"/><path d="m 477.813,1.30078 h 9.49609 v 52.5938 H 477.813 Z" style="fill:#1e5cb3;fill-opacity:1;fill-rule:nonzero;stroke:none" id="path1004" inkscape:connector-curvature="0"/><path d="m 530.41,3.30078 c -3.797,-2.10156 -8.5,-3.105467 -13.902,-3.105467 -6.699,0 -13.5,1.601567 -19.399,4.707027 l 3.598,7.29296 c 5.504,-2.89842 10.504,-4.29686 16.305,-4.29686 3.496,0 5.801,0.5 7.902,1.69922 2.5,1.39844 3.895,3.39844 3.895,5.99614 0,3.8007 -2.7,6.2031 -9.297,7.9023 l -7.5,1.9023 c -4.801,1.3008 -8.5,3.5938 -10.602,6.7969 -1.496,2.1992 -2.297,4.6016 -2.297,7.3086 0,9.2969 8.301,15.8008 20,15.8008 6.797,0 14.2,-2.0039 18.895,-5.207 l -4.297,-6.6993 c -4.703,2.8008 -9.5,4.1993 -14.199,4.1993 -6.102,0 -10.199,-2.5977 -10.199,-6.7969 0,-3.3008 2.3,-5.0977 8.3,-6.8086 l 7.196,-1.7969 c 4.101,-1.0937 8.199,-2.8984 10.601,-5.3984 2.399,-2.4024 3.801,-5.8985 3.801,-9.5 0,-5.8047 -3.301,-11.09768 -8.801,-13.99612" style="fill:#1e5cb3;fill-opacity:1;fill-rule:nonzero;stroke:none" id="path1006" inkscape:connector-curvature="0"/><path d="m 578.809,3.30078 c -3.797,-2.10156 -8.5,-3.105467 -13.903,-3.105467 -6.699,0 -13.496,1.601567 -19.398,4.707027 l 3.605,7.29296 c 5.496,-2.89842 10.496,-4.29686 16.297,-4.29686 3.5,0 5.801,0.5 7.903,1.69922 2.5,1.39844 3.894,3.39844 3.894,5.99614 0,3.8007 -2.699,6.2031 -9.297,7.9023 l -7.5,1.9023 c -4.801,1.3008 -8.5,3.5938 -10.601,6.7969 -1.496,2.1992 -2.297,4.6016 -2.297,7.3086 0,9.2969 8.301,15.8008 20,15.8008 6.801,0 14.199,-2.0039 18.898,-5.207 l -4.301,-6.6993 c -4.703,2.8008 -9.5,4.1993 -14.199,4.1993 -6.097,0 -10.199,-2.5977 -10.199,-6.7969 0,-3.3008 2.301,-5.0977 8.301,-6.8086 l 7.195,-1.7969 c 4.102,-1.0937 8.203,-2.8984 10.602,-5.3984 2.402,-2.4024 3.8,-5.8985 3.8,-9.5 0,-5.8047 -3.296,-11.09768 -8.8,-13.99612" style="fill:#1e5cb3;fill-opacity:1;fill-rule:nonzero;stroke:none" id="path1008" inkscape:connector-curvature="0"/><path d="M 654.211,1.30078 636.109,37.8984 c -3.5,7.1016 -7.101,14.9063 -8.398,18.8985 l -0.602,-0.0977 c 0.5,-5.8984 0.7,-12.8047 0.797,-19.1992 l 0.399,-36.19922 h -9.696 V 70.1953 h 11.2 l 19.199,-38 c 2.902,-5.7031 6.301,-14.5976 6.797,-16.4922 l 0.601,0.1953 c -0.199,2 -1,12.9024 -1,20.4961 l -0.199,33.8008 h 9.301 V 1.30078 h -10.297" style="fill:#1e5cb3;fill-opacity:1;fill-rule:nonzero;stroke:none" id="path1010" inkscape:connector-curvature="0"/><path d="M 711.109,1.30078 706.109,15 h -19.703 l -5,-13.69922 h -9.695 l 19.598,52.69142 h 10.898 L 721.406,1.30078 Z M 696.406,45.4961 C 696.109,44.1016 689.211,23.8945 688.809,22.5 h 15.097 c -0.601,1.7969 -7.195,21.6016 -7.5,22.9961" style="fill:#1e5cb3;fill-opacity:1;fill-rule:nonzero;stroke:none" id="path1012" inkscape:connector-curvature="0"/><path d="M 760.305,46.1992 H 745.109 V 1.30078 h -9.304 V 46.1992 h -15 v 7.6953 h 40.797 l -1.297,-7.6953" style="fill:#1e5cb3;fill-opacity:1;fill-rule:nonzero;stroke:none" id="path1014" inkscape:connector-curvature="0"/><path d="m 769.504,1.30078 h 9.5 v 52.5938 h -9.5 z" style="fill:#1e5cb3;fill-opacity:1;fill-rule:nonzero;stroke:none" id="path1016" inkscape:connector-curvature="0"/><path d="m 798.008,7.19531 c -5,5.30469 -7.305,11.79689 -7.305,20.49999 0,16.8086 9.199,27 24.297,27 8.508,0 14.602,-2.8008 19.004,-8.2031 3.801,-4.3945 5.703,-10.5938 5.703,-18.9922 0,-8.5078 -1.699,-14.5039 -5.398,-19.00391 -4.407,-5.5 -10,-8.097652 -18.704,-8.097652 -7.898,0 -13.203,2.101562 -17.597,6.796872 z M 827.402,15 c 1.301,3.2031 1.7,6.3945 1.7,11.7969 0,6.5039 -0.692,10.7031 -2.293,14.0039 -2.403,4.6953 -6.407,6.6015 -12.004,6.6015 -4.805,0 -8.895,-2.0976 -10.996,-5.5078 -1.903,-3.0937 -2.704,-7.3906 -2.704,-13.5937 0,-7 1.2,-12.1992 3.301,-15.8008 1.903,-3.30078 5.899,-5.09766 11.199,-5.09766 5.899,0 9.903,2.39454 11.797,7.59766" style="fill:#1e5cb3;fill-opacity:1;fill-rule:nonzero;stroke:none" id="path1018" inkscape:connector-curvature="0"/><path d="m 882.902,1.30078 -15,26.29692 c -3.097,5.207 -6.601,12.5976 -7.004,13.6015 0.207,-2.7031 0.508,-8.1054 0.606,-14.707 l 0.402,-25.19142 h -9.297 V 53.8945 h 10.594 l 15.305,-26.4922 c 3.094,-5.3984 5.594,-10.8007 6.297,-12.207 -0.098,1.1992 -0.801,7.8985 -0.899,14.1016 l -0.301,24.5976 h 9.004 V 1.30078 h -9.707" style="fill:#1e5cb3;fill-opacity:1;fill-rule:nonzero;stroke:none" id="path1020" inkscape:connector-curvature="0"/><path d="M 939.699,1.30078 934.699,15 H 915 L 910,1.30078 h -9.695 l 19.597,52.69142 h 10.899 L 950,1.30078 Z M 925,45.4961 C 924.699,44.1016 917.805,23.8945 917.402,22.5 H 932.5 c -0.594,1.7969 -7.195,21.6016 -7.5,22.9961" style="fill:#1e5cb3;fill-opacity:1;fill-rule:nonzero;stroke:none" id="path1022" inkscape:connector-curvature="0"/><path d="M 987.102,1.30078 H 956.906 V 53.8945 h 9.492 V 8.99219 h 22.207 l -1.503,-7.69141" style="fill:#1e5cb3;fill-opacity:1;fill-rule:nonzero;stroke:none" id="path1024" inkscape:connector-curvature="0"/><path d="m 1031.8,0 c -7.9,0 -15.5,2.00391 -22.2,6.10156 l 3.8,7.39454 c 6,-3.69922 11.7,-5.69141 18.61,-5.69141 8.99,0 14.89,4.59761 14.89,11.99221 0,5.6015 -3.69,9.5 -11.4,11.6953 l -7.19,2.1094 c -10.4,3 -16.3,8 -16.3,17.7929 0,11.9063 9.2,20 22.79,20 7.61,0 15,-2.1953 21.1,-6.4922 l -4.29,-6.8085 c -6.41,3.9101 -10.71,5.4023 -16.41,5.4023 -7.7,0 -12.5,-3.9922 -12.5,-10.4023 0,-4.8907 2.8,-7.6954 10.21,-9.8907 l 8.09,-2.4023 c 9.2,-2.707 16.81,-8.7031 16.81,-19.4063 C 1057.81,11.7969 1049.91,0 1031.8,0" style="fill:#1e5cb3;fill-opacity:1;fill-rule:nonzero;stroke:none" id="path1026" inkscape:connector-curvature="0"/><path d="m 1090.2,0.496094 c -7.2,0 -13.19,2.199216 -17.7,6.507816 -5,4.79299 -7.7,11.69529 -7.7,19.89059 0,6.4063 1.6,11.9063 4.5,16.4063 4.5,7.1953 12.31,11.6015 21.3,11.6015 5.5,0 11.3,-1.6015 14.81,-4.1992 l -4.6,-6.3086 c -3.21,2 -6.41,3.0078 -10.11,3.0078 -5.5,0 -10.39,-2.707 -12.89,-7.4023 -1.81,-2.9961 -2.61,-6.9062 -2.61,-12.5 0,-7.4023 1.1,-11.1992 4.2,-14.6953 3.01,-3.41017 6.9,-5.10939 11.7,-5.10939 4.1,0 7.5,1.19922 10.91,3.30079 l 4.49,-5.80079 c -4,-3.09765 -9.8,-4.699216 -16.3,-4.699216" style="fill:#1e5cb3;fill-opacity:1;fill-rule:nonzero;stroke:none" id="path1028" inkscape:connector-curvature="0"/><path d="m 1114.3,1.30078 h 9.5 v 52.5938 h -9.5 z" style="fill:#1e5cb3;fill-opacity:1;fill-rule:nonzero;stroke:none" id="path1030" inkscape:connector-curvature="0"/><path d="M 1138.6,1.30078 V 53.8945 h 33.01 l -1.31,-7.6953 H 1148 V 32.5977 h 18.61 V 24.9023 H 1148.1 V 9.29688 h 24.3 v -7.9961 h -33.8" style="fill:#1e5cb3;fill-opacity:1;fill-rule:nonzero;stroke:none" id="path1032" inkscape:connector-curvature="0"/><path d="m 1214.8,1.30078 -15,26.29692 c -3.1,5.207 -6.6,12.5976 -7,13.6015 0.2,-2.7031 0.51,-8.1054 0.6,-14.707 l 0.4,-25.19142 h -9.3 V 53.8945 h 10.6 l 15.31,-26.4922 c 3.09,-5.3984 5.59,-10.8007 6.29,-12.207 -0.09,1.1992 -0.8,7.8985 -0.89,14.1016 l -0.31,24.5976 h 9 V 1.30078 h -9.7" style="fill:#1e5cb3;fill-opacity:1;fill-rule:nonzero;stroke:none" id="path1034" inkscape:connector-curvature="0"/><path d="m 1260.8,0.496094 c -7.2,0 -13.2,2.199216 -17.7,6.507816 -5,4.79299 -7.69,11.69529 -7.69,19.89059 0,6.4063 1.59,11.9063 4.49,16.4063 4.5,7.1953 12.3,11.6015 21.3,11.6015 5.5,0 11.3,-1.6015 14.8,-4.1992 l -4.6,-6.3086 c -3.2,2 -6.4,3.0078 -10.1,3.0078 -5.5,0 -10.4,-2.707 -12.9,-7.4023 -1.8,-2.9961 -2.6,-6.9062 -2.6,-12.5 0,-7.4023 1.1,-11.1992 4.2,-14.6953 3,-3.41017 6.9,-5.10939 11.7,-5.10939 4.1,0 7.5,1.19922 10.9,3.30079 l 4.5,-5.80079 c -4,-3.09765 -9.8,-4.699216 -16.3,-4.699216" style="fill:#1e5cb3;fill-opacity:1;fill-rule:nonzero;stroke:none" id="path1036" inkscape:connector-curvature="0"/><path d="M 1284.7,1.30078 V 53.8945 h 33 l -1.3,-7.6953 h -22.3 V 32.5977 h 18.6 v -7.6954 h -18.5 V 9.29688 h 24.3 v -7.9961 h -33.8" style="fill:#1e5cb3;fill-opacity:1;fill-rule:nonzero;stroke:none" id="path1038" inkscape:connector-curvature="0"/><path d="m 1382.7,62.2969 h -24.9 V 41.3945 h 20.4 v -7.7929 h -20.4 V 1.30078 h -9.7 V 70.1953 h 35.9 l -1.3,-7.8984" style="fill:#1e5cb3;fill-opacity:1;fill-rule:nonzero;stroke:none" id="path1040" inkscape:connector-curvature="0"/><path d="m 1393.2,7.19531 c -5,5.30469 -7.31,11.79689 -7.31,20.49999 0,16.8086 9.21,27 24.31,27 8.5,0 14.6,-2.8008 18.99,-8.2031 3.81,-4.3945 5.71,-10.5938 5.71,-18.9922 0,-8.5078 -1.7,-14.5039 -5.4,-19.00391 -4.4,-5.5 -10,-8.097652 -18.7,-8.097652 -7.9,0 -13.2,2.101562 -17.6,6.796872 z M 1422.6,15 c 1.3,3.2031 1.7,6.3945 1.7,11.7969 0,6.5039 -0.7,10.7031 -2.3,14.0039 -2.41,4.6953 -6.4,6.6015 -12,6.6015 -4.8,0 -8.9,-2.0976 -11,-5.5078 -1.91,-3.0937 -2.71,-7.3906 -2.71,-13.5937 0,-7 1.21,-12.1992 3.3,-15.8008 1.91,-3.30078 5.91,-5.09766 11.21,-5.09766 5.89,0 9.9,2.39454 11.8,7.59766" style="fill:#1e5cb3;fill-opacity:1;fill-rule:nonzero;stroke:none" id="path1042" inkscape:connector-curvature="0"/><path d="m 1482.4,5.39844 c -3.5,-3.30078 -8.4,-5.000002 -15.71,-5.000002 -10.09,0 -15.69,3.703122 -18.3,8.300782 -1.6,2.99998 -2.1,5.19528 -2.1,11.09768 v 34.0976 h 9.41 V 21.6016 c 0,-3.7969 0.19,-6.6016 0.8,-8 1.4,-3.4063 5.19,-5.39847 10.29,-5.39847 4.1,0 7.21,1.1914 8.81,3.28907 1.49,2.0039 1.99,3.8125 1.99,8.9062 v 33.4961 h 9.5 V 20 c 0,-8.3984 -1.09,-11.30078 -4.69,-14.60156" style="fill:#1e5cb3;fill-opacity:1;fill-rule:nonzero;stroke:none" id="path1044" inkscape:connector-curvature="0"/><path d="m 1531.9,1.30078 -15,26.29692 c -3.11,5.207 -6.6,12.5976 -7,13.6015 0.19,-2.7031 0.5,-8.1054 0.59,-14.707 l 0.4,-25.19142 h -9.29 V 53.8945 h 10.59 l 15.31,-26.4922 c 3.09,-5.3984 5.59,-10.8007 6.29,-12.207 -0.09,1.1992 -0.8,7.8985 -0.89,14.1016 l -0.31,24.5976 h 9.01 V 1.30078 h -9.7" style="fill:#1e5cb3;fill-opacity:1;fill-rule:nonzero;stroke:none" id="path1046" inkscape:connector-curvature="0"/><path d="m 1582.99,52.0977 c 7.81,-2.4024 15.1,-8.8946 15.1,-24.5 0,-17.0039 -10.59,-24.19926 -17.1,-25.59379 -2.29,-0.60938 -5.5,-0.70313 -9.39,-0.70313 h -15.31 V 53.8945 h 11.8 c 5.51,0 10.61,0 14.9,-1.7968 z m 0.9,-10.4961 c -3.09,3.7031 -6.6,4.7929 -12,4.7929 h -6.19 V 8.89453 h 7.29 c 1.7,0 3.61,0.20703 5,0.60938 5.61,1.39449 9.81,6.29689 9.81,17.39059 0,6.9063 -1.11,11.4063 -3.91,14.7071" style="fill:#1e5cb3;fill-opacity:1;fill-rule:nonzero;stroke:none" id="path1048" inkscape:connector-curvature="0"/><path d="M 1641.69,1.30078 1636.69,15 H 1617 l -5,-13.69922 h -9.71 l 19.6,52.69142 h 10.9 L 1652,1.30078 Z M 1627,45.4961 c -0.31,-1.3945 -7.21,-21.6016 -7.61,-22.9961 h 15.11 c -0.61,1.7969 -7.21,21.6016 -7.5,22.9961" style="fill:#1e5cb3;fill-opacity:1;fill-rule:nonzero;stroke:none" id="path1050" inkscape:connector-curvature="0"/><path d="m 1690.89,46.1992 h -15.2 V 1.30078 h -9.3 V 46.1992 h -15 v 7.6953 h 40.8 l -1.3,-7.6953" style="fill:#1e5cb3;fill-opacity:1;fill-rule:nonzero;stroke:none" id="path1052" inkscape:connector-curvature="0"/><path d="m 1700.09,1.30078 h 9.5 v 52.5938 h -9.5 z" style="fill:#1e5cb3;fill-opacity:1;fill-rule:nonzero;stroke:none" id="path1054" inkscape:connector-curvature="0"/><path d="m 1730.59,7.19531 c -5,5.30469 -7.3,11.79689 -7.3,20.49999 0,16.8086 9.21,27 24.3,27 8.5,0 14.6,-2.8008 19,-8.2031 3.8,-4.3945 5.7,-10.5938 5.7,-18.9922 0,-8.5078 -1.7,-14.5039 -5.4,-19.00391 -4.39,-5.5 -10,-8.097652 -18.7,-8.097652 -7.9,0 -13.19,2.101562 -17.6,6.796872 z M 1760,15 c 1.29,3.2031 1.69,6.3945 1.69,11.7969 0,6.5039 -0.7,10.7031 -2.3,14.0039 -2.4,4.6953 -6.4,6.6015 -12,6.6015 -4.8,0 -8.9,-2.0976 -11,-5.5078 -1.9,-3.0937 -2.7,-7.3906 -2.7,-13.5937 0,-7 1.2,-12.1992 3.3,-15.8008 1.9,-3.30078 5.9,-5.09766 11.2,-5.09766 5.9,0 9.9,2.39454 11.81,7.59766" style="fill:#1e5cb3;fill-opacity:1;fill-rule:nonzero;stroke:none" id="path1056" inkscape:connector-curvature="0"/><path d="m 1814.49,1.30078 -15,26.29692 c -3.1,5.207 -6.6,12.5976 -7,13.6015 0.2,-2.7031 0.5,-8.1054 0.6,-14.707 l 0.4,-25.19142 h -9.31 V 53.8945 h 10.61 l 15.3,-26.4922 c 3.1,-5.3984 5.6,-10.8007 6.3,-12.207 -0.11,1.1992 -0.8,7.8985 -0.9,14.1016 l -0.3,24.5976 h 8.99 V 1.30078 h -9.69" style="fill:#1e5cb3;fill-opacity:1;fill-rule:nonzero;stroke:none" id="path1058" inkscape:connector-curvature="0"/><path d="m 10.8828,422.922 h 680.32 v 170.082 h -680.32 z" style="fill:#ffffff;fill-opacity:1;fill-rule:evenodd;stroke:none" id="path1060" inkscape:connector-curvature="0"/><path d="M 691.203,422.922 V 593.004 H 10.8828 V 422.922 Z" style="fill:none;stroke:#ffffff;stroke-width:21.77000046;stroke-linecap:butt;stroke-linejoin:miter;stroke-miterlimit:4;stroke-dasharray:none;stroke-opacity:1" id="path1062" inkscape:connector-curvature="0"/><path d="m 409.859,593.004 c 0.313,-0.176 0.664,-0.324 0.965,-0.5 l -20.105,-39.316 c -9.278,7.753 -21.145,12.929 -33.672,12.929 -9.414,0 -21.992,-5.429 -21.992,-16.308 0,-11.375 13.875,-15.77 22.781,-18.614 l 13.039,-3.886 c 27.059,-8.008 48.281,-22.063 48.281,-53.61 0,-17.754 -4.59,-37.715 -17.07,-50.742 H 691.203 V 593.004 H 409.859" style="fill:#1e5cb3;fill-opacity:1;fill-rule:evenodd;stroke:none" id="path1064" inkscape:connector-curvature="0"/><path d="m 274.707,423.27 21.68,42.992 c 12.636,-11.117 27.574,-20.16 44.957,-20.16 12.051,0 24.883,5.937 24.883,19.652 0,14.234 -20.157,19.137 -31.172,22.242 -31.696,9.043 -52.594,17.328 -52.594,55.094 0,21.23 8.144,38.449 21.66,49.914 H 10.8828 V 422.957 H 275.176 c -0.156,0.098 -0.321,0.195 -0.469,0.313" style="fill:#a7a5a6;fill-opacity:1;fill-rule:evenodd;stroke:none" id="path1066" inkscape:connector-curvature="0"/><path d="M 74.6445,557.074 V 521.547 H 118.535 V 507.145 H 74.6445 V 445.066 H 58.9414 V 571.48 H 120.051 V 557.074 H 74.6445" style="fill:#ffffff;fill-opacity:1;fill-rule:nonzero;stroke:none" id="path1068" inkscape:connector-curvature="0"/><path d="M 74.6445,557.074 V 521.547 H 118.535 V 507.145 H 74.6445 V 445.066 H 58.9414 V 571.48 h 61.1096 v -14.406 z" style="fill:none;stroke:#ffffff;stroke-width:3;stroke-linecap:butt;stroke-linejoin:miter;stroke-miterlimit:4;stroke-dasharray:none;stroke-opacity:1" id="path1070" inkscape:connector-curvature="0"/><path d="m 146.711,577.516 94.812,-99.422 v 93.386 h 15.704 V 439.871 l -94.805,99.41 v -94.215 h -15.711 v 132.45" style="fill:#ffffff;fill-opacity:1;fill-rule:nonzero;stroke:none" id="path1072" inkscape:connector-curvature="0"/><path d="m 146.711,577.516 94.812,-99.422 v 93.386 h 15.704 V 439.871 l -94.805,99.41 v -94.215 h -15.711 z" style="fill:none;stroke:#ffffff;stroke-width:3;stroke-linecap:butt;stroke-linejoin:miter;stroke-miterlimit:4;stroke-dasharray:none;stroke-opacity:1" id="path1074" inkscape:connector-curvature="0"/><path d="m 445.375,577.516 94.801,-99.422 v 93.386 h 15.703 V 439.871 l -94.801,99.41 v -94.215 h -15.703 v 132.45" style="fill:#ffffff;fill-opacity:1;fill-rule:nonzero;stroke:none" id="path1076" inkscape:connector-curvature="0"/><path d="m 445.375,577.516 94.801,-99.422 v 93.386 h 15.703 V 439.871 l -94.801,99.41 v -94.215 h -15.703 z" style="fill:none;stroke:#ffffff;stroke-width:3;stroke-linecap:butt;stroke-linejoin:miter;stroke-miterlimit:4;stroke-dasharray:none;stroke-opacity:1" id="path1078" inkscape:connector-curvature="0"/><path d="m 603.574,557.074 v -35.527 h 43.899 V 507.145 H 603.574 V 445.066 H 587.871 V 571.48 h 61.113 v -14.406 h -45.41" style="fill:#ffffff;fill-opacity:1;fill-rule:nonzero;stroke:none" id="path1080" inkscape:connector-curvature="0"/><path d="m 603.574,557.074 v -35.527 h 43.899 V 507.145 H 603.574 V 445.066 H 587.871 V 571.48 h 61.113 v -14.406 z" style="fill:none;stroke:#ffffff;stroke-width:3;stroke-linecap:butt;stroke-linejoin:miter;stroke-miterlimit:4;stroke-dasharray:none;stroke-opacity:1" id="path1082" inkscape:connector-curvature="0"/></g></g></svg>