<svg xmlns="http://www.w3.org/2000/svg" xmlns:cc="http://creativecommons.org/ns#" xmlns:inkscape="http://www.inkscape.org/namespaces/inkscape" xmlns:rdf="http://www.w3.org/1999/02/22-rdf-syntax-ns#" xmlns:svg="http://www.w3.org/2000/svg" xmlns:sodipodi="http://sodipodi.sourceforge.net/DTD/sodipodi-0.dtd" xmlns:dc="http://purl.org/dc/elements/1.1/" height="512" id="svg4156" version="1.1" width="512"><defs id="defs4158"/><g id="layer1" transform="translate(0,448)"><g id="g29342" transform="translate(6039.9901,-9378.8571)"><path d="m -5899.4688,9594.3438 c -4.4319,0 -8,3.5679 -8,8 l 0,154 c 0,4.432 3.5681,8 8,8 l 154,0 c 4.432,0 8,-3.568 8,-8 l 0,-154 c 0,-4.4321 -3.568,-8 -8,-8 l -154,0 z m 93.1876,16.875 a 2.0002,2.0002 0 0 1 0.3437,0.031 l 0.031,0 c 8.5114,0.019 15.729,0.6237 18.0624,0.9375 a 2.0002,2.0002 0 0 1 1.7188,1.9687 l 0,21.0313 a 2.0002,2.0002 0 0 1 -2,2 l -12.4375,0 c -4.5613,0 -6.759,1.0324 -7.9687,2.4687 -1.2099,1.4365 -1.6876,3.7512 -1.6876,6.9688 l 0,13 21.2813,0 a 2.0002,2.0002 0 0 1 1.9687,2.2812 l -3.0312,23.5 a 2.0002,2.0002 0 0 1 -1.9688,1.75 l -18.25,0 0,58.3126 a 2.0002,2.0002 0 0 1 -2,2 l -24.2812,0 a 2.0002,2.0002 0 0 1 -2,-2 l 0,-58.3438 -18.2812,0 a 2.0002,2.0002 0 0 1 -2,-2 l 0,-23.5 a 2.0002,2.0002 0 0 1 2,-2 l 18.2812,0 0,-15.3438 c 0,-10.465 3.2593,-18.8262 9,-24.5 5.7407,-5.6736 13.8386,-8.5624 23.2188,-8.5624 z" id="rect29330" style="fill:#4d4d4d;fill-opacity:1;fill-rule:nonzero;stroke:none" transform="translate(0,-448)"/><path d="m -5675.6374,8977.9735 c -27.6022,0 -50.0131,22.4027 -50.0131,50.0131 0,3.9282 0.4456,7.7447 1.3223,11.3719 -41.5762,-2.0725 -78.4216,-21.994 -103.0821,-52.2463 -4.2862,7.3871 -6.7584,15.9635 -6.7584,25.1241 0,17.3537 8.8569,32.6653 22.2736,41.6089 -8.1832,-0.2485 -15.8951,-2.509 -22.6557,-6.2589 l 0,0.617 c 0,24.219 17.2309,44.4392 40.1104,49.014 -4.1859,1.1348 -8.6169,1.7631 -13.1644,1.7631 -3.2387,0 -6.3776,-0.3346 -9.4326,-0.9109 6.363,19.8678 24.8558,33.9791 46.6926,35.1002 9.0136,0.4628 32.3722,0 45.664,0 1e-4,12.1164 0,24.6 0,36.7164 64.5057,-19.3647 99.2327,-81.2642 99.2327,-136.1695 0,-2.1874 -0.044,-4.3158 -0.147,-6.4646 9.7544,-7.0186 18.1862,-15.7799 24.8598,-25.7706 -8.9407,3.933 -18.5368,6.6217 -28.5915,7.8164 10.3178,-6.176 18.27,-16.0058 21.9799,-27.6806 -9.6809,5.7433 -20.3817,9.8882 -31.7652,12.136 -9.1304,-9.7101 -22.1223,-15.7797 -36.5253,-15.7797 z m 74.9021,23.5079 c 0.048,-0.021 0.099,-0.038 0.1469,-0.059 l -0.058,-0.059 c -0.027,0.041 -0.061,0.076 -0.088,0.1175 z" id="path5694" style="fill:#4d4d4d;fill-opacity:1"/><path d="m -5942.8194,9128.1043 c -2.8668,-0.01 -5.7307,0.8236 -8.1472,2.3629 -47.0183,28.9982 -73.0233,69.2067 -73.0233,110.8981 0,41.6914 26.005,81.8799 73.0233,110.8781 94.0366,57.9964 239.8962,57.9964 333.9329,0 47.0183,-28.9982 73.0434,-69.1867 73.0434,-110.8781 -10e-5,-41.6914 -26.0251,-81.8999 -73.0434,-110.8981 -3.3578,-2.1854 -7.6106,-2.9533 -11.5228,-2.0807 -3.9123,0.8725 -7.4328,3.3742 -9.5387,6.7782 -2.1059,3.4039 -2.7697,7.6656 -1.7985,11.5468 0.9713,3.8813 3.5648,7.3312 7.0271,9.3476 40.8206,25.1757 58.7158,55.9939 58.7158,85.3062 0,29.3123 -17.8952,60.1105 -58.7158,85.2862 -81.641,50.3515 -220.606,50.3515 -302.2471,0 -40.8206,-25.1757 -58.7357,-55.9739 -58.7358,-85.2862 0,-29.3122 17.9152,-60.1305 58.7358,-85.3062 2.8045,-1.6728 5.0375,-4.2814 6.2549,-7.3071 1.2174,-3.0257 1.4122,-6.4509 0.5457,-9.5946 -1.7332,-6.2875 -7.9716,-11.0409 -14.5063,-11.0531 z" id="path5696" style="font-size:medium;font-style:normal;font-variant:normal;font-weight:normal;font-stretch:normal;text-indent:0;text-align:start;text-decoration:none;line-height:normal;letter-spacing:normal;word-spacing:normal;text-transform:none;direction:ltr;block-progression:tb;writing-mode:lr-tb;text-anchor:start;baseline-shift:baseline;color:#2d2d2d;fill:#4d4d4d;fill-opacity:1;stroke:none;stroke-width:46.94535446;marker:none;visibility:visible;display:inline;overflow:visible;enable-background:accumulate;font-family:Sans;-inkscape-font-specification:Sans"/></g></g></svg>